Source-HROTn_VROTd.ufo
<glyph name="exclam" format="2">
  <advance width="205"/>
  <unicode hex="0021"/>
  <outline>
    <contour>
      <point x="30.240081595515" y="257.2297149435832" type="curve"/>
      <point x="22.24338033532686" y="265.0" type="line"/>
      <point x="97.90380592228746" y="265.0" type="line"/>
      <point x="89.90710466209933" y="257.2297149435832" type="line"/>
      <point x="99.11940549821658" y="577.9229034506116"/>
      <point x="104.88471412688271" y="615.4527919201506"/>
      <point x="118.34884611813104" y="681.5957620497252" type="curve"/>
      <point x="126.18807716974936" y="672.0" type="line"/>
      <point x="-6.040890912135041" y="672.0" type="line"/>
      <point x="1.7983401394832814" y="681.5957620497252" type="line"/>
      <point x="15.262472130731576" y="615.4527919201506"/>
      <point x="21.02778075939774" y="577.9229034506116"/>
    </contour>
    <contour>
      <point x="3.151497243290066" y="-8.0" type="line" smooth="yes"/>
      <point x="-1.2667807553562809" y="-7.999999999999999"/>
      <point x="-4.8485027567099355" y="-4.418277998646345"/>
      <point x="-4.848502756709934" y="1.959434878635765e-15" type="curve"/>
      <point x="-4.848502756709934" y="161.0" type="line"/>
      <point x="-4.848502756709932" y="165.41827799864635"/>
      <point x="-1.266780755356279" y="169.0"/>
      <point x="3.1514972432900676" y="169.0" type="curve" smooth="yes"/>
      <point x="116.99568901432423" y="169.0" type="line" smooth="yes"/>
      <point x="121.41396701297057" y="169.0"/>
      <point x="124.99568901432423" y="165.41827799864635"/>
      <point x="124.99568901432423" y="161.0" type="curve" smooth="yes"/>
      <point x="124.99568901432423" y="-9.797174393178826e-16" type="line" smooth="yes"/>
      <point x="124.99568901432423" y="-4.418277998646348"/>
      <point x="121.41396701297057" y="-8.0"/>
      <point x="116.99568901432423" y="-8.0" type="curve" smooth="yes"/>
    </contour>
    <contour>
      <point x="14.246679075138722" y="256.7702850564168" type="curve" smooth="yes"/>
      <point x="5.076492449501718" y="575.9974184833268"/>
      <point x="-0.47754151089928565" y="612.5636416809746"/>
      <point x="-13.880121963753362" y="678.4042379502748" type="curve" smooth="yes"/>
      <point x="-14.88935058283726" y="683.3621051525101"/>
      <point x="-11.100435318559313" y="688.0"/>
      <point x="-6.04089091213504" y="688.0" type="curve" smooth="yes"/>
      <point x="126.18807716974936" y="688.0" type="line" smooth="yes"/>
      <point x="131.2476215761734" y="688.0"/>
      <point x="135.03653684045153" y="683.3621051525099"/>
      <point x="134.0273082213677" y="678.4042379502748" type="curve" smooth="yes"/>
      <point x="120.6247277685136" y="612.5636416809746"/>
      <point x="115.07069380811258" y="575.9974184833268"/>
      <point x="105.9005071824756" y="256.7702850564168" type="curve" smooth="yes"/>
      <point x="105.776207826425" y="252.4432491149771"/>
      <point x="102.23262682045657" y="249.0"/>
      <point x="97.90380592228746" y="249.0" type="curve" smooth="yes"/>
      <point x="22.24338033532686" y="249.0" type="line" smooth="yes"/>
      <point x="17.91455943715781" y="249.0"/>
      <point x="14.370978431189313" y="252.44324911497716"/>
    </contour>
    <contour>
      <point x="3.1514972432900668" y="8.0" type="line"/>
      <point x="116.99568901432423" y="8.0" type="line"/>
      <point x="108.99568901432423" y="9.797174393178826e-16" type="line"/>
      <point x="108.99568901432423" y="161.0" type="line"/>
      <point x="116.99568901432423" y="153.0" type="line"/>
      <point x="3.151497243290065" y="153.0" type="line"/>
      <point x="11.151497243290066" y="161.0" type="line"/>
      <point x="11.151497243290066" y="-1.959434878635765e-15" type="line"/>
    </contour>
  </outline>
</glyph>
<glyph name="quotedbl" format="2">
  <advance width="366"/>
  <unicode hex="0022"/>
  <outline>
    <contour>
      <point x="34.7004859018779" y="398.67956691409444" type="line"/>
      <point x="26.729401357772986" y="406.0" type="line"/>
      <point x="98.1471862576143" y="406.0" type="line"/>
      <point x="90.17610171350938" y="398.67956691409444" type="line"/>
      <point x="114.21773227385202" y="680.6795669140944" type="line"/>
      <point x="122.18881681795693" y="672.0" type="line"/>
      <point x="2.687770797430374" y="672.0" type="line"/>
      <point x="10.658855341535284" y="680.6795669140944" type="line"/>
    </contour>
    <contour>
      <point x="190.9710845441049" y="398.67956691409444" type="line"/>
      <point x="183.0" y="406.0" type="line"/>
      <point x="254.4177848998413" y="406.0" type="line"/>
      <point x="246.4467003557364" y="398.67956691409444" type="line"/>
      <point x="270.488330916079" y="680.6795669140944" type="line"/>
      <point x="278.4594154601839" y="672.0" type="line"/>
      <point x="158.9583694396574" y="672.0" type="line"/>
      <point x="166.9294539837623" y="680.6795669140944" type="line"/>
    </contour>
    <contour>
      <point x="18.758316813668074" y="397.32043308590556" type="curve" smooth="yes"/>
      <point x="-5.283313746674535" y="679.3204330859056" type="line" smooth="yes"/>
      <point x="-5.681402961428887" y="683.9898817025025"/>
      <point x="-1.9986164471262593" y="688.0"/>
      <point x="2.687770797430375" y="688.0" type="curve" smooth="yes"/>
      <point x="122.18881681795693" y="688.0" type="line" smooth="yes"/>
      <point x="126.87520406251335" y="688.0"/>
      <point x="130.55799057681617" y="683.9898817025024"/>
      <point x="130.15990136206185" y="679.3204330859056" type="curve" smooth="yes"/>
      <point x="106.1182708017192" y="397.32043308590556" type="line" smooth="yes"/>
      <point x="105.76533341603206" y="393.1805997865806"/>
      <point x="102.30203698229928" y="390.0"/>
      <point x="98.1471862576143" y="390.0" type="curve" smooth="yes"/>
      <point x="26.729401357772986" y="390.0" type="line" smooth="yes"/>
      <point x="22.57455063308808" y="390.0"/>
      <point x="19.111254199355212" y="393.1805997865807"/>
    </contour>
    <contour>
      <point x="175.0289154558951" y="397.32043308590556" type="curve" smooth="yes"/>
      <point x="150.98728489555248" y="679.3204330859056" type="line" smooth="yes"/>
      <point x="150.58919568079813" y="683.9898817025025"/>
      <point x="154.27198219510075" y="688.0"/>
      <point x="158.9583694396574" y="688.0" type="curve" smooth="yes"/>
      <point x="278.4594154601839" y="688.0" type="line" smooth="yes"/>
      <point x="283.14580270474033" y="688.0"/>
      <point x="286.8285892190431" y="683.9898817025024"/>
      <point x="286.4305000042888" y="679.3204330859056" type="curve" smooth="yes"/>
      <point x="262.3888694439462" y="397.32043308590556" type="line" smooth="yes"/>
      <point x="262.03593205825905" y="393.1805997865806"/>
      <point x="258.5726356245263" y="390.0"/>
      <point x="254.4177848998413" y="390.0" type="curve" smooth="yes"/>
      <point x="183.0" y="390.0" type="line" smooth="yes"/>
      <point x="178.8451492753151" y="390.0"/>
      <point x="175.38185284158223" y="393.1805997865807"/>
    </contour>
  </outline>
</glyph>
<glyph name="numbersign" format="2">
  <advance width="480"/>
  <unicode hex="0023"/>
  <outline>
    <contour>
      <point x="-3.9518395093589054" y="148.0" type="line" smooth="yes"/>
      <point x="-8.370117508005253" y="148.0"/>
      <point x="-11.951839509358907" y="151.58172200135365"/>
      <point x="-11.951839509358905" y="156.0" type="curve"/>
      <point x="-11.951839509358905" y="281.0" type="line"/>
      <point x="-11.951839509358903" y="285.4182779986464"/>
      <point x="-8.37011750800525" y="289.0"/>
      <point x="-3.9518395093589036" y="289.0" type="curve" smooth="yes"/>
      <point x="68.88015895285548" y="289.0" type="line"/>
      <point x="60.89448407268238" y="281.47853600509507" type="line"/>
      <point x="67.96555188454788" y="399.47853600509507" type="line"/>
      <point x="75.95122676472099" y="391.0" type="line"/>
      <point x="-3.9518395093589054" y="391.0" type="line" smooth="yes"/>
      <point x="-8.370117508005253" y="391.0"/>
      <point x="-11.951839509358907" y="394.5817220013536"/>
      <point x="-11.951839509358905" y="399.0" type="curve"/>
      <point x="-11.951839509358905" y="524.0" type="line"/>
      <point x="-11.951839509358903" y="528.4182779986463"/>
      <point x="-8.37011750800525" y="532.0"/>
      <point x="-3.9518395093589036" y="532.0" type="curve" smooth="yes"/>
      <point x="83.02229457658646" y="532.0" type="line"/>
      <point x="75.03410270110375" y="524.4345003572748" type="line"/>
      <point x="83.5193840753423" y="680.4345003572748" type="line" smooth="yes"/>
      <point x="83.75018257941034" y="684.6776792274444"/>
      <point x="87.25812482465194" y="688.0"/>
      <point x="91.50757595082501" y="688.0" type="curve" smooth="yes"/>
      <point x="179.8959235991435" y="688.0" type="line" smooth="yes"/>
      <point x="184.48493932356078" y="688.0"/>
      <point x="188.13335659610112" y="684.1477419085068"/>
      <point x="187.8841154746262" y="679.5654996427252" type="curve" smooth="yes"/>
      <point x="179.39883410038763" y="523.5654996427252" type="line"/>
      <point x="171.4106422249049" y="532.0" type="line"/>
      <point x="244.94974746830587" y="532.0" type="line"/>
      <point x="236.96155559282317" y="524.4345003572748" type="line"/>
      <point x="245.4468369670617" y="680.4345003572748" type="line" smooth="yes"/>
      <point x="245.67763547112972" y="684.6776792274444"/>
      <point x="249.1855777163713" y="688.0"/>
      <point x="253.4350288425444" y="688.0" type="curve" smooth="yes"/>
      <point x="341.82337649086287" y="688.0" type="line" smooth="yes"/>
      <point x="346.41239221528014" y="688.0"/>
      <point x="350.06080948782045" y="684.1477419085068"/>
      <point x="349.81156836634557" y="679.5654996427252" type="curve" smooth="yes"/>
      <point x="341.326286992107" y="523.5654996427252" type="line"/>
      <point x="333.3380951166243" y="532.0" type="line"/>
      <point x="399.0990257669732" y="532.0" type="line" smooth="yes"/>
      <point x="403.5173037656196" y="532.0"/>
      <point x="407.0990257669732" y="528.4182779986463"/>
      <point x="407.0990257669732" y="524.0" type="curve" smooth="yes"/>
      <point x="407.0990257669732" y="399.0" type="line" smooth="yes"/>
      <point x="407.0990257669732" y="394.5817220013536"/>
      <point x="403.5173037656196" y="391.0"/>
      <point x="399.0990257669732" y="391.0" type="curve" smooth="yes"/>
      <point x="326.2670273047588" y="391.0" type="line"/>
      <point x="334.25270218493193" y="398.52146399490493" type="line"/>
      <point x="327.18163437306646" y="280.52146399490493" type="line"/>
      <point x="319.19595949289334" y="289.0" type="line"/>
      <point x="399.0990257669732" y="289.0" type="line" smooth="yes"/>
      <point x="403.5173037656196" y="289.0"/>
      <point x="407.0990257669732" y="285.4182779986464"/>
      <point x="407.0990257669732" y="281.0" type="curve" smooth="yes"/>
      <point x="407.0990257669732" y="156.0" type="line" smooth="yes"/>
      <point x="407.0990257669732" y="151.58172200135365"/>
      <point x="403.5173037656196" y="148.0"/>
      <point x="399.0990257669732" y="148.0" type="curve" smooth="yes"/>
      <point x="312.12489168102786" y="148.0" type="line"/>
      <point x="320.11308355651056" y="155.56549964272514" type="line"/>
      <point x="311.627802182272" y="-0.43450035727485375" type="line" smooth="yes"/>
      <point x="311.397003678204" y="-4.677679227444189"/>
      <point x="307.88906143296214" y="-8.0"/>
      <point x="303.6396103067893" y="-8.0" type="curve" smooth="yes"/>
      <point x="215.25126265847086" y="-8.0" type="line" smooth="yes"/>
      <point x="210.6622469340536" y="-7.999999999999999"/>
      <point x="207.01382966151326" y="-4.147741908506707"/>
      <point x="207.26307078298817" y="0.4345003572748547" type="curve" smooth="yes"/>
      <point x="215.7483521572267" y="156.43450035727486" type="line"/>
      <point x="223.7365440327094" y="148.0" type="line"/>
      <point x="150.19743878930848" y="148.0" type="line"/>
      <point x="158.1856306647912" y="155.56549964272514" type="line"/>
      <point x="149.70034929055262" y="-0.43450035727485375" type="line" smooth="yes"/>
      <point x="149.4695507864846" y="-4.67767922744419"/>
      <point x="145.96160854124273" y="-8.0"/>
      <point x="141.7121574150699" y="-8.0" type="curve" smooth="yes"/>
      <point x="53.32380976675145" y="-8.0" type="line" smooth="yes"/>
      <point x="48.73479404233417" y="-7.999999999999999"/>
      <point x="45.08637676979384" y="-4.147741908506714"/>
      <point x="45.33561789126874" y="0.4345003572748547" type="curve" smooth="yes"/>
      <point x="53.82089926550729" y="156.43450035727486" type="line"/>
      <point x="61.809091140990006" y="148.0" type="line"/>
    </contour>
    <contour>
      <point x="165.25418148134705" y="280.52146399490493" type="line"/>
      <point x="157.26850660117395" y="289.0" type="line"/>
      <point x="230.80761184457492" y="289.0" type="line"/>
      <point x="222.82193696440183" y="281.478536005095" type="line"/>
      <point x="229.89300477626725" y="399.478536005095" type="line"/>
      <point x="237.87867965644034" y="391.0" type="line"/>
      <point x="164.33957441303943" y="391.0" type="line"/>
      <point x="172.32524929321252" y="398.52146399490493" type="line"/>
    </contour>
    <contour>
      <point x="-3.9518395093589045" y="164.0" type="line"/>
      <point x="61.809091140990006" y="164.0" type="line" smooth="yes"/>
      <point x="66.3981068654073" y="164.0"/>
      <point x="70.04652413794763" y="160.14774190850673"/>
      <point x="69.79728301647272" y="155.56549964272514" type="curve" smooth="yes"/>
      <point x="61.312001642234165" y="-0.4345003572748547" type="line"/>
      <point x="53.32380976675145" y="8.0" type="line"/>
      <point x="141.7121574150699" y="8.0" type="line"/>
      <point x="133.72396553958717" y="0.43450035727485375" type="line"/>
      <point x="142.20924691382575" y="156.43450035727486" type="line" smooth="yes"/>
      <point x="142.44004541789377" y="160.6776792274442"/>
      <point x="145.94798766313565" y="164.0"/>
      <point x="150.19743878930848" y="164.0" type="curve" smooth="yes"/>
      <point x="223.7365440327094" y="164.0" type="line" smooth="yes"/>
      <point x="228.32555975712668" y="164.0"/>
      <point x="231.973977029667" y="160.14774190850673"/>
      <point x="231.7247359081921" y="155.56549964272514" type="curve" smooth="yes"/>
      <point x="223.23945453395356" y="-0.4345003572748547" type="line"/>
      <point x="215.25126265847086" y="8.0" type="line"/>
      <point x="303.6396103067893" y="8.0" type="line"/>
      <point x="295.6514184313066" y="0.43450035727485375" type="line"/>
      <point x="304.13669980554516" y="156.43450035727486" type="line" smooth="yes"/>
      <point x="304.36749830961315" y="160.67767922744417"/>
      <point x="307.87544055485506" y="164.0"/>
      <point x="312.12489168102786" y="164.0" type="curve" smooth="yes"/>
      <point x="399.0990257669732" y="164.0" type="line"/>
      <point x="391.0990257669732" y="156.0" type="line"/>
      <point x="391.0990257669732" y="281.0" type="line"/>
      <point x="399.0990257669732" y="273.0" type="line"/>
      <point x="319.19595949289334" y="273.0" type="line" smooth="yes"/>
      <point x="314.58950961051266" y="273.0"/>
      <point x="310.9347405971721" y="276.8803346160321"/>
      <point x="311.2102846127202" y="281.47853600509507" type="curve" smooth="yes"/>
      <point x="318.2813524245857" y="399.47853600509507" type="line" smooth="yes"/>
      <point x="318.5345233623921" y="403.70338173646127"/>
      <point x="322.0346028249136" y="407.0"/>
      <point x="326.2670273047588" y="407.0" type="curve" smooth="yes"/>
      <point x="399.0990257669732" y="407.0" type="line"/>
      <point x="391.0990257669732" y="399.0" type="line"/>
      <point x="391.0990257669732" y="524.0" type="line"/>
      <point x="399.0990257669732" y="516.0" type="line"/>
      <point x="333.3380951166243" y="516.0" type="line" smooth="yes"/>
      <point x="328.74907939220725" y="516.0"/>
      <point x="325.1006621196667" y="519.8522580914935"/>
      <point x="325.3499032411416" y="524.4345003572748" type="curve" smooth="yes"/>
      <point x="333.8351846153802" y="680.4345003572748" type="line"/>
      <point x="341.82337649086287" y="672.0" type="line"/>
      <point x="253.4350288425444" y="672.0" type="line"/>
      <point x="261.4232207180271" y="679.5654996427252" type="line"/>
      <point x="252.93793934378857" y="523.5654996427252" type="line" smooth="yes"/>
      <point x="252.70714083972055" y="519.3223207725558"/>
      <point x="249.1991985944787" y="516.0"/>
      <point x="244.94974746830587" y="516.0" type="curve" smooth="yes"/>
      <point x="171.4106422249049" y="516.0" type="line" smooth="yes"/>
      <point x="166.8216265004879" y="516.0"/>
      <point x="163.1732092279473" y="519.8522580914935"/>
      <point x="163.42245034942218" y="524.4345003572748" type="curve" smooth="yes"/>
      <point x="171.90773172366076" y="680.4345003572748" type="line"/>
      <point x="179.8959235991435" y="672.0" type="line"/>
      <point x="91.50757595082501" y="672.0" type="line"/>
      <point x="99.49576782630773" y="679.5654996427252" type="line"/>
      <point x="91.01048645206917" y="523.5654996427252" type="line" smooth="yes"/>
      <point x="90.77968794800115" y="519.3223207725558"/>
      <point x="87.2717457027593" y="516.0"/>
      <point x="83.02229457658646" y="516.0" type="curve" smooth="yes"/>
      <point x="-3.9518395093589063" y="516.0" type="line"/>
      <point x="4.048160490641095" y="524.0" type="line"/>
      <point x="4.048160490641095" y="399.0" type="line"/>
      <point x="-3.9518395093589045" y="407.0" type="line"/>
      <point x="75.95122676472099" y="407.0" type="line" smooth="yes"/>
      <point x="80.55767664710166" y="407.0"/>
      <point x="84.21244566044221" y="403.1196653839679"/>
      <point x="83.93690164489409" y="398.52146399490493" type="curve" smooth="yes"/>
      <point x="76.86583383302859" y="280.52146399490493" type="line" smooth="yes"/>
      <point x="76.61266289522214" y="276.29661826353873"/>
      <point x="73.1125834327007" y="273.0"/>
      <point x="68.88015895285548" y="273.0" type="curve" smooth="yes"/>
      <point x="-3.9518395093589063" y="273.0" type="line"/>
      <point x="4.048160490641095" y="281.0" type="line"/>
      <point x="4.048160490641095" y="156.0" type="line"/>
    </contour>
    <contour>
      <point x="149.28283172100086" y="281.47853600509507" type="curve" smooth="yes"/>
      <point x="156.35389953286634" y="399.47853600509507" type="line" smooth="yes"/>
      <point x="156.6070704706728" y="403.70338173646127"/>
      <point x="160.10714993319422" y="407.0"/>
      <point x="164.33957441303943" y="407.0" type="curve" smooth="yes"/>
      <point x="237.87867965644034" y="407.0" type="line" smooth="yes"/>
      <point x="242.48512953882098" y="407.0"/>
      <point x="246.13989855216155" y="403.1196653839679"/>
      <point x="245.86435453661343" y="398.521463994905" type="curve" smooth="yes"/>
      <point x="238.79328672474801" y="280.521463994905" type="line" smooth="yes"/>
      <point x="238.54011578694156" y="276.2966182635388"/>
      <point x="235.04003632442016" y="273.0"/>
      <point x="230.80761184457492" y="273.0" type="curve" smooth="yes"/>
      <point x="157.26850660117395" y="273.0" type="line" smooth="yes"/>
      <point x="152.66205671879328" y="273.0"/>
      <point x="149.00728770545274" y="276.8803346160321"/>
    </contour>
  </outline>
</glyph>
<glyph name="dollar" format="2">
  <advance width="382"/>
  <unicode hex="0024"/>
  <outline>
    <contour>
      <point x="81.39844891608513" y="-108.0" type="line" smooth="yes"/>
      <point x="76.79514757965323" y="-108.0"/>
      <point x="73.14151930877637" y="-104.12474201059213"/>
      <point x="73.41230174033119" y="-99.52941176470588" type="curve" smooth="yes"/>
      <point x="80.48336955219666" y="20.47058823529412" type="line"/>
      <point x="87.40166289712501" y="12.071589806525454" type="line"/>
      <point x="57.12701024523133" y="16.149192128091418"/>
      <point x="25.452737248923647" y="25.28179869668044"/>
      <point x="-6.984390592391007" y="37.51460566137833" type="curve" smooth="yes"/>
      <point x="-10.099541329996004" y="38.689402573900345"/>
      <point x="-12.161471607487131" y="41.6706889746267"/>
      <point x="-12.16147160748713" y="45.0" type="curve"/>
      <point x="-12.16147160748713" y="211.0" type="line"/>
      <point x="-12.161471607487128" y="218.3168765754731"/>
      <point x="-3.151096433982312" y="221.79424961863825"/>
      <point x="1.7643851707083398" y="216.3744042873899" type="curve" smooth="yes"/>
      <point x="41.73502846953256" y="172.30248582808778"/>
      <point x="94.63864371044001" y="151.0"/>
      <point x="138.6740981921955" y="151.0" type="curve" smooth="yes"/>
      <point x="181.045720610929" y="151.0"/>
      <point x="201.38477631085027" y="167.68237918214606"/>
      <point x="201.38477631085027" y="195.0" type="curve" smooth="yes"/>
      <point x="201.38477631085027" y="228.80490324547253"/>
      <point x="160.0666886880388" y="246.9072231201331"/>
      <point x="119.17882129475281" y="270.0368937617721" type="curve" smooth="yes"/>
      <point x="57.198485926722064" y="305.09826611293283"/>
      <point x="-14.989898732233296" y="352.37884727251037"/>
      <point x="-14.989898732233314" y="472.0" type="curve" smooth="yes"/>
      <point x="-14.98989873223333" y="575.1190793686111"/>
      <point x="35.984456387253374" y="640.9728024279713"/>
      <point x="115.5294021595356" y="660.7633328118462" type="curve"/>
      <point x="109.46614927276529" y="653.2899045510502" type="line"/>
      <point x="113.70878995988458" y="770.2899045510502" type="line" smooth="yes"/>
      <point x="113.86481147255" y="774.5925354661014"/>
      <point x="117.39807664080686" y="778.0"/>
      <point x="121.70353544371835" y="778.0" type="curve" smooth="yes"/>
      <point x="212.92031021678298" y="778.0" type="line" smooth="yes"/>
      <point x="217.51697812866504" y="778.0"/>
      <point x="221.16819388082584" y="774.135428751235"/>
      <point x="220.90742686432057" y="769.5461634009606" type="curve" smooth="yes"/>
      <point x="214.54346583364165" y="657.5461634009606" type="line"/>
      <point x="207.67657325332647" y="665.9211803438134" type="line"/>
      <point x="236.55284691108395" y="661.8374585600536"/>
      <point x="266.13246077775113" y="653.6925915936305"/>
      <point x="297.1744549598404" y="641.4414262423513" type="curve" smooth="yes"/>
      <point x="300.2297983928513" y="640.2355914179778"/>
      <point x="302.237590053236" y="637.2846858475834"/>
      <point x="302.237590053236" y="634.0" type="curve" smooth="yes"/>
      <point x="302.237590053236" y="470.0" type="line" smooth="yes"/>
      <point x="302.237590053236" y="462.5969511099579"/>
      <point x="293.0476477857846" y="459.1653717060304"/>
      <point x="288.1955062517067" y="464.756601928587" type="curve" smooth="yes"/>
      <point x="251.77600232423902" y="506.723603430837"/>
      <point x="203.92162253195923" y="528.0"/>
      <point x="164.1299423149112" y="528.0" type="curve" smooth="yes"/>
      <point x="125.99452605089724" y="528.0"/>
      <point x="107.7832252269354" y="512.3562167878183"/>
      <point x="107.78322522693537" y="488.0" type="curve" smooth="yes"/>
      <point x="107.78322522693533" y="454.00907677668846"/>
      <point x="148.24197603305194" y="434.31529544512296"/>
      <point x="188.64446378337092" y="410.9233323270019" type="curve" smooth="yes"/>
      <point x="250.71502536248462" y="374.9861322181242"/>
      <point x="322.7436867076458" y="327.55871905977415"/>
      <point x="322.7436867076458" y="210.0" type="curve" smooth="yes"/>
      <point x="322.7436867076458" y="95.65368950738535"/>
      <point x="264.3772644282846" y="29.77772966410815"/>
      <point x="178.37689141283133" y="13.145539047000565" type="curve"/>
      <point x="184.8529512092015" y="20.71966710169875" type="line"/>
      <point x="180.61031052208224" y="-100.28033289830125" type="line" smooth="yes"/>
      <point x="180.45931018847403" y="-104.58685841248491"/>
      <point x="176.92439566356256" y="-108.0"/>
      <point x="172.6152236891498" y="-108.0" type="curve" smooth="yes"/>
    </contour>
    <contour>
      <point x="81.39844891608513" y="-92.0" type="line"/>
      <point x="172.6152236891498" y="-92.0" type="line"/>
      <point x="164.62013685621733" y="-99.71966710169875" type="line"/>
      <point x="168.8627775433366" y="21.28033289830125" type="line" smooth="yes"/>
      <point x="168.9933908643393" y="25.00542135307183"/>
      <point x="171.6792696044389" y="28.146712532672762"/>
      <point x="175.33883733970677" y="28.854460952999435" type="curve" smooth="yes"/>
      <point x="254.80002320510127" y="44.22199418145623"/>
      <point x="306.7436867076458" y="104.3482090543596"/>
      <point x="306.7436867076458" y="210.0" type="curve" smooth="yes"/>
      <point x="306.7436867076458" y="320.4807846366384"/>
      <point x="238.96105297583566" y="363.3031619949215"/>
      <point x="180.62761415527123" y="397.0766676729981" type="curve" smooth="yes"/>
      <point x="130.9799530117903" y="425.8213396730561"/>
      <point x="91.78322522693533" y="446.2310414008671"/>
      <point x="91.78322522693537" y="488.0" type="curve" smooth="yes"/>
      <point x="91.7832252269354" y="519.5792024018426"/>
      <point x="114.68523424012781" y="544.0"/>
      <point x="164.1299423149112" y="544.0" type="curve" smooth="yes"/>
      <point x="207.7815931372262" y="544.0"/>
      <point x="260.32731547501925" y="521.2813860539092"/>
      <point x="300.27967385476524" y="475.243398071413" type="curve"/>
      <point x="286.237590053236" y="470.0" type="line"/>
      <point x="286.237590053236" y="634.0" type="line"/>
      <point x="291.3007251466316" y="626.5585737576487" type="line"/>
      <point x="261.52346868225186" y="638.310592346166"/>
      <point x="233.13589857411856" y="646.1614801266808"/>
      <point x="205.43612511888165" y="650.0788196561866" type="curve" smooth="yes"/>
      <point x="201.31819919050918" y="650.6611823258619"/>
      <point x="198.333299834435" y="654.3016328480519"/>
      <point x="198.56923253856647" y="658.4538365990394" type="curve" smooth="yes"/>
      <point x="204.9331935692454" y="770.4538365990394" type="line"/>
      <point x="212.92031021678298" y="762.0" type="line"/>
      <point x="121.70353544371835" y="762.0" type="line"/>
      <point x="129.6982809275521" y="769.7100954489498" type="line"/>
      <point x="125.45564024043283" y="652.7100954489498" type="line" smooth="yes"/>
      <point x="125.32639614237758" y="649.1459097005846"/>
      <point x="122.8534056216924" y="646.0977575632567"/>
      <point x="119.39238735366251" y="645.2366671881538" type="curve" smooth="yes"/>
      <point x="46.189184459452484" y="627.0239423316659"/>
      <point x="1.0101012677666708" y="566.8978821469627"/>
      <point x="1.0101012677666859" y="472.0" type="curve" smooth="yes"/>
      <point x="1.0101012677667036" y="359.58095598377145"/>
      <point x="68.80803179964856" y="316.9135156912604"/>
      <point x="127.05667671743011" y="283.9631062382279" type="curve" smooth="yes"/>
      <point x="177.81410636170432" y="255.25036808057564"/>
      <point x="217.38477631085027" y="236.96477115349194"/>
      <point x="217.38477631085027" y="195.0" type="curve" smooth="yes"/>
      <point x="217.38477631085027" y="160.38606444305677"/>
      <point x="192.36283695990753" y="135.0"/>
      <point x="138.6740981921955" y="135.0" type="curve" smooth="yes"/>
      <point x="90.79982527369228" y="135.0"/>
      <point x="33.36778087880494" y="157.71168004638676"/>
      <point x="-10.0873283856826" y="205.6255957126101" type="curve"/>
      <point x="3.8385283925128704" y="211.0" type="line"/>
      <point x="3.8385283925128704" y="45.0" type="line"/>
      <point x="-1.338552622583253" y="52.48539433862167" type="line"/>
      <point x="29.87048266461374" y="40.715730079492474"/>
      <point x="60.40893762405904" y="31.85163161318428"/>
      <point x="89.5373705587762" y="27.928410193474548" type="curve" smooth="yes"/>
      <point x="93.6855830257255" y="27.36969987629694"/>
      <point x="96.70187971958822" y="23.70783271782718"/>
      <point x="96.45566390370455" y="19.52941176470588" type="curve" smooth="yes"/>
      <point x="89.38459609183907" y="-100.47058823529412" type="line"/>
    </contour>
  </outline>
</glyph>
<glyph name="percent" format="2">
  <advance width="723"/>
  <unicode hex="0025"/>
  <outline>
    <contour>
      <point x="511.76019100214137" y="86.0" type="curve" smooth="yes"/>
      <point x="476.74049012369596" y="86.0"/>
      <point x="454.96982310026954" y="128.58642028453158"/>
      <point x="454.96982310026954" y="204.0" type="curve" smooth="yes"/>
      <point x="454.96982310026954" y="279.33822265825455"/>
      <point x="476.7754835772977" y="321.0"/>
      <point x="511.76019100214137" y="321.0" type="curve" smooth="yes"/>
      <point x="546.6745348652707" y="321.0"/>
      <point x="569.9647724663862" y="279.1866974328155"/>
      <point x="569.9647724663862" y="204.0" type="curve" smooth="yes"/>
      <point x="569.9647724663862" y="128.73809707307728"/>
      <point x="546.7094579377199" y="86.0"/>
    </contour>
    <contour>
      <point x="511.76019100214137" y="-6.0" type="curve" smooth="yes"/>
      <point x="589.1265393290491" y="-6.0"/>
      <point x="640.9389065523317" y="86.02474047544298"/>
      <point x="640.9389065523317" y="204.0" type="curve" smooth="yes"/>
      <point x="640.9389065523317" y="321.0238461412944"/>
      <point x="589.1265393290491" y="412.0"/>
      <point x="511.76019100214137" y="412.0" type="curve" smooth="yes"/>
      <point x="434.3938426752336" y="412.0"/>
      <point x="382.5814754519512" y="321.0238461412944"/>
      <point x="382.5814754519512" y="204.0" type="curve" smooth="yes"/>
      <point x="382.5814754519512" y="86.02474047544298"/>
      <point x="434.3938426752336" y="-6.0"/>
    </contour>
    <contour>
      <point x="126.38699525547293" y="360.0" type="curve" smooth="yes"/>
      <point x="91.36729437702759" y="360.0"/>
      <point x="69.59662735360115" y="402.5864202845315"/>
      <point x="69.59662735360115" y="478.0" type="curve" smooth="yes"/>
      <point x="69.59662735360115" y="553.3382226582545"/>
      <point x="91.40228783062929" y="595.0"/>
      <point x="126.38699525547293" y="595.0" type="curve" smooth="yes"/>
      <point x="161.30133911860224" y="595.0"/>
      <point x="184.5915767197178" y="553.1866974328154"/>
      <point x="184.5915767197178" y="478.0" type="curve" smooth="yes"/>
      <point x="184.5915767197178" y="402.7380970730773"/>
      <point x="161.33626219105133" y="360.0"/>
    </contour>
    <contour>
      <point x="126.38699525547293" y="268.0" type="curve" smooth="yes"/>
      <point x="203.75334358238075" y="268.0"/>
      <point x="255.56571080566317" y="360.02474047544297"/>
      <point x="255.56571080566317" y="478.0" type="curve" smooth="yes"/>
      <point x="255.56571080566317" y="595.0238461412945"/>
      <point x="203.75334358238075" y="686.0"/>
      <point x="126.38699525547293" y="686.0" type="curve" smooth="yes"/>
      <point x="49.020646928565164" y="686.0"/>
      <point x="-2.7917202947173005" y="595.0238461412945"/>
      <point x="-2.7917202947173223" y="478.0" type="curve" smooth="yes"/>
      <point x="-2.791720294717344" y="360.02474047544297"/>
      <point x="49.020646928565164" y="268.0"/>
    </contour>
    <contour>
      <point x="126.38699525547293" y="-8.0" type="line" smooth="yes"/>
      <point x="120.63202567067393" y="-7.999999999999999"/>
      <point x="116.75966024835202" y="-2.105729228230853"/>
      <point x="119.04454170703325" y="3.176220377902877" type="curve" smooth="yes"/>
      <point x="413.200962680637" y="683.1762203779028" type="line" smooth="yes"/>
      <point x="414.46763567412927" y="686.1043823154321"/>
      <point x="417.3530255312408" y="688.0"/>
      <point x="420.5434162290767" y="688.0" type="curve" smooth="yes"/>
      <point x="511.0530842209548" y="688.0" type="line" smooth="yes"/>
      <point x="516.8080538057537" y="688.0"/>
      <point x="520.6804192280757" y="682.1057292282309"/>
      <point x="518.3955377693945" y="676.8237796220972" type="curve" smooth="yes"/>
      <point x="224.23911679579075" y="-3.1762203779028724" type="line" smooth="yes"/>
      <point x="222.97244380229844" y="-6.104382315432204"/>
      <point x="220.08705394518702" y="-8.0"/>
      <point x="216.89666324735106" y="-8.0" type="curve" smooth="yes"/>
    </contour>
    <contour>
      <point x="511.76019100214137" y="102.0" type="curve" smooth="yes"/>
      <point x="538.7429446927885" y="102.0"/>
      <point x="553.9647724663862" y="145.89367712032825"/>
      <point x="553.9647724663862" y="204.0" type="curve" smooth="yes"/>
      <point x="553.9647724663862" y="262.1644728113648"/>
      <point x="538.7699476970442" y="305.0"/>
      <point x="511.76019100214137" y="305.0" type="curve" smooth="yes"/>
      <point x="484.8579156564412" y="305.0"/>
      <point x="470.96982310026954" y="261.9330158573445"/>
      <point x="470.96982310026954" y="204.0" type="curve" smooth="yes"/>
      <point x="470.96982310026954" y="146.12490267525882"/>
      <point x="484.8848112062181" y="102.0"/>
    </contour>
    <contour>
      <point x="511.76019100214137" y="-22.0" type="curve" smooth="yes"/>
      <point x="426.5913598259423" y="-22.0"/>
      <point x="366.5814754519512" y="74.12680346552325"/>
      <point x="366.5814754519512" y="204.0" type="curve" smooth="yes"/>
      <point x="366.5814754519512" y="332.82583204629543"/>
      <point x="426.5913598259423" y="428.0"/>
      <point x="511.76019100214137" y="428.0" type="curve" smooth="yes"/>
      <point x="596.9290221783406" y="428.0"/>
      <point x="656.9389065523317" y="332.82583204629543"/>
      <point x="656.9389065523317" y="204.0" type="curve" smooth="yes"/>
      <point x="656.9389065523317" y="74.12680346552325"/>
      <point x="596.9290221783406" y="-22.0"/>
    </contour>
    <contour>
      <point x="126.38699525547293" y="376.0" type="curve" smooth="yes"/>
      <point x="153.36974894612015" y="376.0"/>
      <point x="168.5915767197178" y="419.89367712032833"/>
      <point x="168.5915767197178" y="478.0" type="curve" smooth="yes"/>
      <point x="168.5915767197178" y="536.164472811365"/>
      <point x="153.3967519503759" y="579.0"/>
      <point x="126.38699525547293" y="579.0" type="curve" smooth="yes"/>
      <point x="99.48471990977283" y="579.0"/>
      <point x="85.59662735360115" y="535.9330158573447"/>
      <point x="85.59662735360115" y="478.0" type="curve" smooth="yes"/>
      <point x="85.59662735360115" y="420.12490267525885"/>
      <point x="99.51161545954969" y="376.0"/>
    </contour>
    <contour>
      <point x="126.38699525547293" y="252.0" type="curve" smooth="yes"/>
      <point x="41.21816407927377" y="252.0"/>
      <point x="-18.791720294717344" y="348.1268034655233"/>
      <point x="-18.791720294717322" y="478.0" type="curve" smooth="yes"/>
      <point x="-18.7917202947173" y="606.8258320462954"/>
      <point x="41.21816407927377" y="702.0"/>
      <point x="126.38699525547293" y="702.0" type="curve" smooth="yes"/>
      <point x="211.55582643167216" y="702.0"/>
      <point x="271.5657108056632" y="606.8258320462954"/>
      <point x="271.5657108056632" y="478.0" type="curve" smooth="yes"/>
      <point x="271.5657108056632" y="348.1268034655233"/>
      <point x="211.55582643167216" y="252.0"/>
    </contour>
    <contour>
      <point x="126.38699525547293" y="8.0" type="line"/>
      <point x="216.89666324735106" y="8.0" type="line"/>
      <point x="209.55420969891136" y="3.1762203779028724" type="line"/>
      <point x="503.71063067251515" y="683.1762203779028" type="line"/>
      <point x="511.0530842209548" y="672.0" type="line"/>
      <point x="420.5434162290767" y="672.0" type="line"/>
      <point x="427.88586977751635" y="676.8237796220972" type="line"/>
      <point x="133.72944880391262" y="-3.176220377902877" type="line"/>
    </contour>
  </outline>
</glyph>
<glyph name="ampersand" format="2">
  <advance width="467"/>
  <unicode hex="0026"/>
  <outline>
    <contour>
      <point x="364.183026535866" y="201.0" type="line" smooth="yes"/>
      <point x="364.183026535866" y="61.08615822031631"/>
      <point x="285.87470680124966" y="-24.999999999999964"/>
      <point x="173.74947698973676" y="-25.0" type="curve" smooth="yes"/>
      <point x="68.63790997084936" y="-25.000000000000032"/>
      <point x="-8.198791182153975" y="52.14003463098545"/>
      <point x="-8.198791182153968" y="180.0" type="curve" smooth="yes"/>
      <point x="-8.198791182153965" y="250.61617629237082"/>
      <point x="18.51314137522506" y="310.949109620548"/>
      <point x="71.38356420583693" y="350.41109048981394" type="curve"/>
      <point x="71.26604934737459" y="337.6783220000112" type="line"/>
      <point x="25.55568214861495" y="373.1283788055009"/>
      <point x="5.236237660390441" y="428.3984274960331"/>
      <point x="5.2362376603904295" y="492.0" type="curve" smooth="yes"/>
      <point x="5.236237660390399" y="674.9821495834523"/>
      <point x="161.02985997642296" y="733.2323450963435"/>
      <point x="307.2308981759147" y="681.5424723326565" type="curve" smooth="yes"/>
      <point x="310.4272696801505" y="680.4123843497382"/>
      <point x="312.56423150924803" y="677.3902639487549"/>
      <point x="312.56423150924803" y="674.0" type="curve" smooth="yes"/>
      <point x="312.56423150924803" y="511.0" type="line" smooth="yes"/>
      <point x="312.56423150924803" y="504.0019323388349"/>
      <point x="304.21323036585756" y="500.3769237417976"/>
      <point x="299.1010465683924" y="505.15589097449333" type="curve" smooth="yes"/>
      <point x="259.3888900441515" y="542.2795747636275"/>
      <point x="225.11553583766843" y="559.0"/>
      <point x="192.13425330058698" y="559.0" type="curve" smooth="yes"/>
      <point x="151.1695850315554" y="559.0"/>
      <point x="125.88804127599954" y="535.4495920831345"/>
      <point x="125.88804127599948" y="492.0" type="curve" smooth="yes"/>
      <point x="125.88804127599941" y="434.4604495556116"/>
      <point x="163.73299816791246" y="414.0"/>
      <point x="226.07537879754125" y="414.0" type="curve" smooth="yes"/>
      <point x="255.0667568261897" y="414.0" type="line"/>
      <point x="247.0667568261897" y="406.0" type="line"/>
      <point x="247.0667568261897" y="494.0" type="line" smooth="yes"/>
      <point x="247.0667568261897" y="498.4182779986464"/>
      <point x="250.64847882754336" y="502.0"/>
      <point x="255.0667568261897" y="502.0" type="curve" smooth="yes"/>
      <point x="356.183026535866" y="502.0" type="line" smooth="yes"/>
      <point x="360.6013045345124" y="502.0"/>
      <point x="364.183026535866" y="498.4182779986464"/>
      <point x="364.183026535866" y="494.0" type="curve" smooth="yes"/>
      <point x="364.183026535866" y="406.0" type="line"/>
      <point x="356.183026535866" y="414.0" type="line"/>
      <point x="400.023646969432" y="414.0" type="line" smooth="yes"/>
      <point x="404.44192496807835" y="414.0"/>
      <point x="408.023646969432" y="410.4182779986464"/>
      <point x="408.023646969432" y="406.0" type="curve" smooth="yes"/>
      <point x="408.023646969432" y="288.0" type="line" smooth="yes"/>
      <point x="408.023646969432" y="283.5817220013536"/>
      <point x="404.44192496807835" y="280.0"/>
      <point x="400.023646969432" y="280.0" type="curve" smooth="yes"/>
      <point x="356.183026535866" y="280.0" type="line"/>
      <point x="364.183026535866" y="288.0" type="line"/>
    </contour>
    <contour>
      <point x="177.99211767685603" y="116.0" type="curve" smooth="yes"/>
      <point x="220.0559997843658" y="116.0"/>
      <point x="247.0667568261897" y="148.2582557096122"/>
      <point x="247.0667568261897" y="205.0" type="curve" smooth="yes"/>
      <point x="247.0667568261897" y="288.0" type="line"/>
      <point x="255.0667568261897" y="280.0" type="line"/>
      <point x="226.7824855787278" y="280.0" type="line" smooth="yes"/>
      <point x="155.79037605394444" y="280.0"/>
      <point x="113.16011921464163" y="271.94052651529756"/>
      <point x="113.16011921464161" y="195.0" type="curve" smooth="yes"/>
      <point x="113.1601192146416" y="150.68955178502046"/>
      <point x="137.06840383492644" y="116.0"/>
    </contour>
    <contour>
      <point x="348.183026535866" y="201.0" type="curve" smooth="yes"/>
      <point x="348.183026535866" y="288.0" type="line" smooth="yes"/>
      <point x="348.183026535866" y="292.4182779986464"/>
      <point x="351.76474853721965" y="296.0"/>
      <point x="356.183026535866" y="296.0" type="curve" smooth="yes"/>
      <point x="400.023646969432" y="296.0" type="line"/>
      <point x="392.023646969432" y="288.0" type="line"/>
      <point x="392.023646969432" y="406.0" type="line"/>
      <point x="400.023646969432" y="398.0" type="line"/>
      <point x="356.183026535866" y="398.0" type="line" smooth="yes"/>
      <point x="351.76474853721965" y="398.0"/>
      <point x="348.183026535866" y="401.5817220013536"/>
      <point x="348.183026535866" y="406.0" type="curve" smooth="yes"/>
      <point x="348.183026535866" y="494.0" type="line"/>
      <point x="356.183026535866" y="486.0" type="line"/>
      <point x="255.0667568261897" y="486.0" type="line"/>
      <point x="263.0667568261897" y="494.0" type="line"/>
      <point x="263.0667568261897" y="406.0" type="line" smooth="yes"/>
      <point x="263.0667568261897" y="401.5817220013536"/>
      <point x="259.4850348248361" y="398.0"/>
      <point x="255.0667568261897" y="398.0" type="curve" smooth="yes"/>
      <point x="226.07537879754125" y="398.0" type="line" smooth="yes"/>
      <point x="154.10115847367055" y="398.0"/>
      <point x="109.88804127599941" y="425.57064264798606"/>
      <point x="109.88804127599948" y="492.0" type="curve" smooth="yes"/>
      <point x="109.88804127599954" y="544.5494959704905"/>
      <point x="142.59011336902816" y="575.0"/>
      <point x="192.13425330058698" y="575.0" type="curve" smooth="yes"/>
      <point x="228.4054457707324" y="575.0"/>
      <point x="266.3539398023775" y="557.6709106637569"/>
      <point x="310.02741645010366" y="516.8441090255067" type="curve"/>
      <point x="296.56423150924803" y="511.0" type="line"/>
      <point x="296.56423150924803" y="674.0" type="line"/>
      <point x="301.89756484258135" y="666.4575276673435" type="line"/>
      <point x="165.2507097650783" y="714.7694865939022"/>
      <point x="21.2362376603904" y="663.0243346000185"/>
      <point x="21.23623766039043" y="492.0" type="curve" smooth="yes"/>
      <point x="21.23623766039044" y="433.6152323676485"/>
      <point x="39.11037668245001" y="382.86400749998796"/>
      <point x="81.07143302461178" y="350.3216779999888" type="curve" smooth="yes"/>
      <point x="85.24951922396302" y="347.0814197788898"/>
      <point x="85.19109834178175" y="340.75150050300147"/>
      <point x="80.95391816614944" y="337.58890951018606" type="curve" smooth="yes"/>
      <point x="32.005790974208026" y="301.0544928095046"/>
      <point x="7.801208817846036" y="245.37737725385082"/>
      <point x="7.801208817846032" y="180.0" type="curve" smooth="yes"/>
      <point x="7.801208817846025" y="61.86208830623848"/>
      <point x="76.63024982092122" y="-9.00000000000003"/>
      <point x="173.74947698973676" y="-9.0" type="curve" smooth="yes"/>
      <point x="277.9725371103682" y="-8.999999999999966"/>
      <point x="348.183026535866" y="70.94676605768505"/>
    </contour>
    <contour>
      <point x="177.99211767685603" y="100.0" type="curve" smooth="yes"/>
      <point x="128.42320567533142" y="100.0"/>
      <point x="97.1601192146416" y="141.3289007248892"/>
      <point x="97.16011921464161" y="195.0" type="curve" smooth="yes"/>
      <point x="97.16011921464163" y="281.98179693579146"/>
      <point x="146.52541515823316" y="296.0"/>
      <point x="226.7824855787278" y="296.0" type="curve" smooth="yes"/>
      <point x="255.0667568261897" y="296.0" type="line" smooth="yes"/>
      <point x="259.4850348248361" y="296.0"/>
      <point x="263.0667568261897" y="292.4182779986464"/>
      <point x="263.0667568261897" y="288.0" type="curve" smooth="yes"/>
      <point x="263.0667568261897" y="205.0" type="line" smooth="yes"/>
      <point x="263.0667568261897" y="137.80063511692765"/>
      <point x="227.80846008034345" y="100.0"/>
    </contour>
  </outline>
</glyph>
<glyph name="quotesingle" format="2">
  <advance width="211"/>
  <unicode hex="0027"/>
  <outline>
    <contour>
      <point x="35.335785222991404" y="398.67956691409444" type="line"/>
      <point x="27.364700678886493" y="406.0" type="line"/>
      <point x="98.7824855787278" y="406.0" type="line"/>
      <point x="90.81140103462289" y="398.67956691409444" type="line"/>
      <point x="114.85303159496553" y="680.6795669140944" type="line"/>
      <point x="122.82411613907044" y="672.0" type="line"/>
      <point x="3.3230701185438813" y="672.0" type="line"/>
      <point x="11.294154662648792" y="680.6795669140944" type="line"/>
    </contour>
    <contour>
      <point x="19.39361613478158" y="397.32043308590556" type="curve" smooth="yes"/>
      <point x="-4.648014425561028" y="679.3204330859056" type="line" smooth="yes"/>
      <point x="-5.04610364031538" y="683.9898817025025"/>
      <point x="-1.3633171260127521" y="688.0"/>
      <point x="3.3230701185438822" y="688.0" type="curve" smooth="yes"/>
      <point x="122.82411613907044" y="688.0" type="line" smooth="yes"/>
      <point x="127.51050338362685" y="688.0"/>
      <point x="131.19328989792967" y="683.9898817025024"/>
      <point x="130.79520068317535" y="679.3204330859056" type="curve" smooth="yes"/>
      <point x="106.75357012283271" y="397.32043308590556" type="line" smooth="yes"/>
      <point x="106.40063273714557" y="393.1805997865806"/>
      <point x="102.93733630341279" y="390.0"/>
      <point x="98.7824855787278" y="390.0" type="curve" smooth="yes"/>
      <point x="27.364700678886493" y="390.0" type="line" smooth="yes"/>
      <point x="23.209849954201587" y="390.0"/>
      <point x="19.74655352046872" y="393.1805997865807"/>
    </contour>
  </outline>
</glyph>
<glyph name="parenleft" format="2">
  <advance width="341"/>
  <unicode hex="0028"/>
  <outline>
    <contour>
      <point x="106.02155492837889" y="340.0" type="curve" smooth="yes"/>
      <point x="106.02155492837885" y="118.7312281163602"/>
      <point x="157.55935653516713" y="10.0"/>
      <point x="262.77743494484446" y="10.0" type="curve" smooth="yes"/>
      <point x="267.19571294349083" y="9.999999999999998"/>
      <point x="270.77743494484446" y="6.418277998646346"/>
      <point x="270.77743494484446" y="1.9999999999999991" type="curve" smooth="yes"/>
      <point x="270.77743494484446" y="-153.0" type="line" smooth="yes"/>
      <point x="270.77743494484446" y="-158.27727129993522"/>
      <point x="265.75754897386537" y="-162.10870532771548"/>
      <point x="260.6671852335616" y="-160.71666029808432" type="curve" smooth="yes"/>
      <point x="130.59036671741097" y="-125.14498056683604"/>
      <point x="-21.701316499095658" y="38.14888913769308"/>
      <point x="-21.70131649909564" y="340.0" type="curve" smooth="yes"/>
      <point x="-21.701316499095622" y="641.8511108623069"/>
      <point x="130.59036671741097" y="805.1449805668361"/>
      <point x="260.66718523356167" y="840.7166602980843" type="curve" smooth="yes"/>
      <point x="265.75754897386525" y="842.1087053277155"/>
      <point x="270.77743494484446" y="838.2772712999351"/>
      <point x="270.77743494484446" y="833.0" type="curve" smooth="yes"/>
      <point x="270.77743494484446" y="678.0" type="line" smooth="yes"/>
      <point x="270.77743494484446" y="673.5817220013537"/>
      <point x="267.19571294349083" y="670.0"/>
      <point x="262.77743494484446" y="670.0" type="curve" smooth="yes"/>
      <point x="157.55935653516713" y="670.0"/>
      <point x="106.02155492837893" y="561.2687718836397"/>
    </contour>
    <contour>
      <point x="90.02155492837889" y="340.0" type="curve" smooth="yes"/>
      <point x="90.02155492837893" y="576.5030550768461"/>
      <point x="150.3151259558021" y="686.0"/>
      <point x="262.77743494484446" y="686.0" type="curve"/>
      <point x="254.77743494484446" y="678.0" type="line"/>
      <point x="254.77743494484446" y="833.0" type="line"/>
      <point x="264.88768465612725" y="825.2833397019157" type="line"/>
      <point x="139.04371391565607" y="790.8692029298604"/>
      <point x="-5.701316499095623" y="632.0285320371548"/>
      <point x="-5.70131649909564" y="340.0" type="curve" smooth="yes"/>
      <point x="-5.701316499095657" y="47.97146796284519"/>
      <point x="139.04371391565607" y="-110.86920292986039"/>
      <point x="264.8876846561273" y="-145.28333970191568" type="curve"/>
      <point x="254.77743494484446" y="-153.0" type="line"/>
      <point x="254.77743494484446" y="2.000000000000001" type="line"/>
      <point x="262.77743494484446" y="-6.0" type="line"/>
      <point x="150.3151259558021" y="-6.0"/>
      <point x="90.02155492837885" y="103.49694492315393"/>
    </contour>
  </outline>
</glyph>
<glyph name="parenright" format="2">
  <advance width="341"/>
  <unicode hex="0029"/>
  <outline>
    <contour>
      <point x="150.12563132923543" y="341.0" type="curve" smooth="yes"/>
      <point x="150.1256313292355" y="562.2687718836397"/>
      <point x="98.5878297224472" y="671.0"/>
      <point x="-6.630248687230165" y="671.0" type="curve" smooth="yes"/>
      <point x="-11.04852668587651" y="671.0"/>
      <point x="-14.630248687230166" y="674.5817220013537"/>
      <point x="-14.630248687230164" y="679.0" type="curve"/>
      <point x="-14.630248687230164" y="834.0" type="line"/>
      <point x="-14.630248687230162" y="839.2772712999353"/>
      <point x="-9.610362716251073" y="843.1087053277155"/>
      <point x="-4.519998975947351" y="841.7166602980843" type="curve" smooth="yes"/>
      <point x="125.55681954020332" y="806.1449805668361"/>
      <point x="277.84850275671" y="642.8511108623069"/>
      <point x="277.84850275670993" y="341.0" type="curve" smooth="yes"/>
      <point x="277.8485027567099" y="39.14888913769308"/>
      <point x="125.55681954020332" y="-124.14498056683604"/>
      <point x="-4.519998975947351" y="-159.71666029808432" type="curve" smooth="yes"/>
      <point x="-9.610362716251046" y="-161.10870532771548"/>
      <point x="-14.630248687230166" y="-157.27727129993517"/>
      <point x="-14.630248687230164" y="-152.0" type="curve"/>
      <point x="-14.630248687230164" y="3.0000000000000018" type="line"/>
      <point x="-14.630248687230162" y="7.418277998646349"/>
      <point x="-11.04852668587651" y="11.000000000000002"/>
      <point x="-6.6302486872301625" y="11.0" type="curve" smooth="yes"/>
      <point x="98.5878297224472" y="11.0"/>
      <point x="150.12563132923538" y="119.7312281163602"/>
    </contour>
    <contour>
      <point x="166.12563132923543" y="341.0" type="curve" smooth="yes"/>
      <point x="166.12563132923538" y="104.49694492315393"/>
      <point x="105.83206030181225" y="-5.0"/>
      <point x="-6.630248687230166" y="-5.0" type="curve"/>
      <point x="1.3697513127698357" y="2.9999999999999982" type="line"/>
      <point x="1.3697513127698357" y="-152.0" type="line"/>
      <point x="-8.740498398512978" y="-144.28333970191568" type="line"/>
      <point x="117.10347234195821" y="-109.86920292986039"/>
      <point x="261.8485027567099" y="48.97146796284519"/>
      <point x="261.84850275670993" y="341.0" type="curve" smooth="yes"/>
      <point x="261.84850275671" y="633.0285320371548"/>
      <point x="117.10347234195821" y="791.8692029298604"/>
      <point x="-8.740498398512978" y="826.2833397019157" type="curve"/>
      <point x="1.3697513127698357" y="834.0" type="line"/>
      <point x="1.3697513127698357" y="679.0" type="line"/>
      <point x="-6.630248687230163" y="687.0" type="line"/>
      <point x="105.83206030181225" y="687.0"/>
      <point x="166.1256313292355" y="577.5030550768461"/>
    </contour>
  </outline>
</glyph>
<glyph name="asterisk" format="2">
  <advance width="434"/>
  <unicode hex="002A"/>
  <outline>
    <contour>
      <point x="32.214920403741644" y="630.7302375317469" type="line" smooth="yes"/>
      <point x="30.73892269443539" y="634.0260943399561"/>
      <point x="31.653989625420884" y="637.9021688887749"/>
      <point x="34.44816982543258" y="640.1899185140528" type="curve" smooth="yes"/>
      <point x="115.05834288069903" y="706.1899185140528" type="line" smooth="yes"/>
      <point x="119.30772584474998" y="709.6691229990138"/>
      <point x="125.7188838479935" y="707.9300642630476"/>
      <point x="127.62765123336501" y="702.7804306360912" type="curve" smooth="yes"/>
      <point x="173.58959201049058" y="578.7804306360912" type="line"/>
      <point x="158.58703149864655" y="578.7804306360912" type="line"/>
      <point x="204.54897227577217" y="702.7804306360912" type="line" smooth="yes"/>
      <point x="206.45773966114373" y="707.9300642630478"/>
      <point x="212.86889766438708" y="709.6691229990139"/>
      <point x="217.11828062843816" y="706.1899185140528" type="curve" smooth="yes"/>
      <point x="297.72845368370463" y="640.1899185140528" type="line" smooth="yes"/>
      <point x="300.52263388371637" y="637.9021688887749"/>
      <point x="301.4377008147018" y="634.0260943399561"/>
      <point x="299.96170310539554" y="630.7302375317469" type="curve" smooth="yes"/>
      <point x="246.2215877352179" y="510.73023753174687" type="line"/>
      <point x="238.44644266091544" y="521.9859532642945" type="line"/>
      <point x="339.5627123705917" y="527.9859532642945" type="line" smooth="yes"/>
      <point x="344.15922777007745" y="528.2586996034948"/>
      <point x="348.03657992645924" y="524.6046003500039"/>
      <point x="348.03657992645924" y="520.0" type="curve" smooth="yes"/>
      <point x="348.03657992645924" y="388.0" type="line" smooth="yes"/>
      <point x="348.03657992645924" y="383.3927461850705"/>
      <point x="344.1549486414159" y="379.7376863504918"/>
      <point x="339.55601493045856" y="380.01444696438506" type="curve" smooth="yes"/>
      <point x="239.8539587831554" y="386.01444696438506" type="line"/>
      <point x="247.635801297591" y="397.26976246825313" type="line"/>
      <point x="301.37591666776865" y="277.26976246825313" type="line" smooth="yes"/>
      <point x="302.8519143770749" y="273.9739056600439"/>
      <point x="301.9368474460894" y="270.0978311112251"/>
      <point x="299.14266724607774" y="267.8100814859472" type="curve" smooth="yes"/>
      <point x="218.53249419081126" y="201.8100814859472" type="line" smooth="yes"/>
      <point x="214.28188402847007" y="198.32987222597973"/>
      <point x="207.86877636807222" y="200.07107827408072"/>
      <point x="205.96187955418907" y="205.2230961104788" type="curve" smooth="yes"/>
      <point x="158.58572521469034" y="333.22309611047876" type="line"/>
      <point x="173.5908982944468" y="333.22309611047876" type="line"/>
      <point x="126.21474395494812" y="205.2230961104788" type="line" smooth="yes"/>
      <point x="124.30784714106494" y="200.0710782740807"/>
      <point x="117.89473948066714" y="198.3298722259797"/>
      <point x="113.64412931832591" y="201.8100814859472" type="curve" smooth="yes"/>
      <point x="33.03395626305947" y="267.8100814859472" type="line" smooth="yes"/>
      <point x="30.23977606304774" y="270.0978311112251"/>
      <point x="29.324709132062264" y="273.97390566004384"/>
      <point x="30.800706841368537" y="277.26976246825313" type="curve" smooth="yes"/>
      <point x="84.54082221154619" y="397.26976246825313" type="line"/>
      <point x="92.3226647259818" y="386.01444696438506" type="line"/>
      <point x="-7.3793914213214435" y="380.01444696438506" type="line" smooth="yes"/>
      <point x="-11.978325132278787" y="379.73768635049186"/>
      <point x="-15.85995641732214" y="383.3927461850705"/>
      <point x="-15.859956417322138" y="388.0" type="curve"/>
      <point x="-15.859956417322138" y="520.0" type="line"/>
      <point x="-15.859956417322136" y="524.6046003500039"/>
      <point x="-11.98260426094023" y="528.2586996034948"/>
      <point x="-7.386088861454604" y="527.9859532642945" type="curve" smooth="yes"/>
      <point x="93.7301808482217" y="521.9859532642945" type="line"/>
      <point x="85.95503577391926" y="510.73023753174687" type="line"/>
    </contour>
    <contour>
      <point x="46.817475440611474" y="637.2697624682531" type="line"/>
      <point x="100.5575908107891" y="517.2697624682531" type="line" smooth="yes"/>
      <point x="103.01214866270774" y="511.78881140960146"/>
      <point x="98.77737181452734" y="505.65832201829335"/>
      <point x="92.78244573648665" y="506.0140467357055" type="curve" smooth="yes"/>
      <point x="-8.333823973189673" y="512.0140467357055" type="line"/>
      <point x="0.14004358267786188" y="520.0" type="line"/>
      <point x="0.14004358267786188" y="388.0" type="line"/>
      <point x="-8.340521413322833" y="395.98555303561494" type="line"/>
      <point x="91.3615347339804" y="401.98555303561494" type="line" smooth="yes"/>
      <point x="97.35910077950913" y="402.34648236509645"/>
      <point x="101.59913908095002" y="396.2138770415276"/>
      <point x="99.14337724841602" y="390.73023753174687" type="curve" smooth="yes"/>
      <point x="45.40326187823837" y="270.73023753174687" type="line"/>
      <point x="43.17001245654743" y="280.1899185140528" type="line"/>
      <point x="123.78018551181388" y="214.1899185140528" type="line"/>
      <point x="111.20957087519167" y="210.7769038895212" type="line"/>
      <point x="158.58572521469034" y="338.77690388952124" type="line" smooth="yes"/>
      <point x="161.16333154239948" y="345.74103203682625"/>
      <point x="171.01329196673765" y="345.74103203682625"/>
      <point x="173.5908982944468" y="338.77690388952124" type="curve" smooth="yes"/>
      <point x="220.9670526339455" y="210.7769038895212" type="line"/>
      <point x="208.39643799732332" y="214.1899185140528" type="line"/>
      <point x="289.00661105258973" y="280.1899185140528" type="line"/>
      <point x="286.7733616308988" y="270.73023753174687" type="line"/>
      <point x="233.03324626072117" y="390.73023753174687" type="line" smooth="yes"/>
      <point x="230.57748442818715" y="396.2138770415276"/>
      <point x="234.81752272962802" y="402.34648236509645"/>
      <point x="240.81508877515677" y="401.98555303561494" type="curve" smooth="yes"/>
      <point x="340.5171449224599" y="395.98555303561494" type="line"/>
      <point x="332.03657992645924" y="388.0" type="line"/>
      <point x="332.03657992645924" y="520.0" type="line"/>
      <point x="340.51044748232675" y="512.0140467357055" type="line"/>
      <point x="239.39417777265052" y="506.0140467357055" type="line" smooth="yes"/>
      <point x="233.3992516946099" y="505.65832201829335"/>
      <point x="229.16447484642944" y="511.7888114096015"/>
      <point x="231.61903269834806" y="517.2697624682531" type="curve" smooth="yes"/>
      <point x="285.3591480685257" y="637.2697624682531" type="line"/>
      <point x="287.5923974902166" y="627.8100814859472" type="line"/>
      <point x="206.9822244349502" y="693.8100814859472" type="line"/>
      <point x="219.5515327876162" y="697.2195693639088" type="line"/>
      <point x="173.58959201049058" y="573.2195693639088" type="line" smooth="yes"/>
      <point x="171.01000558053278" y="566.2601435453637"/>
      <point x="161.16661792860435" y="566.2601435453637"/>
      <point x="158.58703149864655" y="573.2195693639088" type="curve" smooth="yes"/>
      <point x="112.62509072152099" y="697.2195693639088" type="line"/>
      <point x="125.19439907418698" y="693.8100814859472" type="line"/>
      <point x="44.58422601892054" y="627.8100814859472" type="line"/>
    </contour>
  </outline>
</glyph>
<glyph name="plus" format="2">
  <advance width="382"/>
  <unicode hex="002B"/>
  <outline>
    <contour>
      <point x="-14.06096654409879" y="239.0" type="line" smooth="yes"/>
      <point x="-18.479244542745136" y="239.0"/>
      <point x="-22.06096654409879" y="242.58172200135365"/>
      <point x="-22.06096654409879" y="247.0" type="curve" smooth="yes"/>
      <point x="-22.06096654409879" y="374.0" type="line" smooth="yes"/>
      <point x="-22.06096654409879" y="378.4182779986464"/>
      <point x="-18.479244542745136" y="382.0"/>
      <point x="-14.060966544098788" y="382.0" type="curve" smooth="yes"/>
      <point x="101.19743878930848" y="382.0" type="line"/>
      <point x="93.19743878930848" y="374.0" type="line"/>
      <point x="93.19743878930848" y="544.0" type="line" smooth="yes"/>
      <point x="93.19743878930848" y="548.4182779986463"/>
      <point x="96.77916079066213" y="552.0"/>
      <point x="101.19743878930848" y="552.0" type="curve" smooth="yes"/>
      <point x="193.8284271247462" y="552.0" type="line" smooth="yes"/>
      <point x="198.24670512339256" y="552.0"/>
      <point x="201.8284271247462" y="548.4182779986463"/>
      <point x="201.8284271247462" y="544.0" type="curve" smooth="yes"/>
      <point x="201.8284271247462" y="374.0" type="line"/>
      <point x="193.8284271247462" y="382.0" type="line"/>
      <point x="311.2081528017131" y="382.0" type="line" smooth="yes"/>
      <point x="315.62643080035946" y="382.0"/>
      <point x="319.2081528017131" y="378.4182779986464"/>
      <point x="319.2081528017131" y="374.0" type="curve" smooth="yes"/>
      <point x="319.2081528017131" y="247.0" type="line" smooth="yes"/>
      <point x="319.2081528017131" y="242.58172200135365"/>
      <point x="315.62643080035946" y="239.0"/>
      <point x="311.2081528017131" y="239.0" type="curve" smooth="yes"/>
      <point x="193.8284271247462" y="239.0" type="line"/>
      <point x="201.8284271247462" y="247.0" type="line"/>
      <point x="201.8284271247462" y="74.0" type="line" smooth="yes"/>
      <point x="201.8284271247462" y="69.58172200135365"/>
      <point x="198.24670512339256" y="66.0"/>
      <point x="193.8284271247462" y="66.0" type="curve" smooth="yes"/>
      <point x="101.19743878930848" y="66.0" type="line" smooth="yes"/>
      <point x="96.77916079066213" y="66.0"/>
      <point x="93.19743878930848" y="69.58172200135365"/>
      <point x="93.19743878930848" y="74.0" type="curve" smooth="yes"/>
      <point x="93.19743878930848" y="247.0" type="line"/>
      <point x="101.19743878930848" y="239.0" type="line"/>
    </contour>
    <contour>
      <point x="-14.06096654409879" y="255.0" type="line"/>
      <point x="101.19743878930848" y="255.0" type="line" smooth="yes"/>
      <point x="105.61571678795482" y="255.0"/>
      <point x="109.19743878930848" y="251.41827799864635"/>
      <point x="109.19743878930848" y="247.0" type="curve" smooth="yes"/>
      <point x="109.19743878930848" y="74.0" type="line"/>
      <point x="101.19743878930848" y="82.0" type="line"/>
      <point x="193.8284271247462" y="82.0" type="line"/>
      <point x="185.8284271247462" y="74.0" type="line"/>
      <point x="185.8284271247462" y="247.0" type="line" smooth="yes"/>
      <point x="185.8284271247462" y="251.41827799864635"/>
      <point x="189.41014912609987" y="255.0"/>
      <point x="193.8284271247462" y="255.0" type="curve" smooth="yes"/>
      <point x="311.2081528017131" y="255.0" type="line"/>
      <point x="303.2081528017131" y="247.0" type="line"/>
      <point x="303.2081528017131" y="374.0" type="line"/>
      <point x="311.2081528017131" y="366.0" type="line"/>
      <point x="193.8284271247462" y="366.0" type="line" smooth="yes"/>
      <point x="189.41014912609987" y="366.0"/>
      <point x="185.8284271247462" y="369.5817220013536"/>
      <point x="185.8284271247462" y="374.0" type="curve" smooth="yes"/>
      <point x="185.8284271247462" y="544.0" type="line"/>
      <point x="193.8284271247462" y="536.0" type="line"/>
      <point x="101.19743878930848" y="536.0" type="line"/>
      <point x="109.19743878930848" y="544.0" type="line"/>
      <point x="109.19743878930848" y="374.0" type="line" smooth="yes"/>
      <point x="109.19743878930848" y="369.5817220013536"/>
      <point x="105.61571678795482" y="366.0"/>
      <point x="101.19743878930848" y="366.0" type="curve" smooth="yes"/>
      <point x="-14.060966544098791" y="366.0" type="line"/>
      <point x="-6.06096654409879" y="374.0" type="line"/>
      <point x="-6.06096654409879" y="247.0" type="line"/>
    </contour>
  </outline>
</glyph>
<glyph name="comma" format="2">
  <advance width="194"/>
  <unicode hex="002C"/>
  <outline>
    <contour>
      <point x="0.12637097744298792" y="153.0" type="line"/>
      <point x="7.984784272761515" y="162.49844602170415" type="line"/>
      <point x="25.180649222612132" y="72.31687672318233"/>
      <point x="24.497727606990207" y="-12.026808219266892"/>
      <point x="-17.058946021815416" y="-132.60665930380728" type="curve"/>
      <point x="-27.822673608330046" y="-122.66801298811569" type="line"/>
      <point x="83.41469876751131" y="-74.114494266924"/>
      <point x="117.09589111356694" y="52.70259285411392"/>
      <point x="110.2293866459224" y="160.4914044151595" type="curve"/>
      <point x="118.21320343559643" y="153.0" type="line"/>
    </contour>
    <contour>
      <point x="0.12637097744298892" y="169.0" type="curve" smooth="yes"/>
      <point x="118.21320343559643" y="169.0" type="line" smooth="yes"/>
      <point x="122.43401269937108" y="169.0"/>
      <point x="125.92868460576923" y="165.72086656810745"/>
      <point x="126.19702022527045" y="161.5085955848405" type="curve" smooth="yes"/>
      <point x="133.47052187569517" y="47.33083563713217"/>
      <point x="96.40866761703809" y="-85.90056361201569"/>
      <point x="-21.422059119842277" y="-137.3319870118843" type="curve" smooth="yes"/>
      <point x="-27.80689826626076" y="-140.1188777879447"/>
      <point x="-34.45571712731212" y="-133.97971655908958"/>
      <point x="-32.18578670635691" y="-127.39334069619271" type="curve" smooth="yes"/>
      <point x="8.280773445837742" y="-9.976536823975108"/>
      <point x="9.012741193377435" y="71.6856250318474"/>
      <point x="-7.732042317875538" y="159.50155397829585" type="curve" smooth="yes"/>
      <point x="-8.672148955242376" y="164.43182600084012"/>
      <point x="-4.892730805336868" y="169.0"/>
    </contour>
  </outline>
</glyph>
<glyph name="hyphen" format="2">
  <advance width="240"/>
  <unicode hex="002D"/>
  <outline>
    <contour>
      <point x="-15.487320926590016" y="218.36801526395422" type="line" smooth="yes"/>
      <point x="-20.64131494944904" y="216.74827120895043"/>
      <point x="-25.885822331376772" y="220.5974797370684"/>
      <point x="-25.885822331376772" y="226.0" type="curve" smooth="yes"/>
      <point x="-25.885822331376772" y="351.0" type="line" smooth="yes"/>
      <point x="-25.885822331376772" y="354.49432085264675"/>
      <point x="-23.617899162444335" y="357.5843430518147"/>
      <point x="-20.28432373616353" y="358.6319847360458" type="curve" smooth="yes"/>
      <point x="170.63450718420432" y="418.6319847360458" type="line" smooth="yes"/>
      <point x="175.78850120706346" y="420.25172879104963"/>
      <point x="181.03300858899107" y="416.4025202629317"/>
      <point x="181.03300858899107" y="411.0" type="curve" smooth="yes"/>
      <point x="181.03300858899107" y="286.0" type="line" smooth="yes"/>
      <point x="181.03300858899107" y="282.50567914735325"/>
      <point x="178.7650854200586" y="279.4156569481853"/>
      <point x="175.4315099937778" y="278.3680152639542" type="curve" smooth="yes"/>
    </contour>
    <contour>
      <point x="-20.28432373616353" y="233.63198473604578" type="line"/>
      <point x="170.63450718420432" y="293.6319847360458" type="line"/>
      <point x="165.03300858899107" y="286.0" type="line"/>
      <point x="165.03300858899107" y="411.0" type="line"/>
      <point x="175.4315099937778" y="403.3680152639542" type="line"/>
      <point x="-15.487320926590016" y="343.3680152639542" type="line"/>
      <point x="-9.885822331376772" y="351.0" type="line"/>
      <point x="-9.885822331376772" y="226.0" type="line"/>
    </contour>
  </outline>
</glyph>
<glyph name="period" format="2">
  <advance width="191"/>
  <unicode hex="002E"/>
  <outline>
    <contour>
      <point x="-3.848502756709934" y="-8.0" type="line" smooth="yes"/>
      <point x="-8.266780755356281" y="-7.999999999999999"/>
      <point x="-11.848502756709935" y="-4.418277998646345"/>
      <point x="-11.848502756709934" y="1.959434878635765e-15" type="curve"/>
      <point x="-11.848502756709934" y="161.0" type="line"/>
      <point x="-11.848502756709932" y="165.41827799864635"/>
      <point x="-8.26678075535628" y="169.0"/>
      <point x="-3.8485027567099324" y="169.0" type="curve" smooth="yes"/>
      <point x="109.99568901432423" y="169.0" type="line" smooth="yes"/>
      <point x="114.41396701297057" y="169.0"/>
      <point x="117.99568901432423" y="165.41827799864635"/>
      <point x="117.99568901432423" y="161.0" type="curve" smooth="yes"/>
      <point x="117.99568901432423" y="-9.797174393178826e-16" type="line" smooth="yes"/>
      <point x="117.99568901432423" y="-4.418277998646348"/>
      <point x="114.41396701297057" y="-8.0"/>
      <point x="109.99568901432423" y="-8.0" type="curve" smooth="yes"/>
    </contour>
    <contour>
      <point x="-3.8485027567099332" y="8.0" type="line"/>
      <point x="109.99568901432423" y="8.0" type="line"/>
      <point x="101.99568901432423" y="9.797174393178826e-16" type="line"/>
      <point x="101.99568901432423" y="161.0" type="line"/>
      <point x="109.99568901432423" y="153.0" type="line"/>
      <point x="-3.848502756709935" y="153.0" type="line"/>
      <point x="4.151497243290066" y="161.0" type="line"/>
      <point x="4.151497243290066" y="-1.959434878635765e-15" type="line"/>
    </contour>
  </outline>
</glyph>
<glyph name="slash" format="2">
  <advance width="346"/>
  <unicode hex="002F"/>
  <outline>
    <contour>
      <point x="-24.989898732233314" y="-83.0" type="line" smooth="yes"/>
      <point x="-30.216603034399366" y="-83.0"/>
      <point x="-34.03946829407397" y="-78.06980921356495"/>
      <point x="-32.7378667078988" y="-73.007767019633" type="curve" smooth="yes"/>
      <point x="179.39416764806546" y="751.992232980367" type="line" smooth="yes"/>
      <point x="180.30336620267173" y="755.528185529106"/>
      <point x="183.4911628165695" y="758.0"/>
      <point x="187.14213562373095" y="758.0" type="curve" smooth="yes"/>
      <point x="286.84419177103416" y="758.0" type="line" smooth="yes"/>
      <point x="292.0708960732001" y="758.0"/>
      <point x="295.89376133287476" y="753.0698092135649"/>
      <point x="294.5921597466996" y="748.007767019633" type="curve" smooth="yes"/>
      <point x="82.46012539073539" y="-76.992232980367" type="line" smooth="yes"/>
      <point x="81.55092683612908" y="-80.52818552910622"/>
      <point x="78.3631302222315" y="-83.0"/>
      <point x="74.7121574150699" y="-83.0" type="curve" smooth="yes"/>
    </contour>
    <contour>
      <point x="-24.989898732233314" y="-67.0" type="line"/>
      <point x="74.7121574150699" y="-67.0" type="line"/>
      <point x="66.96418943940441" y="-73.007767019633" type="line"/>
      <point x="279.0962237953687" y="751.992232980367" type="line"/>
      <point x="286.84419177103416" y="742.0" type="line"/>
      <point x="187.14213562373095" y="742.0" type="line"/>
      <point x="194.89010359939644" y="748.007767019633" type="line"/>
      <point x="-17.241930756567825" y="-76.992232980367" type="line"/>
    </contour>
  </outline>
</glyph>
<glyph name="zero" format="2">
  <advance width="456"/>
  <unicode hex="0030"/>
  <outline>
    <contour>
      <point x="185.57359312880715" y="579.0" type="curve" smooth="yes"/>
      <point x="251.12448486542172" y="579.0"/>
      <point x="289.0330085889911" y="489.2427284696491"/>
      <point x="289.0330085889911" y="339.0" type="curve" smooth="yes"/>
      <point x="289.0330085889911" y="188.83442636150414"/>
      <point x="251.0908222180817" y="101.00000000000001"/>
      <point x="185.57359312880715" y="101.0" type="curve" smooth="yes"/>
      <point x="120.0227013921926" y="100.99999999999999"/>
      <point x="82.11417766862321" y="190.75727153035092"/>
      <point x="82.11417766862323" y="341.0" type="curve" smooth="yes"/>
      <point x="82.11417766862324" y="491.1655736384959"/>
      <point x="120.05636403953264" y="579.0"/>
    </contour>
    <contour>
      <point x="185.57359312880715" y="704.0" type="curve" smooth="yes"/>
      <point x="311.46808747043093" y="704.0"/>
      <point x="397.22034611053294" y="551.0034131396623"/>
      <point x="397.2203461105329" y="339.0" type="curve" smooth="yes"/>
      <point x="397.22034611053283" y="128.02572964256893"/>
      <point x="311.46808747043093" y="-24.000000000000075"/>
      <point x="185.57359312880715" y="-24.0" type="curve" smooth="yes"/>
      <point x="59.6790987871834" y="-23.999999999999925"/>
      <point x="-26.073159852918625" y="128.99658686033763"/>
      <point x="-26.073159852918565" y="341.0" type="curve" smooth="yes"/>
      <point x="-26.073159852918504" y="551.974270357431"/>
      <point x="59.6790987871834" y="704.0"/>
    </contour>
    <contour>
      <point x="185.57359312880715" y="563.0" type="curve" smooth="yes"/>
      <point x="128.2529983179887" y="563.0"/>
      <point x="98.11417766862324" y="472.37887729252964"/>
      <point x="98.11417766862323" y="341.0" type="curve" smooth="yes"/>
      <point x="98.11417766862321" y="209.68681214611664"/>
      <point x="128.28165861539412" y="116.99999999999999"/>
      <point x="185.57359312880715" y="117.0" type="curve" smooth="yes"/>
      <point x="242.89418793962565" y="117.00000000000001"/>
      <point x="273.0330085889911" y="207.62112270747036"/>
      <point x="273.0330085889911" y="339.0" type="curve" smooth="yes"/>
      <point x="273.0330085889911" y="470.3131878538834"/>
      <point x="242.86552764222023" y="563.0"/>
    </contour>
    <contour>
      <point x="185.57359312880715" y="688.0" type="curve" smooth="yes"/>
      <point x="66.90182666821522" y="688.0"/>
      <point x="-10.073159852918511" y="539.8704070974858"/>
      <point x="-10.073159852918565" y="341.0" type="curve" smooth="yes"/>
      <point x="-10.073159852918618" y="141.15949335569718"/>
      <point x="66.90182666821522" y="-7.999999999999934"/>
      <point x="185.57359312880715" y="-8.0" type="curve" smooth="yes"/>
      <point x="304.2453595893991" y="-8.000000000000068"/>
      <point x="381.22034611053283" y="140.12959290251422"/>
      <point x="381.2203461105329" y="339.0" type="curve" smooth="yes"/>
      <point x="381.22034611053294" y="538.8405066443028"/>
      <point x="304.2453595893991" y="688.0"/>
    </contour>
  </outline>
</glyph>
<glyph name="one" format="2">
  <advance width="278"/>
  <unicode hex="0031"/>
  <outline>
    <contour>
      <point x="181.64823227814085" y="349.0" type="curve" smooth="yes"/>
      <point x="181.6482322781406" y="96.74796636366958"/>
      <point x="186.2377748246966" y="42.39139637317538"/>
      <point x="200.28258770283412" y="2.6666666666666647" type="curve" smooth="yes"/>
      <point x="202.12307869022982" y="-2.539027964934221"/>
      <point x="198.2615883323647" y="-8.0"/>
      <point x="192.74011537017762" y="-8.0" type="curve" smooth="yes"/>
      <point x="46.36901166456228" y="-8.0" type="line" smooth="yes"/>
      <point x="40.48702012164146" y="-7.999999999999999"/>
      <point x="36.61620286161952" y="-1.8656218706464456"/>
      <point x="39.14807810499467" y="3.443561895524783" type="curve" smooth="yes"/>
      <point x="59.41173847643684" y="45.93518819850675"/>
      <point x="64.53196256846458" y="98.00295160564139"/>
      <point x="64.53196256846454" y="349.0" type="curve" smooth="yes"/>
      <point x="64.53196256846452" y="428.88555488404785"/>
      <point x="63.82678035764614" y="486.8130836973325"/>
      <point x="62.41458991821214" y="531.7487083196096" type="curve"/>
      <point x="73.07730889157156" y="524.4575276673435" type="line"/>
      <point x="32.06274508641809" y="509.9566895703272"/>
      <point x="7.698965303262881" y="489.7701016861701"/>
      <point x="-16.22619691640999" y="462.70187057173985" type="curve" smooth="yes"/>
      <point x="-21.105225836497365" y="457.18187947574137"/>
      <point x="-30.220346110532834" y="460.6328278896885"/>
      <point x="-30.22034611053283" y="468.0" type="curve"/>
      <point x="-30.22034611053283" y="630.0" type="line" smooth="yes"/>
      <point x="-30.22034611053283" y="633.5246058093621"/>
      <point x="-27.91363298566744" y="636.6339528690525"/>
      <point x="-24.540513684242416" y="637.6561623826763" type="curve" smooth="yes"/>
      <point x="183.34887998460255" y="700.6561623826763" type="line" smooth="yes"/>
      <point x="188.96822502572573" y="702.3590810902784"/>
      <point x="194.44641392782032" y="697.6297743391362"/>
      <point x="193.5818514940015" y="691.8220637218683" type="curve" smooth="yes"/>
      <point x="185.12129623339465" y="634.9881617467707"/>
      <point x="181.6482322781411" y="585.309381896458"/>
    </contour>
    <contour>
      <point x="165.64823227814085" y="349.0" type="curve" smooth="yes"/>
      <point x="165.6482322781411" y="586.6321494343871"/>
      <point x="169.24832948120562" y="637.0259003382156"/>
      <point x="177.75624362262278" y="694.1779362781317" type="curve"/>
      <point x="187.98921513202174" y="685.3438376173237" type="line"/>
      <point x="-19.900178536823244" y="622.3438376173237" type="line"/>
      <point x="-14.22034611053283" y="630.0" type="line"/>
      <point x="-14.22034611053283" y="468.0" type="line"/>
      <point x="-28.21449530465567" y="473.29812942826015" type="line"/>
      <point x="-2.642099817488197" y="502.22999224451667"/>
      <point x="23.905583294522565" y="524.0432601096619"/>
      <point x="67.74397555823822" y="539.5424723326565" type="curve" smooth="yes"/>
      <point x="72.84992299488519" y="541.3476973610741"/>
      <point x="78.23658027001993" y="537.6642943376071"/>
      <point x="78.40669453159765" y="532.2512916803904" type="curve" smooth="yes"/>
      <point x="79.82326329892432" y="487.1763495176709"/>
      <point x="80.53196256846452" y="429.13323051150127"/>
      <point x="80.53196256846454" y="349.0" type="curve" smooth="yes"/>
      <point x="80.53196256846458" y="92.01355332035371"/>
      <point x="74.33714567486287" y="40.06201766047832"/>
      <point x="53.58994522412989" y="-3.443561895524783" type="curve"/>
      <point x="46.36901166456228" y="8.0" type="line"/>
      <point x="192.74011537017762" y="8.0" type="line"/>
      <point x="185.19764303752112" y="-2.6666666666666647" type="line"/>
      <point x="170.9607710040871" y="37.601288364238535"/>
      <point x="165.64823227814054" y="93.29848555375197"/>
    </contour>
  </outline>
</glyph>
<glyph name="two" format="2">
  <advance width="367"/>
  <unicode hex="0032"/>
  <outline>
    <contour>
      <point x="297.9195705685754" y="499.0" type="curve" smooth="yes"/>
      <point x="297.9195705685753" y="410.13464072882704"/>
      <point x="264.323857187617" y="349.9457902509178"/>
      <point x="222.91243803629868" y="291.38119793657177" type="curve" smooth="yes"/>
      <point x="187.36627897407757" y="241.11133622975294"/>
      <point x="146.38712947697994" y="190.23068971560983"/>
      <point x="116.2209705875854" y="121.77403899933628" type="curve"/>
      <point x="109.09865963557894" y="132.9975388401202" type="line"/>
      <point x="225.17617118763857" y="130.11756706602475"/>
      <point x="265.2274073407237" y="143.5191105901336"/>
      <point x="290.34359405081847" y="171.3588377397232" type="curve" smooth="yes"/>
      <point x="295.478525457668" y="177.0505890771622"/>
      <point x="304.90537154358327" y="172.95898195245985"/>
      <point x="304.2546568930472" y="165.32091123506885" type="curve" smooth="yes"/>
      <point x="290.11252126931623" y="-0.6790887649311492" type="line" smooth="yes"/>
      <point x="289.759816574716" y="-4.819126794646293"/>
      <point x="286.2964309319444" y="-8.0"/>
      <point x="282.1413959755234" y="-8.0" type="curve" smooth="yes"/>
      <point x="-23.328733497065173" y="-8.0" type="line" smooth="yes"/>
      <point x="-28.12792671295238" y="-7.999999999999999"/>
      <point x="-31.847124133055797" y="-3.8038502199856676"/>
      <point x="-31.27084982975591" y="0.9606186329688791" type="curve" smooth="yes"/>
      <point x="-12.688498491542044" y="154.59411167370538"/>
      <point x="48.59781065395336" y="245.78579472392565"/>
      <point x="99.45861705904692" y="320.5017455192154" type="curve" smooth="yes"/>
      <point x="139.15250649468592" y="378.8131821552232"/>
      <point x="173.73223304703362" y="426.8531551280928"/>
      <point x="173.73223304703362" y="488.0" type="curve" smooth="yes"/>
      <point x="173.73223304703362" y="530.4593672588918"/>
      <point x="157.35627046015665" y="559.0"/>
      <point x="114.55708883431163" y="559.0" type="curve" smooth="yes"/>
      <point x="76.93952377437735" y="559.0"/>
      <point x="33.73483394199472" y="533.5520228087989"/>
      <point x="-1.867504418300224" y="494.6025567670193" type="curve" smooth="yes"/>
      <point x="-6.793760128035671" y="489.21316274638804"/>
      <point x="-15.772384310961117" y="492.69838625868795"/>
      <point x="-15.772384310961115" y="500.0" type="curve"/>
      <point x="-15.772384310961115" y="664.0" type="line"/>
      <point x="-15.772384310961113" y="667.2280141299852"/>
      <point x="-13.832372833381926" y="670.139756862573"/>
      <point x="-10.853347202898783" y="671.3829308312148" type="curve" smooth="yes"/>
      <point x="33.315244323487654" y="689.8148780609786"/>
      <point x="75.37218175570665" y="698.0"/>
      <point x="118.09262274024437" y="698.0" type="curve" smooth="yes"/>
      <point x="224.6742816055498" y="698.0"/>
      <point x="297.9195705685755" y="625.8204534554452"/>
    </contour>
    <contour>
      <point x="281.9195705685754" y="499.0" type="curve" smooth="yes"/>
      <point x="281.9195705685755" y="616.1774408669829"/>
      <point x="216.57016077855383" y="682.0"/>
      <point x="118.09262274024437" y="682.0" type="curve" smooth="yes"/>
      <point x="77.3776844993461" y="682.0"/>
      <point x="37.403684219871344" y="674.1837322421126"/>
      <point x="-4.691421419023447" y="656.6170691687852" type="curve"/>
      <point x="0.22761568903888474" y="664.0" type="line"/>
      <point x="0.22761568903888474" y="500.0" type="line"/>
      <point x="-13.677264203622006" y="505.3974432329807" type="line"/>
      <point x="25.65302033222644" y="548.4253355708331"/>
      <point x="73.00056177756615" y="575.0"/>
      <point x="114.55708883431163" y="575.0" type="curve" smooth="yes"/>
      <point x="166.4754898132835" y="575.0"/>
      <point x="189.73223304703362" y="539.5061823829221"/>
      <point x="189.73223304703362" y="488.0" type="curve" smooth="yes"/>
      <point x="189.73223304703362" y="423.22879212010554"/>
      <point x="154.73166714686846" y="373.26599069085654"/>
      <point x="112.68499786109918" y="311.4982544807846" type="curve" smooth="yes"/>
      <point x="62.910799759945064" y="238.37856175352974"/>
      <point x="2.7987342303072555" y="149.3905939820179"/>
      <point x="-15.386617164374433" y="-0.9606186329688791" type="curve"/>
      <point x="-23.328733497065173" y="8.0" type="line"/>
      <point x="282.1413959755234" y="8.0" type="line"/>
      <point x="274.1702706817305" y="0.6790887649311492" type="line"/>
      <point x="288.3124063054615" y="166.67908876493115" type="line"/>
      <point x="302.2234691476902" y="160.6411622602768" type="line"/>
      <point x="275.04036154275957" y="130.51038215682107"/>
      <point x="234.33184738387408" y="113.88548390779818"/>
      <point x="108.70180953405952" y="117.00246115987981" type="curve" smooth="yes"/>
      <point x="103.01048699106644" y="117.14366722177702"/>
      <point x="99.28379424939139" y="123.01627453626914"/>
      <point x="101.57949858205306" y="128.22596100066372" type="curve" smooth="yes"/>
      <point x="132.23471032702625" y="197.79242886796723"/>
      <point x="173.7260602961597" y="249.533966878965"/>
      <point x="209.84849261405031" y="300.61880206342823" type="curve" smooth="yes"/>
      <point x="249.532990304472" y="356.74115855516845"/>
      <point x="281.9195705685753" y="413.8404663006316"/>
    </contour>
  </outline>
</glyph>
<glyph name="three" format="2">
  <advance width="369"/>
  <unicode hex="0033"/>
  <outline>
    <contour>
      <point x="118.38551595905781" y="119.0" type="curve" smooth="yes"/>
      <point x="166.36886615708275" y="119.0"/>
      <point x="190.28858223313767" y="148.56447629732492"/>
      <point x="190.28858223313767" y="199.0" type="curve" smooth="yes"/>
      <point x="190.28858223313767" y="268.48792093863597"/>
      <point x="149.0098951579134" y="306.8577483374749"/>
      <point x="23.815638996747158" y="304.0020803536953" type="curve" smooth="yes"/>
      <point x="17.80185149718977" y="303.86490648525813"/>
      <point x="13.793684296356485" y="310.16472230625004"/>
      <point x="16.46594579683434" y="315.55392217571847" type="curve" smooth="yes"/>
      <point x="135.96699181736088" y="556.5539221757184" type="line"/>
      <point x="143.32120567743092" y="545.0021847477707" type="line"/>
      <point x="60.93764502737131" y="543.076433528136"/>
      <point x="30.364397038488192" y="532.9442574373574"/>
      <point x="9.25786497111754" y="517.5382476802796" type="curve" smooth="yes"/>
      <point x="3.9716410338425208" y="513.6797446682353"/>
      <point x="-3.458675811976351" y="517.4553679240943"/>
      <point x="-3.4586758119763488" y="524.0" type="curve"/>
      <point x="-3.4586758119763488" y="680.0" type="line"/>
      <point x="-3.4586758119763474" y="684.4182779986463"/>
      <point x="0.12304618937730627" y="688.0"/>
      <point x="4.541324188023653" y="688.0" type="curve" smooth="yes"/>
      <point x="309.3043468794257" y="688.0" type="line" smooth="yes"/>
      <point x="315.2283751701679" y="688.0"/>
      <point x="319.0975101532438" y="681.7855151306711"/>
      <point x="316.4831991660667" y="676.4695496255309" type="curve" smooth="yes"/>
      <point x="185.66844464655537" y="410.46954962553093" type="line"/>
      <point x="180.91753861087798" y="421.622668627353" type="line"/>
      <point x="262.385373224098" y="395.67381353564497"/>
      <point x="314.4759197546796" y="314.90928297783745"/>
      <point x="314.47591975467947" y="208.0" type="curve" smooth="yes"/>
      <point x="314.4759197546793" y="18.8150656849054"/>
      <point x="152.47313038564693" y="-72.74595003627152"/>
      <point x="-5.423990869804152" y="6.856454019806512" type="curve" smooth="yes"/>
      <point x="-8.121257742484856" y="8.216256692198751"/>
      <point x="-9.822636842655273" y="10.979352405475638"/>
      <point x="-9.822636842655271" y="14.000000000000002" type="curve"/>
      <point x="-9.822636842655271" y="177.0" type="line"/>
      <point x="-9.82263684265527" y="184.19452542556115"/>
      <point x="-1.0662977564564429" y="187.73262070911545"/>
      <point x="3.931749122257008" y="182.55761119248373" type="curve" smooth="yes"/>
      <point x="41.56813237381707" y="143.5886606754455"/>
      <point x="78.73289789044989" y="119.0"/>
    </contour>
    <contour>
      <point x="118.38551595905781" y="103.0" type="curve" smooth="yes"/>
      <point x="74.6464963357934" y="103.0"/>
      <point x="33.937978868751216" y="128.457492112583"/>
      <point x="-7.57702280756755" y="171.44238880751627" type="curve"/>
      <point x="6.177363157344729" y="177.0" type="line"/>
      <point x="6.177363157344729" y="13.999999999999998" type="line"/>
      <point x="1.77871718449361" y="21.143545980193487" type="line"/>
      <point x="149.35732066819693" y="-53.25687076670723"/>
      <point x="298.4759197546793" y="31.1782303287944"/>
      <point x="298.47591975467947" y="208.0" type="curve" smooth="yes"/>
      <point x="298.4759197546796" y="307.1265997172827"/>
      <point x="251.59886052664115" y="382.31747707233575"/>
      <point x="176.06164610895073" y="406.377331372647" type="curve" smooth="yes"/>
      <point x="171.4019823134879" y="407.8615114932872"/>
      <point x="169.15260981787165" y="413.142087226555"/>
      <point x="171.31074007327334" y="417.53045037446907" type="curve" smooth="yes"/>
      <point x="302.12549459278466" y="683.5304503744691" type="line"/>
      <point x="309.3043468794257" y="672.0" type="line"/>
      <point x="4.5413241880236495" y="672.0" type="line"/>
      <point x="12.541324188023651" y="680.0" type="line"/>
      <point x="12.541324188023651" y="524.0" type="line"/>
      <point x="-0.17521659507023735" y="530.4617523197204" type="line"/>
      <point x="22.5316138077473" y="547.0358465205825"/>
      <point x="54.31741451274556" y="558.9260534771216"/>
      <point x="142.94730092374303" y="560.9978152522293" type="curve" smooth="yes"/>
      <point x="148.96299619075998" y="561.1384347205553"/>
      <point x="152.9746589034971" y="554.8370576884511"/>
      <point x="150.30151478381308" y="549.4460778242816" type="curve" smooth="yes"/>
      <point x="30.800468763286553" y="308.44607782428153" type="line"/>
      <point x="23.450775563373735" y="319.9979196463047" type="line"/>
      <point x="161.20210250922628" y="323.14001311084843"/>
      <point x="206.28858223313767" y="275.45760763723223"/>
      <point x="206.28858223313767" y="199.0" type="curve" smooth="yes"/>
      <point x="206.28858223313767" y="139.44722784471963"/>
      <point x="175.04283428959877" y="103.0"/>
    </contour>
  </outline>
</glyph>
<glyph name="four" format="2">
  <advance width="409"/>
  <unicode hex="0034"/>
  <outline>
    <contour>
      <point x="163.84136008177353" y="-8.0" type="line" smooth="yes"/>
      <point x="158.35934423444806" y="-7.999999999999999"/>
      <point x="154.50142768858805" y="-2.611160784220719"/>
      <point x="156.26823774485513" y="2.578336298869417" type="curve" smooth="yes"/>
      <point x="165.3383288134505" y="29.219123732061647"/>
      <point x="170.72081860563702" y="61.44248905199549"/>
      <point x="172.8139165445436" y="155.17859298359778" type="curve"/>
      <point x="180.81192283025064" y="147.0" type="line"/>
      <point x="-46.169353930631104" y="147.0" type="line" smooth="yes"/>
      <point x="-51.75330481302197" y="147.0"/>
      <point x="-55.619432681659355" y="152.57584673415272"/>
      <point x="-53.661390706452465" y="157.8052424048093" type="curve" smooth="yes"/>
      <point x="142.91429446340777" y="682.8052424048093" type="line" smooth="yes"/>
      <point x="144.08415768504437" y="685.9296277570899"/>
      <point x="147.0701112544435" y="688.0"/>
      <point x="150.40633123922913" y="688.0" type="curve" smooth="yes"/>
      <point x="301.0200756319638" y="688.0" type="line" smooth="yes"/>
      <point x="306.541548594151" y="688.0"/>
      <point x="310.40303895201606" y="682.5390279649343"/>
      <point x="308.5625479646203" y="677.3333333333334" type="curve" smooth="yes"/>
      <point x="293.0980049132197" y="633.5930002949472"/>
      <point x="289.2252339683112" y="553.3438862323601"/>
      <point x="289.9281677433749" y="271.0199184391397" type="curve"/>
      <point x="281.501866797539" y="278.98863232107834" type="line"/>
      <point x="316.8243342412835" y="280.87367052920763"/>
      <point x="329.02492012380884" y="286.1271158938045"/>
      <point x="344.35353807109414" y="297.4373451425801" type="curve" smooth="yes"/>
      <point x="349.6350375001425" y="301.3343024237415"/>
      <point x="357.10333675264894" y="297.5635746564075"/>
      <point x="357.10333675264894" y="291.0" type="curve" smooth="yes"/>
      <point x="357.10333675264894" y="134.0" type="line" smooth="yes"/>
      <point x="357.10333675264894" y="127.51045962234171"/>
      <point x="349.7832221292823" y="123.72128946862023"/>
      <point x="344.4845345991319" y="127.46802735257819" type="curve" smooth="yes"/>
      <point x="329.81504355620706" y="137.84092394558567"/>
      <point x="317.61306620238923" y="143.12629345368714"/>
      <point x="283.60651878469974" y="145.01227465241575" type="curve"/>
      <point x="292.0474325297913" y="153.1824317166867" type="line"/>
      <point x="294.1405304686981" y="61.41971944680235"/>
      <point x="299.52310690028673" y="29.219123732061654"/>
      <point x="308.5931979688822" y="2.5783362988694245" type="curve" smooth="yes"/>
      <point x="310.3600080251493" y="-2.611160784220724"/>
      <point x="306.5020914792893" y="-8.0"/>
      <point x="301.0200756319638" y="-8.0" type="curve" smooth="yes"/>
    </contour>
    <contour>
      <point x="102.78043002749789" y="266.2939371676924" type="line"/>
      <point x="95.2520023066784" y="277.0" type="line"/>
      <point x="182.9332431738103" y="277.0" type="line"/>
      <point x="174.9332431738103" y="269.0" type="line"/>
      <point x="174.9332431738103" y="347.92644867233366"/>
      <point x="174.22605254103271" y="449.95905873792964"/>
      <point x="173.51960409709375" y="508.90412799954595" type="curve"/>
      <point x="189.04745733225667" y="506.2939371676924" type="line"/>
    </contour>
    <contour>
      <point x="163.84136008177353" y="8.0" type="line"/>
      <point x="301.0200756319638" y="8.0" type="line"/>
      <point x="293.4469532950454" y="-2.5783362988694245" type="line"/>
      <point x="284.13252644720956" y="24.780117308547304"/>
      <point x="278.20107635591324" y="58.5828947466557"/>
      <point x="276.0515932371819" y="152.8175682833133" type="curve" smooth="yes"/>
      <point x="275.9452208758566" y="157.48099860079952"/>
      <point x="279.83502076072983" y="161.24602653115574"/>
      <point x="284.4925069822735" y="160.98772534758425" type="curve" smooth="yes"/>
      <point x="322.59268176440196" y="158.8747142140285"/>
      <point x="337.2867693923067" y="152.1535338819784"/>
      <point x="353.722138906166" y="140.5319726474218" type="curve"/>
      <point x="341.10333675264894" y="134.0" type="line"/>
      <point x="341.10333675264894" y="291.0" type="line"/>
      <point x="353.85313543420375" y="284.5626548574199" type="line"/>
      <point x="336.6707036697144" y="271.88458805608525"/>
      <point x="321.9488175657033" y="265.1243788124774"/>
      <point x="282.3545182823149" y="263.01136767892166" type="curve" smooth="yes"/>
      <point x="277.7831056905277" y="262.7674071624496"/>
      <point x="273.939615458189" y="266.4021781214276"/>
      <point x="273.928217336479" y="270.9800815608603" type="curve" smooth="yes"/>
      <point x="273.21672947873617" y="556.7396824798278"/>
      <point x="277.8248704289651" y="638.3940524397842"/>
      <point x="293.47760329930725" y="682.6666666666666" type="curve"/>
      <point x="301.0200756319638" y="672.0" type="line"/>
      <point x="150.40633123922913" y="672.0" type="line"/>
      <point x="157.8983680150505" y="677.1947575951907" type="line"/>
      <point x="-38.67731715480974" y="152.1947575951907" type="line"/>
      <point x="-46.169353930631104" y="163.0" type="line"/>
      <point x="180.81192283025064" y="163.0" type="line" smooth="yes"/>
      <point x="185.30011388185022" y="163.0"/>
      <point x="188.91012404481543" y="159.3084795466707"/>
      <point x="188.8099291159577" y="154.82140701640222" type="curve" smooth="yes"/>
      <point x="186.66044599722642" y="58.56018136067671"/>
      <point x="180.72890926652767" y="24.78011730854731"/>
      <point x="171.41448241869193" y="-2.578336298869417" type="curve"/>
    </contour>
    <contour>
      <point x="87.72357458585893" y="271.7060628323076" type="curve" smooth="yes"/>
      <point x="173.9906018906177" y="511.7060628323076" type="line" smooth="yes"/>
      <point x="177.00589261930293" y="520.0947809496935"/>
      <point x="189.41162761584323" y="518.0094098903479"/>
      <point x="189.51845512578063" y="509.09587200045405" type="curve" smooth="yes"/>
      <point x="190.22603175591968" y="450.0566684615616"/>
      <point x="190.9332431738103" y="348.0524928741103"/>
      <point x="190.9332431738103" y="269.0" type="curve" smooth="yes"/>
      <point x="190.9332431738103" y="264.5817220013536"/>
      <point x="187.35152117245664" y="261.0"/>
      <point x="182.9332431738103" y="261.0" type="curve" smooth="yes"/>
      <point x="95.2520023066784" y="261.0" type="line" smooth="yes"/>
      <point x="89.71284013069783" y="261.0"/>
      <point x="85.84990947504075" y="266.49341507283674"/>
    </contour>
  </outline>
</glyph>
<glyph name="five" format="2">
  <advance width="373"/>
  <unicode hex="0035"/>
  <outline>
    <contour>
      <point x="2.559797893072852" y="282.3629845665996" type="curve" smooth="yes"/>
      <point x="-2.800991570651868" y="280.6906387214615"/>
      <point x="-8.171408501091076" y="284.91740065562595"/>
      <point x="-7.805649681809505" y="290.52106238580296" type="curve" smooth="yes"/>
      <point x="17.650194440906212" y="680.5210623858029" type="line" smooth="yes"/>
      <point x="17.924793910674072" y="684.7281039081031"/>
      <point x="21.417213537281086" y="688.0"/>
      <point x="25.633207280060446" y="688.0" type="curve" smooth="yes"/>
      <point x="275.2419010389117" y="688.0" type="line" smooth="yes"/>
      <point x="279.66017903755807" y="688.0"/>
      <point x="283.2419010389117" y="684.4182779986463"/>
      <point x="283.2419010389117" y="680.0" type="curve" smooth="yes"/>
      <point x="283.2419010389117" y="524.0" type="line" smooth="yes"/>
      <point x="283.2419010389117" y="517.4586801237818"/>
      <point x="275.818220873772" y="513.6822133589149"/>
      <point x="270.5311938894881" y="517.5339936473608" type="curve" smooth="yes"/>
      <point x="248.08541270258823" y="533.8865142211104"/>
      <point x="209.68770635910917" y="543.0384572154903"/>
      <point x="109.70195379928226" y="544.0003701904169" type="curve"/>
      <point x="117.760545698622" y="551.4581888900705" type="line"/>
      <point x="109.27526432438341" y="426.45818889007046" type="line"/>
      <point x="100.86149988188468" y="434.98832029172326" type="line"/>
      <point x="234.70233680939592" y="442.2285207697329"/>
      <point x="310.1119587240005" y="357.7696952061915"/>
      <point x="310.1119587240005" y="214.0" type="curve" smooth="yes"/>
      <point x="310.11195872400043" y="15.7092289312033"/>
      <point x="150.96107104555864" y="-72.69901105876339"/>
      <point x="-10.429645101054126" y="6.823850255285267" type="curve" smooth="yes"/>
      <point x="-13.16284443888783" y="8.170593346063484"/>
      <point x="-14.893704654520748" y="10.953018612972265"/>
      <point x="-14.893704654520747" y="14.000000000000002" type="curve"/>
      <point x="-14.893704654520747" y="177.0" type="line"/>
      <point x="-14.893704654520745" y="184.19452542556115"/>
      <point x="-6.137365568321919" y="187.73262070911545"/>
      <point x="-1.1393186896084675" y="182.55761119248373" type="curve" smooth="yes"/>
      <point x="36.53472919132055" y="143.54966247871891"/>
      <point x="75.03636126358663" y="119.0"/>
      <point x="114.72866170956542" y="119.0" type="curve" smooth="yes"/>
      <point x="162.9037174474482" y="119.0"/>
      <point x="185.92462120245875" y="154.15624165515422"/>
      <point x="185.92462120245875" y="214.0" type="curve" smooth="yes"/>
      <point x="185.92462120245875" y="283.147914069702"/>
      <point x="139.19776535187495" y="324.9884110479227"/>
    </contour>
    <contour>
      <point x="-2.2050715783833943" y="297.6370154334004" type="line"/>
      <point x="149.58530065979485" y="344.9893690488913"/>
      <point x="201.92462120245875" y="290.81604030957396"/>
      <point x="201.92462120245875" y="214.0" type="curve" smooth="yes"/>
      <point x="201.92462120245875" y="143.8662583342805"/>
      <point x="171.1872967836326" y="103.0"/>
      <point x="114.72866170956542" y="103.0" type="curve" smooth="yes"/>
      <point x="71.0333483235154" y="103.0"/>
      <point x="28.825427170716146" y="128.5004447920844"/>
      <point x="-12.648090619433026" y="171.44238880751627" type="curve"/>
      <point x="1.1062953454792535" y="177.0" type="line"/>
      <point x="1.1062953454792535" y="13.999999999999998" type="line"/>
      <point x="-3.357764207987367" y="21.176149744714735" type="line"/>
      <point x="147.8637294959919" y="-53.335979321001766"/>
      <point x="294.11195872400043" y="28.203522329641945"/>
      <point x="294.1119587240005" y="214.0" type="curve" smooth="yes"/>
      <point x="294.1119587240005" y="348.24009219292583"/>
      <point x="226.69512231187468" y="425.7719721208701"/>
      <point x="101.72576585215735" y="419.01167970827674" type="curve" smooth="yes"/>
      <point x="96.92892494892713" y="418.75219171793105"/>
      <point x="92.98665370212773" y="422.7489867299589"/>
      <point x="93.31200140965862" y="427.54181110992954" type="curve" smooth="yes"/>
      <point x="101.7972827838972" y="552.5418111099295" type="line" smooth="yes"/>
      <point x="102.08428391849775" y="556.7697371200186"/>
      <point x="105.61841482008798" y="560.0403962939945"/>
      <point x="109.85587468323693" y="559.9996298095831" type="curve" smooth="yes"/>
      <point x="217.63790073999203" y="558.9627127821715"/>
      <point x="255.7566431551862" y="548.0935958186373"/>
      <point x="279.95260818833526" y="530.4660063526392" type="curve"/>
      <point x="267.2419010389117" y="524.0" type="line"/>
      <point x="267.2419010389117" y="680.0" type="line"/>
      <point x="275.2419010389117" y="672.0" type="line"/>
      <point x="25.633207280060446" y="672.0" type="line"/>
      <point x="33.61622011921468" y="679.4789376141971" type="line"/>
      <point x="8.160375996498964" y="289.47893761419704" type="line"/>
    </contour>
  </outline>
</glyph>
<glyph name="six" format="2">
  <advance width="404"/>
  <unicode hex="0036"/>
  <outline>
    <contour>
      <point x="316.7731239591687" y="501.0" type="line" smooth="yes"/>
      <point x="316.7731239591687" y="493.8397470886032"/>
      <point x="308.0877351413077" y="490.28554882770385"/>
      <point x="303.0681290270133" y="495.3916996492626" type="curve" smooth="yes"/>
      <point x="264.77882173386587" y="534.3411656910422"/>
      <point x="225.5815230801237" y="557.0"/>
      <point x="189.9791847198287" y="557.0" type="curve" smooth="yes"/>
      <point x="138.58528887674515" y="557.0"/>
      <point x="102.19520446638303" y="515.2550939209788"/>
      <point x="96.85557892424447" y="390.6574747361576" type="curve"/>
      <point x="82.73633872328102" y="396.14442057001037" type="line"/>
      <point x="111.25310096923229" y="430.10550850533104"/>
      <point x="148.9215952271179" y="448.0"/>
      <point x="186.44365081389594" y="448.0" type="curve" smooth="yes"/>
      <point x="266.5636564436772" y="448.0"/>
      <point x="347.88582233137674" y="373.88727512181435"/>
      <point x="347.88582233137674" y="219.0" type="curve" smooth="yes"/>
      <point x="347.88582233137674" y="81.09003535424976"/>
      <point x="275.23821090031043" y="-26.000000000000014"/>
      <point x="164.523340597113" y="-26.0" type="curve" smooth="yes"/>
      <point x="53.183123057989086" y="-25.999999999999986"/>
      <point x="-25.203102167829755" y="86.47201678017291"/>
      <point x="-25.20310216782974" y="317.0" type="curve" smooth="yes"/>
      <point x="-25.203102167829723" y="639.0757213418042"/>
      <point x="117.58455927800233" y="759.2213405716362"/>
      <point x="312.06893470592325" y="671.2895563322865" type="curve" smooth="yes"/>
      <point x="314.9327821966078" y="669.9947313927961"/>
      <point x="316.7731239591687" y="667.142959445145"/>
      <point x="316.7731239591687" y="664.0" type="curve" smooth="yes"/>
    </contour>
    <contour>
      <point x="165.23044737829954" y="115.0" type="curve" smooth="yes"/>
      <point x="202.24344442834203" y="115.0"/>
      <point x="226.52691193458122" y="158.04576707656523"/>
      <point x="226.52691193458122" y="214.0" type="curve" smooth="yes"/>
      <point x="226.52691193458122" y="271.87487113793236"/>
      <point x="202.31756304754825" y="313.0"/>
      <point x="165.23044737829954" y="313.0" type="curve" smooth="yes"/>
      <point x="128.18040955294117" y="313.0"/>
      <point x="104.64108960320443" y="273.0102291500274"/>
      <point x="104.64108960320442" y="217.0" type="curve" smooth="yes"/>
      <point x="104.6410896032044" y="158.27959847174535"/>
      <point x="128.18040955294117" y="115.0"/>
    </contour>
    <contour>
      <point x="300.7731239591687" y="501.0" type="line"/>
      <point x="300.7731239591687" y="664.0" type="line"/>
      <point x="305.4773132124141" y="656.7104436677135" type="line"/>
      <point x="119.47306860604175" y="740.8081253881275"/>
      <point x="-9.203102167829723" y="625.0322063015157"/>
      <point x="-9.20310216782974" y="317.0" type="curve" smooth="yes"/>
      <point x="-9.203102167829755" y="99.69770151299115"/>
      <point x="59.57085349612705" y="-9.999999999999986"/>
      <point x="164.523340597113" y="-10.0" type="curve" smooth="yes"/>
      <point x="267.3325774414023" y="-10.000000000000014"/>
      <point x="331.88582233137674" y="90.93754389429094"/>
      <point x="331.88582233137674" y="219.0" type="curve" smooth="yes"/>
      <point x="331.88582233137674" y="362.1101531900037"/>
      <point x="260.4715932013148" y="432.0"/>
      <point x="186.44365081389594" y="432.0" type="curve" smooth="yes"/>
      <point x="153.25317261929243" y="432.0"/>
      <point x="120.21425472492247" y="415.896171048842"/>
      <point x="94.98949129702376" y="385.85557942998963" type="curve" smooth="yes"/>
      <point x="90.07722355945678" y="380.005477824537"/>
      <point x="80.54318300744345" y="383.7105471726088"/>
      <point x="80.87025109606031" y="391.3425252638424" type="curve" smooth="yes"/>
      <point x="86.83481103140683" y="530.5226909073872"/>
      <point x="132.5702953421185" y="573.0"/>
      <point x="189.9791847198287" y="573.0" type="curve" smooth="yes"/>
      <point x="229.28981394106654" y="573.0"/>
      <point x="272.2006497288608" y="549.6146894940182"/>
      <point x="314.4781188913241" y="506.6083003507374" type="curve"/>
    </contour>
    <contour>
      <point x="165.23044737829954" y="99.0" type="curve" smooth="yes"/>
      <point x="120.35350903449626" y="99.0"/>
      <point x="88.6410896032044" y="145.87478681322062"/>
      <point x="88.64108960320442" y="217.0" type="curve" smooth="yes"/>
      <point x="88.64108960320443" y="284.8425110396973"/>
      <point x="120.35350903449626" y="329.0"/>
      <point x="165.23044737829954" y="329.0" type="curve" smooth="yes"/>
      <point x="210.06254241903835" y="329.0"/>
      <point x="242.52691193458122" y="283.96100064685504"/>
      <point x="242.52691193458122" y="214.0" type="curve" smooth="yes"/>
      <point x="242.52691193458122" y="146.08962948863527"/>
      <point x="210.15227387968125" y="99.0"/>
    </contour>
  </outline>
</glyph>
<glyph name="seven" format="2">
  <advance width="355"/>
  <unicode hex="0037"/>
  <outline>
    <contour>
      <point x="113.55849890382471" y="351.0738882418971" type="curve" smooth="yes"/>
      <point x="113.55972566129616" y="351.07845328250926" type="line"/>
      <point x="168.71405459384687" y="556.0784532825093" type="line"/>
      <point x="176.43933982822017" y="546.0" type="line"/>
      <point x="46.17135248892127" y="546.0"/>
      <point x="10.687240103838077" y="534.983286464834"/>
      <point x="-13.309494406032767" y="517.5302255180491" type="curve" smooth="yes"/>
      <point x="-18.597227615513145" y="513.6844051653908"/>
      <point x="-26.01502499808041" y="517.4616166616233"/>
      <point x="-26.015024998080406" y="524.0" type="curve"/>
      <point x="-26.015024998080406" y="680.0" type="line" smooth="yes"/>
      <point x="-26.015024998080406" y="684.4182779986463"/>
      <point x="-22.433302996726752" y="688.0"/>
      <point x="-18.015024998080406" y="688.0" type="curve" smooth="yes"/>
      <point x="312.91094859722386" y="688.0" type="line" smooth="yes"/>
      <point x="318.2079224230906" y="688.0"/>
      <point x="322.0424791142058" y="682.9450096993637"/>
      <point x="320.6149568695567" y="677.8440184277626" type="curve" smooth="yes"/>
      <point x="227.98482915588767" y="346.84709607164956" type="line" smooth="yes"/>
      <point x="159.54187063715898" y="101.90164580472032"/>
      <point x="154.65852749519573" y="50.30254357069144"/>
      <point x="166.53128560558747" y="1.906063477628789" type="curve" smooth="yes"/>
      <point x="167.76785082096882" y="-3.1345010882068185"/>
      <point x="163.95169772374885" y="-8.0"/>
      <point x="158.7616702985565" y="-8.0" type="curve" smooth="yes"/>
      <point x="7.44081912463531" y="-8.0" type="line" smooth="yes"/>
      <point x="1.2792397695217304" y="-7.999999999999999"/>
      <point x="-2.569363274906557" y="-1.327142975441638"/>
      <point x="0.5161917414265353" y="4.006187165337533" type="curve" smooth="yes"/>
      <point x="25.85980405765126" y="47.81219636849741"/>
      <point x="48.087500420244204" y="107.15406426975694"/>
    </contour>
    <contour>
      <point x="129.01152288751422" y="346.9261117581029" type="line"/>
      <point x="62.97532360332068" y="100.9005664286044"/>
      <point x="39.927846230757716" y="40.17799240404179"/>
      <point x="14.365446507844087" y="-4.006187165337533" type="curve"/>
      <point x="7.440819124635312" y="8.0" type="line"/>
      <point x="158.7616702985565" y="8.0" type="line"/>
      <point x="150.99205499152555" y="-1.906063477628789" type="line"/>
      <point x="138.8238219271707" y="47.69485012570318"/>
      <point x="142.42880664375642" y="100.1115452829152"/>
      <point x="212.5750913676846" y="351.15290392835044" type="curve" smooth="yes"/>
      <point x="305.20694032489104" y="682.1559815722374" type="line"/>
      <point x="312.91094859722386" y="672.0" type="line"/>
      <point x="-18.015024998080406" y="672.0" type="line"/>
      <point x="-10.015024998080406" y="680.0" type="line"/>
      <point x="-10.015024998080406" y="524.0" type="line"/>
      <point x="-22.720555590128043" y="530.4697744819509" type="line"/>
      <point x="2.7494288142467016" y="548.9943445621154"/>
      <point x="38.17371020447155" y="562.0"/>
      <point x="176.43933982822017" y="562.0" type="curve" smooth="yes"/>
      <point x="181.70294821892725" y="562.0"/>
      <point x="185.53214557978205" y="557.0044062400224"/>
      <point x="184.16462506259347" y="551.9215467174907" type="curve" smooth="yes"/>
      <point x="129.01029613004278" y="346.92154671749074" type="line"/>
    </contour>
  </outline>
</glyph>
<glyph name="eight" format="2">
  <advance width="402"/>
  <unicode hex="0038"/>
  <outline>
    <contour>
      <point x="159.2806999099937" y="-26.0" type="curve" smooth="yes"/>
      <point x="51.96399512147933" y="-26.000000000000032"/>
      <point x="-24.78888860545667" y="63.21905845812391"/>
      <point x="-24.788888605456663" y="189.0" type="curve" smooth="yes"/>
      <point x="-24.78888860545666" y="269.8391085838173"/>
      <point x="2.0683725679123737" y="328.92124957722166"/>
      <point x="44.573361646786545" y="364.15880972914204" type="curve"/>
      <point x="44.222335700340714" y="352.149940982283" type="line"/>
      <point x="9.657427034884835" y="384.391367389158"/>
      <point x="-11.353859762912254" y="435.397009146875"/>
      <point x="-11.353859762912236" y="503.0" type="curve" smooth="yes"/>
      <point x="-11.353859762912203" y="618.7918759871196"/>
      <point x="61.91319419271321" y="706.0"/>
      <point x="159.2806999099937" y="706.0" type="curve" smooth="yes"/>
      <point x="255.95888794475292" y="706.0"/>
      <point x="328.50104602052664" y="618.8497719251131"/>
      <point x="328.50104602052653" y="503.0" type="curve" smooth="yes"/>
      <point x="328.5010460205265" y="435.39794148080944"/>
      <point x="307.5234566452257" y="384.44983379053485"/>
      <point x="273.6944381213777" y="352.2088520352286" type="curve"/>
      <point x="273.3334544010764" y="364.1148864258234" type="line"/>
      <point x="315.0847232062571" y="328.8949362489914"/>
      <point x="341.936074863071" y="269.7987092292027"/>
      <point x="341.936074863071" y="189.0" type="curve" smooth="yes"/>
      <point x="341.936074863071" y="63.15443241187501"/>
      <point x="265.18169667224146" y="-25.999999999999968"/>
    </contour>
    <contour>
      <point x="159.2806999099937" y="420.0" type="curve" smooth="yes"/>
      <point x="188.56696834647127" y="420.0"/>
      <point x="207.8492424049175" y="450.7017484110648"/>
      <point x="207.8492424049175" y="493.0" type="curve" smooth="yes"/>
      <point x="207.8492424049175" y="535.2982515889353"/>
      <point x="188.56696834647127" y="566.0"/>
      <point x="159.2806999099937" y="566.0" type="curve" smooth="yes"/>
      <point x="129.29684468529814" y="566.0"/>
      <point x="109.2979438526968" y="535.403574710996"/>
      <point x="109.29794385269679" y="493.0" type="curve" smooth="yes"/>
      <point x="109.29794385269678" y="450.63823753339153"/>
      <point x="129.95045810482347" y="420.0"/>
    </contour>
    <contour>
      <point x="159.2806999099937" y="114.0" type="curve" smooth="yes"/>
      <point x="193.64112996213368" y="114.0"/>
      <point x="219.8700576850888" y="151.8075333528688"/>
      <point x="219.8700576850888" y="204.0" type="curve" smooth="yes"/>
      <point x="219.8700576850888" y="257.2245372772473"/>
      <point x="193.72668781931432" y="292.0"/>
      <point x="159.2806999099937" y="292.0" type="curve" smooth="yes"/>
      <point x="124.12946773537689" y="292.0"/>
      <point x="97.27712857252551" y="257.32672013186624"/>
      <point x="97.2771285725255" y="204.0" type="curve" smooth="yes"/>
      <point x="97.27712857252548" y="151.7037347373"/>
      <point x="124.21436527397279" y="114.0"/>
    </contour>
    <contour>
      <point x="159.2806999099937" y="-10.0" type="curve" smooth="yes"/>
      <point x="257.03018332225446" y="-9.99999999999997"/>
      <point x="325.936074863071" y="72.84113844481568"/>
      <point x="325.936074863071" y="189.0" type="curve" smooth="yes"/>
      <point x="325.936074863071" y="264.1794582291187"/>
      <point x="301.86445670417817" y="319.11458049994536"/>
      <point x="263.0168340243676" y="351.8851135741766" type="curve" smooth="yes"/>
      <point x="259.37712139454317" y="354.9554513423188"/>
      <point x="259.2088338068266" y="360.5059448803426"/>
      <point x="262.6558503040663" y="363.7911479647714" type="curve" smooth="yes"/>
      <point x="293.89700030242665" y="393.5657435949064"/>
      <point x="312.5010460205265" y="440.5693962593943"/>
      <point x="312.50104602052653" y="503.0" type="curve" smooth="yes"/>
      <point x="312.50104602052664" y="609.1880139768431"/>
      <point x="247.89602138794177" y="690.0"/>
      <point x="159.2806999099937" y="690.0" type="curve" smooth="yes"/>
      <point x="69.98892559633607" y="690.0"/>
      <point x="4.646140237087794" y="609.1880139768431"/>
      <point x="4.646140237087764" y="503.0" type="curve" smooth="yes"/>
      <point x="4.646140237087747" y="440.6006115612646"/>
      <point x="23.23161667142628" y="393.6097673500369"/>
      <point x="55.135961951816945" y="363.850059017717" type="curve" smooth="yes"/>
      <point x="58.66326030374586" y="360.55986863042216"/>
      <point x="58.4983958767425" y="354.91972924769135"/>
      <point x="54.784936005371115" y="351.84119027085796" type="curve" smooth="yes"/>
      <point x="15.255776085563943" y="319.0706571966267"/>
      <point x="-8.788888605456659" y="264.1794582291187"/>
      <point x="-8.788888605456663" y="189.0" type="curve" smooth="yes"/>
      <point x="-8.78888860545667" y="72.78302995979558"/>
      <point x="60.12400643693727" y="-10.00000000000003"/>
    </contour>
    <contour>
      <point x="159.2806999099937" y="404.0" type="curve" smooth="yes"/>
      <point x="122.20938751841246" y="404.0"/>
      <point x="93.29794385269678" y="439.4577844161933"/>
      <point x="93.29794385269679" y="493.0" type="curve" smooth="yes"/>
      <point x="93.2979438526968" y="546.4887134981299"/>
      <point x="121.45846787852147" y="582.0"/>
      <point x="159.2806999099937" y="582.0" type="curve" smooth="yes"/>
      <point x="196.3890928817946" y="582.0"/>
      <point x="223.8492424049175" y="546.595771184944"/>
      <point x="223.8492424049175" y="493.0" type="curve" smooth="yes"/>
      <point x="223.8492424049175" y="439.4042288150556"/>
      <point x="196.3890928817946" y="404.0"/>
    </contour>
    <contour>
      <point x="159.2806999099937" y="98.0" type="curve" smooth="yes"/>
      <point x="116.61848677901892" y="98.0"/>
      <point x="81.27712857252548" y="140.37560247601434"/>
      <point x="81.2771285725255" y="204.0" type="curve" smooth="yes"/>
      <point x="81.27712857252551" y="268.62438484145997"/>
      <point x="116.6824161586835" y="308.0"/>
      <point x="159.2806999099937" y="308.0" type="curve" smooth="yes"/>
      <point x="201.14630363672376" y="308.0"/>
      <point x="235.8700576850888" y="268.68902538239763"/>
      <point x="235.8700576850888" y="204.0" type="curve" smooth="yes"/>
      <point x="235.8700576850888" y="140.2792393605906"/>
      <point x="201.23067620872698" y="98.0"/>
    </contour>
  </outline>
</glyph>
<glyph name="nine" format="2">
  <advance width="404"/>
  <unicode hex="0039"/>
  <outline>
    <contour>
      <point x="2.374062298445608" y="177.0" type="line"/>
      <point x="2.3740622984456103" y="184.16025291139678"/>
      <point x="11.059451116306645" y="187.7144511722961"/>
      <point x="16.079057230601016" y="182.60830035073738" type="curve" smooth="yes"/>
      <point x="54.36836452374842" y="143.65883430895767"/>
      <point x="93.56566317749063" y="121.0"/>
      <point x="129.1680015377856" y="121.0" type="curve" smooth="yes"/>
      <point x="180.56189738086917" y="121.0"/>
      <point x="216.95198179123125" y="162.74490607902115"/>
      <point x="222.29160733336983" y="287.3425252638424" type="curve"/>
      <point x="236.41084753433327" y="281.8555794299897" type="line"/>
      <point x="207.894085288382" y="247.89449149466893"/>
      <point x="170.2255910304964" y="230.0"/>
      <point x="132.70353544371835" y="230.0" type="curve" smooth="yes"/>
      <point x="52.583529813937076" y="230.0"/>
      <point x="-28.73863607376249" y="304.11272487818565"/>
      <point x="-28.73863607376248" y="459.0" type="curve" smooth="yes"/>
      <point x="-28.73863607376247" y="596.9099646457502"/>
      <point x="43.90897535730387" y="704.0"/>
      <point x="154.62384566050133" y="704.0" type="curve" smooth="yes"/>
      <point x="265.9640631996253" y="704.0"/>
      <point x="344.35028842544426" y="591.5279832198271"/>
      <point x="344.35028842544403" y="361.0" type="curve" smooth="yes"/>
      <point x="344.3502884254437" y="38.92427865819574"/>
      <point x="201.56262697961196" y="-81.22134057163616"/>
      <point x="7.078251551691027" y="6.710443667713583" type="curve" smooth="yes"/>
      <point x="4.214404061006618" y="8.00526860720388"/>
      <point x="2.3740622984456072" y="10.857040554855118"/>
      <point x="2.374062298445608" y="14.000000000000002" type="curve"/>
    </contour>
    <contour>
      <point x="153.91673887931478" y="563.0" type="curve" smooth="yes"/>
      <point x="116.9037418292723" y="563.0"/>
      <point x="92.62027432303317" y="519.9542329234348"/>
      <point x="92.6202743230331" y="464.0" type="curve" smooth="yes"/>
      <point x="92.62027432303303" y="406.12512886206764"/>
      <point x="116.82962321006607" y="365.0"/>
      <point x="153.91673887931478" y="365.0" type="curve" smooth="yes"/>
      <point x="190.96677670467312" y="365.0"/>
      <point x="214.50609665440987" y="404.9897708499726"/>
      <point x="214.50609665440987" y="461.0" type="curve" smooth="yes"/>
      <point x="214.50609665440987" y="519.7204015282546"/>
      <point x="190.96677670467312" y="563.0"/>
    </contour>
    <contour>
      <point x="18.374062298445608" y="177.0" type="line"/>
      <point x="18.374062298445608" y="13.999999999999998" type="line"/>
      <point x="13.66987304520019" y="21.289556332286416" type="line"/>
      <point x="199.67411765157246" y="-62.80812538812739"/>
      <point x="328.3502884254437" y="52.9677936984843"/>
      <point x="328.35028842544403" y="361.0" type="curve" smooth="yes"/>
      <point x="328.35028842544426" y="578.3022984870089"/>
      <point x="259.57633276148727" y="688.0"/>
      <point x="154.62384566050133" y="688.0" type="curve" smooth="yes"/>
      <point x="51.814608816212065" y="688.0"/>
      <point x="-12.738636073762471" y="587.0624561057091"/>
      <point x="-12.738636073762478" y="459.0" type="curve" smooth="yes"/>
      <point x="-12.738636073762489" y="315.8898468099963"/>
      <point x="58.675593056299526" y="246.0"/>
      <point x="132.70353544371835" y="246.0" type="curve" smooth="yes"/>
      <point x="165.89401363832187" y="246.0"/>
      <point x="198.9329315326918" y="262.10382895115794"/>
      <point x="224.15769496059053" y="292.1444205700103" type="curve" smooth="yes"/>
      <point x="229.06996269815744" y="297.99452217546286"/>
      <point x="238.60400325017085" y="294.28945282739113"/>
      <point x="238.27693516155398" y="286.6574747361576" type="curve" smooth="yes"/>
      <point x="232.31237522620745" y="147.47730909261276"/>
      <point x="186.57689091549582" y="105.0"/>
      <point x="129.1680015377856" y="105.0" type="curve" smooth="yes"/>
      <point x="89.8573723165478" y="105.0"/>
      <point x="46.946536528753505" y="128.3853105059819"/>
      <point x="4.669067366290198" y="171.39169964926262" type="curve"/>
    </contour>
    <contour>
      <point x="153.91673887931478" y="579.0" type="curve" smooth="yes"/>
      <point x="198.79367722311807" y="579.0"/>
      <point x="230.50609665440987" y="532.1252131867794"/>
      <point x="230.50609665440987" y="461.0" type="curve" smooth="yes"/>
      <point x="230.50609665440987" y="393.1574889603027"/>
      <point x="198.79367722311807" y="349.0"/>
      <point x="153.91673887931478" y="349.0" type="curve" smooth="yes"/>
      <point x="109.08464383857601" y="349.0"/>
      <point x="76.62027432303303" y="394.03899935314496"/>
      <point x="76.6202743230331" y="464.0" type="curve" smooth="yes"/>
      <point x="76.62027432303317" y="531.9103705113648"/>
      <point x="108.99491237793313" y="579.0"/>
    </contour>
  </outline>
</glyph>
<glyph name="less" format="2">
  <advance width="323"/>
  <unicode hex="003C"/>
  <outline>
    <contour>
      <point x="-40.68959522804084" y="301.9726749108938" type="line" smooth="yes"/>
      <point x="-44.342453004590986" y="305.16071180562733"/>
      <point x="-44.34245300459099" y="310.83928819437267"/>
      <point x="-40.689595228040844" y="314.0273250891062" type="curve" smooth="yes"/>
      <point x="240.03179690301857" y="559.0273250891062" type="line" smooth="yes"/>
      <point x="245.20660204291477" y="563.5436437410266"/>
      <point x="253.29215357060593" y="559.8684599730639"/>
      <point x="253.29215357060593" y="553.0" type="curve" smooth="yes"/>
      <point x="253.29215357060593" y="398.0" type="line" smooth="yes"/>
      <point x="253.29215357060593" y="395.52286789885903"/>
      <point x="252.14463188055734" y="393.18546736866926"/>
      <point x="250.18476004432642" y="391.67051329938135" type="curve" smooth="yes"/>
      <point x="136.34056827329223" y="303.67051329938135" type="line"/>
      <point x="136.37514995840547" y="316.30260397355323" type="line"/>
      <point x="250.21934172943966" y="227.3026039735532" type="line" smooth="yes"/>
      <point x="252.15877038020113" y="225.7864163909234"/>
      <point x="253.29215357060593" y="223.46174902805205"/>
      <point x="253.29215357060593" y="221.0" type="curve" smooth="yes"/>
      <point x="253.29215357060593" y="63.0" type="line" smooth="yes"/>
      <point x="253.29215357060593" y="56.13154002693607"/>
      <point x="245.20660204291482" y="52.45635625897332"/>
      <point x="240.03179690301857" y="56.97267491089379" type="curve" smooth="yes"/>
    </contour>
    <contour>
      <point x="-30.16888189286613" y="314.0273250891062" type="line"/>
      <point x="250.5525102381933" y="69.02732508910621" type="line"/>
      <point x="237.29215357060593" y="63.0" type="line"/>
      <point x="237.29215357060593" y="221.0" type="line"/>
      <point x="240.3649654117722" y="214.6973960264468" type="line"/>
      <point x="126.52077364073801" y="303.69739602644677" type="line" smooth="yes"/>
      <point x="122.40944480005219" y="306.91151052037685"/>
      <point x="122.42649028400726" y="313.13793060952685"/>
      <point x="126.55535532585124" y="316.32948670061865" type="curve" smooth="yes"/>
      <point x="240.39954709688544" y="404.32948670061865" type="line"/>
      <point x="237.29215357060593" y="398.0" type="line"/>
      <point x="237.29215357060593" y="553.0" type="line"/>
      <point x="250.5525102381933" y="546.9726749108938" type="line"/>
      <point x="-30.16888189286613" y="301.9726749108938" type="line"/>
    </contour>
  </outline>
</glyph>
<glyph name="equal" format="2">
  <advance width="346"/>
  <unicode hex="003D"/>
  <outline>
    <contour>
      <point x="-6.383297014435101" y="125.0" type="line"/>
      <point x="-14.3832970144351" y="133.0" type="line"/>
      <point x="275.5304832720494" y="133.0" type="line"/>
      <point x="267.5304832720494" y="125.0" type="line"/>
      <point x="267.5304832720494" y="252.0" type="line"/>
      <point x="275.5304832720494" y="244.0" type="line"/>
      <point x="-14.383297014435101" y="244.0" type="line"/>
      <point x="-6.383297014435101" y="252.0" type="line"/>
    </contour>
    <contour>
      <point x="-6.383297014435101" y="365.0" type="line"/>
      <point x="-14.3832970144351" y="373.0" type="line"/>
      <point x="275.5304832720494" y="373.0" type="line"/>
      <point x="267.5304832720494" y="365.0" type="line"/>
      <point x="267.5304832720494" y="492.0" type="line"/>
      <point x="275.5304832720494" y="484.0" type="line"/>
      <point x="-14.383297014435101" y="484.0" type="line"/>
      <point x="-6.383297014435101" y="492.0" type="line"/>
    </contour>
    <contour>
      <point x="-22.3832970144351" y="125.0" type="curve" smooth="yes"/>
      <point x="-22.3832970144351" y="252.0" type="line" smooth="yes"/>
      <point x="-22.3832970144351" y="256.4182779986464"/>
      <point x="-18.801575013081447" y="260.0"/>
      <point x="-14.383297014435101" y="260.0" type="curve" smooth="yes"/>
      <point x="275.5304832720494" y="260.0" type="line" smooth="yes"/>
      <point x="279.9487612706958" y="260.0"/>
      <point x="283.5304832720494" y="256.4182779986464"/>
      <point x="283.5304832720494" y="252.0" type="curve" smooth="yes"/>
      <point x="283.5304832720494" y="125.0" type="line" smooth="yes"/>
      <point x="283.5304832720494" y="120.58172200135365"/>
      <point x="279.9487612706958" y="117.0"/>
      <point x="275.5304832720494" y="117.0" type="curve" smooth="yes"/>
      <point x="-14.383297014435103" y="117.0" type="line" smooth="yes"/>
      <point x="-18.80157501308145" y="117.0"/>
      <point x="-22.3832970144351" y="120.58172200135365"/>
    </contour>
    <contour>
      <point x="-22.3832970144351" y="365.0" type="curve" smooth="yes"/>
      <point x="-22.3832970144351" y="492.0" type="line" smooth="yes"/>
      <point x="-22.3832970144351" y="496.4182779986464"/>
      <point x="-18.801575013081447" y="500.0"/>
      <point x="-14.383297014435101" y="500.0" type="curve" smooth="yes"/>
      <point x="275.5304832720494" y="500.0" type="line" smooth="yes"/>
      <point x="279.9487612706958" y="500.0"/>
      <point x="283.5304832720494" y="496.4182779986464"/>
      <point x="283.5304832720494" y="492.0" type="curve" smooth="yes"/>
      <point x="283.5304832720494" y="365.0" type="line" smooth="yes"/>
      <point x="283.5304832720494" y="360.5817220013536"/>
      <point x="279.9487612706958" y="357.0"/>
      <point x="275.5304832720494" y="357.0" type="curve" smooth="yes"/>
      <point x="-14.383297014435103" y="357.0" type="line" smooth="yes"/>
      <point x="-18.80157501308145" y="357.0"/>
      <point x="-22.3832970144351" y="360.5817220013536"/>
    </contour>
  </outline>
</glyph>
<glyph name="greater" format="2">
  <advance width="317"/>
  <unicode hex="003E"/>
  <outline>
    <contour>
      <point x="272.3012475797224" y="315.0273250891062" type="line" smooth="yes"/>
      <point x="275.95410535627263" y="311.8392881943726"/>
      <point x="275.95410535627263" y="306.1607118056274"/>
      <point x="272.3012475797224" y="302.9726749108938" type="curve" smooth="yes"/>
      <point x="-8.420144551336964" y="57.97267491089379" type="line" smooth="yes"/>
      <point x="-13.594949691233243" y="53.4563562589733"/>
      <point x="-21.680501218924324" y="57.13154002693604"/>
      <point x="-21.68050121892432" y="64.0" type="curve"/>
      <point x="-21.68050121892432" y="219.0" type="line" smooth="yes"/>
      <point x="-21.68050121892432" y="221.47713210114097"/>
      <point x="-20.532979528875725" y="223.81453263133076"/>
      <point x="-18.573107692644825" y="225.32948670061865" type="curve" smooth="yes"/>
      <point x="95.27108407838934" y="313.32948670061865" type="line"/>
      <point x="95.23650239327611" y="300.69739602644677" type="line"/>
      <point x="-18.60768937775805" y="389.69739602644677" type="line" smooth="yes"/>
      <point x="-20.547118028519495" y="391.2135836090766"/>
      <point x="-21.68050121892432" y="393.53825097194795"/>
      <point x="-21.68050121892432" y="396.0" type="curve" smooth="yes"/>
      <point x="-21.68050121892432" y="554.0" type="line"/>
      <point x="-21.680501218924316" y="560.868459973064"/>
      <point x="-13.594949691233296" y="564.5436437410267"/>
      <point x="-8.420144551336964" y="560.0273250891062" type="curve" smooth="yes"/>
    </contour>
    <contour>
      <point x="261.7805342445477" y="302.9726749108938" type="line"/>
      <point x="-18.940857886511676" y="547.9726749108938" type="line"/>
      <point x="-5.68050121892432" y="554.0" type="line"/>
      <point x="-5.68050121892432" y="396.0" type="line"/>
      <point x="-8.75331306009059" y="402.30260397355323" type="line"/>
      <point x="105.09087871094357" y="313.30260397355323" type="line" smooth="yes"/>
      <point x="109.2022075516294" y="310.08848947962315"/>
      <point x="109.18516206767433" y="303.8620693904732"/>
      <point x="105.05629702583035" y="300.67051329938135" type="curve" smooth="yes"/>
      <point x="-8.787894745203817" y="212.67051329938135" type="line"/>
      <point x="-5.68050121892432" y="219.0" type="line"/>
      <point x="-5.68050121892432" y="64.0" type="line"/>
      <point x="-18.940857886511676" y="70.02732508910621" type="line"/>
      <point x="261.7805342445477" y="315.0273250891062" type="line"/>
    </contour>
  </outline>
</glyph>
<glyph name="question" format="2">
  <advance width="369"/>
  <unicode hex="003F"/>
  <outline>
    <contour>
      <point x="310.23327906756015" y="510.0" type="curve" smooth="yes"/>
      <point x="310.23327906756015" y="419.07128829176503"/>
      <point x="266.0470481270545" y="377.367762681946"/>
      <point x="226.1416055707232" y="342.9425221103692" type="curve" smooth="yes"/>
      <point x="196.4166352184808" y="317.2996726691073"/>
      <point x="167.39770926787756" y="294.97430423526487"/>
      <point x="167.39770926787756" y="257.0" type="curve" smooth="yes"/>
      <point x="167.39770926787756" y="252.58172200135365"/>
      <point x="163.8159872665239" y="249.0"/>
      <point x="159.39770926787756" y="249.0" type="curve" smooth="yes"/>
      <point x="83.73728368091699" y="249.0" type="line" smooth="yes"/>
      <point x="79.55623217159254" y="249.0"/>
      <point x="76.08033695542119" y="252.2195859419352"/>
      <point x="75.76069625031573" y="256.38840130643194" type="curve" smooth="yes"/>
      <point x="69.17836000797907" y="342.2364926885463"/>
      <point x="105.55351667602298" y="384.90981710805227"/>
      <point x="138.00926875498098" y="419.4760123042184" type="curve" smooth="yes"/>
      <point x="162.00046515521245" y="445.0272420444038"/>
      <point x="186.0459415460184" y="466.7305059340293"/>
      <point x="186.0459415460184" y="501.0" type="curve" smooth="yes"/>
      <point x="186.0459415460184" y="535.7982948198222"/>
      <point x="159.471880571342" y="556.0"/>
      <point x="119.09262274024437" y="556.0" type="curve" smooth="yes"/>
      <point x="75.1891095990272" y="556.0"/>
      <point x="32.004048657970024" y="528.6835962407987"/>
      <point x="-5.145077846136812" y="488.56458645240406" type="curve" smooth="yes"/>
      <point x="-10.088847687481014" y="483.22558741471386"/>
      <point x="-19.01502499808041" y="486.7236155290803"/>
      <point x="-19.015024998080406" y="494.0" type="curve"/>
      <point x="-19.015024998080406" y="665.0" type="line" smooth="yes"/>
      <point x="-19.015024998080406" y="668.2217343637095"/>
      <point x="-17.082456939604455" y="671.1290979715844"/>
      <point x="-14.111910778329174" y="672.3762658889233" type="curve" smooth="yes"/>
      <point x="32.22890656083038" y="691.8322101870074"/>
      <point x="79.23454585992849" y="700.0"/>
      <point x="120.50683630261744" y="700.0" type="curve" smooth="yes"/>
      <point x="235.79373053047948" y="700.0"/>
      <point x="310.23327906756015" y="633.578308511649"/>
    </contour>
    <contour>
      <point x="64.6454005888802" y="-8.0" type="line" smooth="yes"/>
      <point x="60.22712259023385" y="-7.999999999999999"/>
      <point x="56.64540058888019" y="-4.418277998646345"/>
      <point x="56.64540058888019" y="1.959434878635765e-15" type="curve" smooth="yes"/>
      <point x="56.64540058888019" y="161.0" type="line" smooth="yes"/>
      <point x="56.64540058888019" y="165.41827799864635"/>
      <point x="60.22712259023385" y="169.0"/>
      <point x="64.6454005888802" y="169.0" type="curve" smooth="yes"/>
      <point x="178.48959235991435" y="169.0" type="line" smooth="yes"/>
      <point x="182.9078703585607" y="169.0"/>
      <point x="186.48959235991435" y="165.41827799864635"/>
      <point x="186.48959235991435" y="161.0" type="curve" smooth="yes"/>
      <point x="186.48959235991435" y="-9.797174393178826e-16" type="line" smooth="yes"/>
      <point x="186.48959235991435" y="-4.418277998646348"/>
      <point x="182.9078703585607" y="-8.0"/>
      <point x="178.48959235991435" y="-8.0" type="curve" smooth="yes"/>
    </contour>
    <contour>
      <point x="294.23327906756015" y="510.0" type="curve" smooth="yes"/>
      <point x="294.23327906756015" y="624.410410194239"/>
      <point x="227.24094698504524" y="684.0"/>
      <point x="120.50683630261744" y="684.0" type="curve" smooth="yes"/>
      <point x="81.17206545971578" y="684.0"/>
      <point x="36.247217518057994" y="676.1663229106999"/>
      <point x="-7.918139217831639" y="657.6237341110767" type="curve"/>
      <point x="-3.0150249980804062" y="665.0" type="line"/>
      <point x="-3.0150249980804062" y="494.0" type="line"/>
      <point x="-16.884972150024" y="499.43541354759594" type="line"/>
      <point x="23.725401835340243" y="543.2923799085435"/>
      <point x="71.0985443939048" y="572.0"/>
      <point x="119.09262274024437" y="572.0" type="curve" smooth="yes"/>
      <point x="169.1942352206595" y="572.0"/>
      <point x="202.0459415460184" y="544.1768877311879"/>
      <point x="202.0459415460184" y="501.0" type="curve" smooth="yes"/>
      <point x="202.0459415460184" y="461.35667383831424"/>
      <point x="177.426730230615" y="438.0819301758305"/>
      <point x="149.67345140856608" y="408.5239876957816" type="curve" smooth="yes"/>
      <point x="119.36899020051005" y="376.24897157894856"/>
      <point x="85.56783718726984" y="337.7693515857468"/>
      <point x="91.71387111151824" y="257.61159869356806" type="curve"/>
      <point x="83.73728368091699" y="265.0" type="line"/>
      <point x="159.39770926787756" y="265.0" type="line"/>
      <point x="151.39770926787756" y="257.0" type="line"/>
      <point x="151.39770926787756" y="300.95105569771425"/>
      <point x="181.28702846194406" y="325.3787167710956"/>
      <point x="215.69039289149123" y="355.0574778896308" type="curve" smooth="yes"/>
      <point x="253.02534600869785" y="387.26523353534424"/>
      <point x="294.23327906756015" y="424.928416497505"/>
    </contour>
    <contour>
      <point x="64.6454005888802" y="8.0" type="line"/>
      <point x="178.48959235991435" y="8.0" type="line"/>
      <point x="170.48959235991435" y="9.797174393178826e-16" type="line"/>
      <point x="170.48959235991435" y="161.0" type="line"/>
      <point x="178.48959235991435" y="153.0" type="line"/>
      <point x="64.6454005888802" y="153.0" type="line"/>
      <point x="72.6454005888802" y="161.0" type="line"/>
      <point x="72.6454005888802" y="-1.959434878635765e-15" type="line"/>
    </contour>
  </outline>
</glyph>
<glyph name="at" format="2">
  <advance width="634"/>
  <unicode hex="0040"/>
  <outline>
    <contour>
      <point x="280.93755415948607" y="227.0" type="curve" smooth="yes"/>
      <point x="306.5528643625544" y="227.0"/>
      <point x="321.72792206135784" y="267.386746078382"/>
      <point x="321.72792206135784" y="320.0" type="curve" smooth="yes"/>
      <point x="321.72792206135784" y="372.69225278819727"/>
      <point x="306.59132578286744" y="412.0"/>
      <point x="280.93755415948607" y="412.0" type="curve" smooth="yes"/>
      <point x="255.96927939106257" y="412.0"/>
      <point x="241.5613998199874" y="373.396324731875"/>
      <point x="241.5613998199874" y="320.0" type="curve" smooth="yes"/>
      <point x="241.5613998199874" y="266.7103878497965"/>
      <point x="256.01917850066985" y="227.0"/>
    </contour>
    <contour>
      <point x="340.08831862494117" y="171.76619166618224" type="curve"/>
      <point x="354.4852197671506" y="171.27456514111984" type="line"/>
      <point x="330.15629066409196" y="125.04109750646217"/>
      <point x="294.7503585628208" y="102.0"/>
      <point x="259.0172439427031" y="102.0" type="curve"/>
      <point x="259.0172439427031" y="102.0"/>
      <point x="259.0172439427031" y="102.0"/>
      <point x="259.0172439427031" y="102.0" type="curve"/>
      <point x="188.47174783438757" y="102.00000000000001"/>
      <point x="126.56645045387077" y="179.27687109119728"/>
      <point x="126.56645045387074" y="320.0" type="curve" smooth="yes"/>
      <point x="126.56645045387071" y="462.9663332963818"/>
      <point x="192.19025971516987" y="537.0"/>
      <point x="257.60303038033" y="537.0" type="curve" smooth="yes"/>
      <point x="285.19362001918455" y="537.0"/>
      <point x="313.7836064211719" y="523.1345233143377"/>
      <point x="336.00935918580484" y="494.95414449240417" type="curve"/>
      <point x="321.72792206135784" y="490.0" type="line"/>
      <point x="321.72792206135784" y="519.0" type="line" smooth="yes"/>
      <point x="321.72792206135784" y="523.4182779986463"/>
      <point x="325.30964406271147" y="527.0"/>
      <point x="329.72792206135784" y="527.0" type="curve" smooth="yes"/>
      <point x="425.18733752154185" y="527.0" type="line" smooth="yes"/>
      <point x="429.6056155201882" y="527.0"/>
      <point x="433.18733752154185" y="523.4182779986463"/>
      <point x="433.18733752154185" y="519.0" type="curve" smooth="yes"/>
      <point x="433.18733752154185" y="255.0" type="line" smooth="yes"/>
      <point x="433.18733752154185" y="240.2269513662804"/>
      <point x="436.10399402146413" y="226.0"/>
      <point x="444.27922061357856" y="226.0" type="curve" smooth="yes"/>
      <point x="466.29017316915144" y="226.0"/>
      <point x="490.01933598375615" y="283.45018718095974"/>
      <point x="490.01933598375615" y="363.0" type="curve"/>
      <point x="490.0193359837562" y="520.9681394365973"/>
      <point x="410.7170725978108" y="629.0"/>
      <point x="289.42283553372465" y="629.0" type="curve" smooth="yes"/>
      <point x="163.64005243843025" y="629.0"/>
      <point x="76.09841302233528" y="501.77188646074603"/>
      <point x="76.09841302233525" y="320.0" type="curve" smooth="yes"/>
      <point x="76.09841302233521" y="75.89536211074909"/>
      <point x="237.58017538215904" y="-45.9853261387323"/>
      <point x="414.31430887235035" y="74.60820014918447" type="curve" smooth="yes"/>
      <point x="419.6245520903452" y="78.23161427105265"/>
      <point x="426.82337649086287" y="74.42867116384203"/>
      <point x="426.82337649086287" y="68.0" type="curve" smooth="yes"/>
      <point x="426.82337649086287" y="-57.0" type="line" smooth="yes"/>
      <point x="426.82337649086287" y="-60.096964606601816"/>
      <point x="425.03589784049143" y="-62.91572212455538"/>
      <point x="422.23458795255266" y="-64.23627226986633" type="curve" smooth="yes"/>
      <point x="188.33677132471715" y="-174.4967604313797"/>
      <point x="-16.976226126998373" y="-5.6140209170205795"/>
      <point x="-16.976226126998426" y="317.0" type="curve" smooth="yes"/>
      <point x="-16.97622612699847" y="568.2744641460753"/>
      <point x="115.31081393030762" y="745.0"/>
      <point x="291.5441558772843" y="745.0" type="curve" smooth="yes"/>
      <point x="461.6168082183402" y="745.0"/>
      <point x="582.3868683519033" y="593.0963156676528"/>
      <point x="582.3868683519033" y="371.0" type="curve" smooth="yes"/>
      <point x="582.3868683519033" y="203.21744581580242"/>
      <point x="504.712478250469" y="110.00000000000003"/>
      <point x="426.60155108391484" y="110.0" type="curve" smooth="yes"/>
      <point x="382.8946082722643" y="109.99999999999999"/>
      <point x="355.42408803253795" y="137.06530672914283"/>
    </contour>
    <contour>
      <point x="280.93755415948607" y="211.0" type="curve" smooth="yes"/>
      <point x="248.174351683045" y="211.0"/>
      <point x="225.5613998199874" y="249.9337012703551"/>
      <point x="225.5613998199874" y="320.0" type="curve" smooth="yes"/>
      <point x="225.5613998199874" y="389.99531960502827"/>
      <point x="248.20754172552734" y="428.0"/>
      <point x="280.93755415948607" y="428.0" type="curve" smooth="yes"/>
      <point x="314.41561737208787" y="428.0"/>
      <point x="337.72792206135784" y="388.7631665064752"/>
      <point x="337.72792206135784" y="320.0" type="curve" smooth="yes"/>
      <point x="337.72792206135784" y="251.16805313622672"/>
      <point x="314.4491038048163" y="211.0"/>
    </contour>
    <contour>
      <point x="354.72286455710196" y="178.23380833381776" type="curve" smooth="yes"/>
      <point x="367.6591261467807" y="148.96238979537"/>
      <point x="389.73320555333027" y="125.99999999999999"/>
      <point x="426.60155108391484" y="126.0" type="curve" smooth="yes"/>
      <point x="498.3055516691248" y="126.00000000000003"/>
      <point x="566.3868683519033" y="216.97954729484945"/>
      <point x="566.3868683519033" y="371.0" type="curve" smooth="yes"/>
      <point x="566.3868683519033" y="582.987817426694"/>
      <point x="453.8761165195309" y="729.0"/>
      <point x="291.5441558772843" y="729.0" type="curve" smooth="yes"/>
      <point x="122.66002210937758" y="729.0"/>
      <point x="-0.9762261269984651" y="557.7959228740763"/>
      <point x="-0.9762261269984265" y="317.0" type="curve" smooth="yes"/>
      <point x="-0.976226126998376" y="7.530177169039461"/>
      <point x="191.04400004175406" y="-155.53189502679106"/>
      <point x="415.4121650291731" y="-49.763727730133674" type="curve"/>
      <point x="410.82337649086287" y="-57.0" type="line"/>
      <point x="410.82337649086287" y="68.0" type="line"/>
      <point x="423.3324441093754" y="61.39179985081553" type="line"/>
      <point x="236.590240582538" y="-66.03067584953936"/>
      <point x="60.09841302233521" y="62.072246767830045"/>
      <point x="60.09841302233525" y="320.0" type="curve" smooth="yes"/>
      <point x="60.09841302233528" y="512.2573948180996"/>
      <point x="156.38427461141347" y="645.0"/>
      <point x="289.42283553372465" y="645.0" type="curve" smooth="yes"/>
      <point x="418.4232689657314" y="645.0"/>
      <point x="506.0193359837562" y="531.0043417479262"/>
      <point x="506.01933598375615" y="363.0" type="curve"/>
      <point x="506.01933598375615" y="259.7069440014786"/>
      <point x="472.8597850968101" y="210.0"/>
      <point x="444.27922061357856" y="210.0" type="curve" smooth="yes"/>
      <point x="427.72816123963804" y="210.0"/>
      <point x="417.18733752154185" y="225.0913971844341"/>
      <point x="417.18733752154185" y="255.0" type="curve" smooth="yes"/>
      <point x="417.18733752154185" y="519.0" type="line"/>
      <point x="425.18733752154185" y="511.0" type="line"/>
      <point x="329.72792206135784" y="511.0" type="line"/>
      <point x="337.72792206135784" y="519.0" type="line"/>
      <point x="337.72792206135784" y="490.0" type="line" smooth="yes"/>
      <point x="337.72792206135784" y="482.4099731913715"/>
      <point x="328.1467461258067" y="479.08632098618745"/>
      <point x="323.44648493691085" y="485.04585550759583" type="curve" smooth="yes"/>
      <point x="304.67013397500244" y="508.8526839468167"/>
      <point x="280.9116039882163" y="521.0"/>
      <point x="257.60303038033" y="521.0" type="curve" smooth="yes"/>
      <point x="198.63167638777205" y="521.0"/>
      <point x="142.56645045387071" y="448.88795512111494"/>
      <point x="142.56645045387074" y="320.0" type="curve" smooth="yes"/>
      <point x="142.56645045387077" y="192.88211079075856"/>
      <point x="195.2921503632434" y="118.00000000000001"/>
      <point x="259.0172439427031" y="118.0" type="curve"/>
      <point x="259.0172439427031" y="118.0" type="line"/>
      <point x="289.7068683427298" y="118.0"/>
      <point x="319.4308999935976" y="139.0175120678562"/>
      <point x="340.3259634148925" y="178.72543485888016" type="curve" smooth="yes"/>
      <point x="343.44200688514104" y="184.64700642989558"/>
      <point x="352.0180293568276" y="184.3541517325572"/>
    </contour>
  </outline>
</glyph>
<glyph name="A" format="2">
  <advance width="474"/>
  <unicode hex="0041"/>
  <outline>
    <contour>
      <point x="52.491942881635104" y="351.0557345114403" type="curve" smooth="yes"/>
      <point x="113.32524542807315" y="579.8422194294994"/>
      <point x="130.72409182203901" y="640.4789331935544"/>
      <point x="132.13136629482048" y="680.282666101335" type="curve" smooth="yes"/>
      <point x="132.2835914164906" y="684.5882427333303"/>
      <point x="135.81810420046057" y="688.0"/>
      <point x="140.126370977443" y="688.0" type="curve" smooth="yes"/>
      <point x="249.0208152801713" y="688.0" type="line" smooth="yes"/>
      <point x="253.04965155522768" y="688.0"/>
      <point x="256.44989494226803" y="685.0040280879938"/>
      <point x="256.95715206767335" y="681.0072528954247" type="curve" smooth="yes"/>
      <point x="261.89494486609334" y="642.10144600902"/>
      <point x="273.0554270988116" y="589.4549671749887"/>
      <point x="336.6535455797005" y="351.06210912748924" type="curve" smooth="yes"/>
      <point x="404.15829095364074" y="98.025548206302"/>
      <point x="420.9272743498107" y="43.59173679872858"/>
      <point x="442.0575164010235" y="3.7481702853265433" type="curve" smooth="yes"/>
      <point x="444.883225711018" y="-1.5800382873642298"/>
      <point x="441.02102132248837" y="-8.0"/>
      <point x="434.9898987322333" y="-8.0" type="curve" smooth="yes"/>
      <point x="280.1335136523794" y="-8.0" type="line" smooth="yes"/>
      <point x="274.8554639633653" y="-7.999999999999999"/>
      <point x="271.0239042655382" y="-2.9787288125769424"/>
      <point x="272.41734840041994" y="2.1120591384838385" type="curve" smooth="yes"/>
      <point x="280.71078672684683" y="32.41118261832292"/>
      <point x="281.80415503377486" y="61.35544165167261"/>
      <point x="265.21727838092113" y="144.43368345123142" type="curve"/>
      <point x="273.06244584051393" y="138.0" type="line"/>
      <point x="106.1852454804887" y="138.0" type="line"/>
      <point x="114.03041294008149" y="144.43368345123142" type="line"/>
      <point x="97.44353628722774" y="61.35544165167261"/>
      <point x="98.53690459415586" y="32.411182618322904"/>
      <point x="106.83034292058271" y="2.112059138483822" type="curve" smooth="yes"/>
      <point x="108.22378705546446" y="-2.9787288125769713"/>
      <point x="104.39222735763735" y="-8.0"/>
      <point x="99.11417766862323" y="-8.0" type="curve" smooth="yes"/>
      <point x="-45.84271247461902" y="-8.0" type="line" smooth="yes"/>
      <point x="-51.87383506487404" y="-7.999999999999999"/>
      <point x="-55.73603945340364" y="-1.5800382873641983"/>
      <point x="-52.9103301434092" y="3.7481702853265455" type="curve" smooth="yes"/>
      <point x="-31.78008809219632" y="43.59173679872858"/>
      <point x="-14.804124480309742" y="97.96359490920214"/>
    </contour>
    <contour>
      <point x="181.87531133639132" y="481.0099708976779" type="line"/>
      <point x="197.37237998461134" y="481.0099708976779" type="line"/>
      <point x="142.92515783324717" y="269.0099708976779" type="line"/>
      <point x="135.17662350913716" y="279.0" type="line"/>
      <point x="244.07106781186548" y="279.0" type="line"/>
      <point x="236.32253348775546" y="269.0099708976779" type="line"/>
    </contour>
    <contour>
      <point x="67.95466652509113" y="346.9442654885597" type="curve" smooth="yes"/>
      <point x="0.14642111055028154" y="91.92588793111337"/>
      <point x="-17.48403434948592" y="36.39863832089432"/>
      <point x="-38.77509480582884" y="-3.7481702853265455" type="curve"/>
      <point x="-45.84271247461902" y="8.0" type="line"/>
      <point x="99.11417766862323" y="8.0" type="line"/>
      <point x="91.39801241666375" y="-2.112059138483822" type="line"/>
      <point x="82.72212949794607" y="29.584281691979456"/>
      <point x="80.98831218346064" y="60.65699491685316"/>
      <point x="98.34007802089592" y="147.56631654876858" type="curve" smooth="yes"/>
      <point x="99.08690749331208" y="151.30694118781128"/>
      <point x="102.37079572317342" y="154.0"/>
      <point x="106.1852454804887" y="154.0" type="curve" smooth="yes"/>
      <point x="273.06244584051393" y="154.0" type="line" smooth="yes"/>
      <point x="276.8768955978292" y="154.0"/>
      <point x="280.1607838276906" y="151.30694118781128"/>
      <point x="280.90761330010673" y="147.56631654876858" type="curve" smooth="yes"/>
      <point x="298.25937913754206" y="60.65699491685316"/>
      <point x="296.5255618230565" y="29.584281691979438"/>
      <point x="287.8496789043389" y="-2.1120591384838385" type="curve"/>
      <point x="280.1335136523794" y="8.0" type="line"/>
      <point x="434.9898987322333" y="8.0" type="line"/>
      <point x="427.9222810634431" y="-3.7481702853265433" type="line"/>
      <point x="406.6312206071004" y="36.39863832089432"/>
      <point x="389.21272916549646" y="91.97551499528512"/>
      <point x="321.19421752880186" y="346.93789087251076" type="curve" smooth="yes"/>
      <point x="257.27207870141575" y="586.5453152988911"/>
      <point x="246.04742840849596" y="639.8887225141067"/>
      <point x="241.08447849266923" y="678.9927471045753" type="curve"/>
      <point x="249.0208152801713" y="672.0" type="line"/>
      <point x="140.126370977443" y="672.0" type="line"/>
      <point x="148.12137566006552" y="679.717333898665" type="line"/>
      <point x="146.7005322754669" y="639.5298142085157"/>
      <point x="129.3745225362321" y="577.9367050365431"/>
    </contour>
    <contour>
      <point x="197.37237998461134" y="484.9900291023221" type="curve" smooth="yes"/>
      <point x="251.8196021359755" y="272.9900291023221" type="line" smooth="yes"/>
      <point x="253.11952987228764" y="267.92852790521704"/>
      <point x="249.29683153479917" y="263.0"/>
      <point x="244.07106781186548" y="263.0" type="curve" smooth="yes"/>
      <point x="135.17662350913716" y="263.0" type="line" smooth="yes"/>
      <point x="129.9508597862036" y="263.0"/>
      <point x="126.12816144871503" y="267.9285279052172"/>
      <point x="127.42808918502715" y="272.9900291023221" type="curve" smooth="yes"/>
      <point x="181.87531133639132" y="484.9900291023221" type="line" smooth="yes"/>
      <point x="183.93333788097686" y="493.00332363255933"/>
      <point x="195.3143534400258" y="493.00332363255933"/>
    </contour>
  </outline>
</glyph>
<glyph name="B" format="2">
  <advance width="419"/>
  <unicode hex="0042"/>
  <outline>
    <contour>
      <point x="-2.278480965370989" y="-8.0" type="line" smooth="yes"/>
      <point x="-7.799953927558098" y="-7.999999999999999"/>
      <point x="-11.6614442854232" y="-2.539027964934237"/>
      <point x="-9.820953298027495" y="2.6666666666666674" type="curve" smooth="yes"/>
      <point x="4.22385958011001" y="42.39139637317538"/>
      <point x="8.813402126665764" y="96.74796636366959"/>
      <point x="8.813402126665778" y="349.0" type="curve" smooth="yes"/>
      <point x="8.813402126665792" y="587.2292040499328"/>
      <point x="4.238507442457883" y="638.5605696550532"/>
      <point x="-9.799283029240552" y="677.2728153131673" type="curve" smooth="yes"/>
      <point x="-11.690813891105938" y="682.4891210802369"/>
      <point x="-7.827150612858944" y="688.0"/>
      <point x="-2.278480965370987" y="688.0" type="curve" smooth="yes"/>
      <point x="168.84136008177353" y="688.0" type="line" smooth="yes"/>
      <point x="277.05676190424646" y="688.0"/>
      <point x="344.4256672229853" y="609.5605814256088"/>
      <point x="344.4256672229853" y="494.0" type="curve" smooth="yes"/>
      <point x="344.4256672229853" y="429.3234566558431"/>
      <point x="321.91472879534194" y="378.1951588048362"/>
      <point x="285.03309784182653" y="346.9000571866958" type="curve"/>
      <point x="284.4266614028054" y="359.56653139626775" type="line"/>
      <point x="330.85108037915353" y="327.26057375831664"/>
      <point x="358.56780284671623" y="270.99106426756543"/>
      <point x="358.56780284671623" y="197.0" type="curve" smooth="yes"/>
      <point x="358.56780284671623" y="75.13199710982322"/>
      <point x="287.4526868726113" y="-8.0"/>
      <point x="185.81192283025064" y="-8.0" type="curve" smooth="yes"/>
    </contour>
    <contour>
      <point x="171.6697872065197" y="549.0" type="curve" smooth="yes"/>
      <point x="120.75809896108828" y="549.0" type="line"/>
      <point x="128.75226167464888" y="556.6944472073153" type="line"/>
      <point x="127.34007123521486" y="519.7473780734431"/>
      <point x="126.63530795875877" y="471.8198777851172"/>
      <point x="125.92921273904179" y="405.9142950057776" type="curve"/>
      <point x="117.9296718363421" y="414.0" type="line"/>
      <point x="171.6697872065197" y="414.0" type="line" smooth="yes"/>
      <point x="201.05836000635742" y="414.0"/>
      <point x="220.94543648263004" y="439.43828176768045"/>
      <point x="220.94543648263004" y="481.0" type="curve" smooth="yes"/>
      <point x="220.94543648263004" y="522.6866218772971"/>
      <point x="203.6553519666048" y="549.0"/>
    </contour>
    <contour>
      <point x="178.74085501838522" y="281.0" type="curve" smooth="yes"/>
      <point x="117.9296718363421" y="281.0" type="line"/>
      <point x="125.92929655781485" y="289.07748751900687" type="line"/>
      <point x="126.63539177753184" y="216.1819186873131"/>
      <point x="127.34091320427679" y="163.22544354335895"/>
      <point x="128.7531036437108" y="123.28266610133502" type="curve"/>
      <point x="120.75809896108828" y="131.0" type="line"/>
      <point x="178.74085501838522" y="131.0" type="line" smooth="yes"/>
      <point x="212.39758312804517" y="131.0"/>
      <point x="235.087572106361" y="158.40219864221504"/>
      <point x="235.087572106361" y="206.0" type="curve" smooth="yes"/>
      <point x="235.087572106361" y="253.74084498387532"/>
      <point x="215.0464944141855" y="281.0"/>
    </contour>
    <contour>
      <point x="-2.278480965370988" y="8.0" type="line"/>
      <point x="185.81192283025064" y="8.0" type="line" smooth="yes"/>
      <point x="279.34934875063016" y="8.0"/>
      <point x="342.56780284671623" y="84.8479574626803"/>
      <point x="342.56780284671623" y="197.0" type="curve" smooth="yes"/>
      <point x="342.56780284671623" y="265.0240480567489"/>
      <point x="317.968105474096" y="316.7328279028983"/>
      <point x="275.28758805331756" y="346.43346860373225" type="curve" smooth="yes"/>
      <point x="270.97698606210804" y="349.4331426630464"/>
      <point x="270.67684187289495" y="355.70217332676464"/>
      <point x="274.6811516142964" y="359.0999428133042" type="curve" smooth="yes"/>
      <point x="308.5037933997728" y="387.7994060502888"/>
      <point x="328.4256672229853" y="434.6877759768985"/>
      <point x="328.4256672229853" y="494.0" type="curve" smooth="yes"/>
      <point x="328.4256672229853" y="600.4006557405341"/>
      <point x="268.4790529100039" y="672.0"/>
      <point x="168.84136008177353" y="672.0" type="curve" smooth="yes"/>
      <point x="-2.27848096537099" y="672.0" type="line"/>
      <point x="5.242321098498576" y="682.7271846868327" type="line"/>
      <point x="19.4863115679493" y="643.4462979036227"/>
      <point x="24.813402126665792" y="590.728534050524"/>
      <point x="24.81340212666578" y="349.0" type="curve" smooth="yes"/>
      <point x="24.813402126665764" y="93.29848555375196"/>
      <point x="19.500863400719528" y="37.601288364238535"/>
      <point x="5.263991367285518" y="-2.6666666666666674" type="curve"/>
    </contour>
    <contour>
      <point x="171.6697872065197" y="565.0" type="line" smooth="yes"/>
      <point x="211.73500851192478" y="565.0"/>
      <point x="236.94543648263004" y="533.2167966554981"/>
      <point x="236.94543648263004" y="481.0" type="curve" smooth="yes"/>
      <point x="236.94543648263004" y="428.6256346997476"/>
      <point x="208.7040560706696" y="398.0"/>
      <point x="171.6697872065197" y="398.0" type="curve" smooth="yes"/>
      <point x="117.9296718363421" y="398.0" type="line" smooth="yes"/>
      <point x="113.47788606156404" y="398.0"/>
      <point x="109.88243839937907" y="401.63417469479816"/>
      <point x="109.9301309336424" y="406.0857049942224" type="curve" smooth="yes"/>
      <point x="110.63841531730573" y="472.19562016621103"/>
      <point x="111.34736748020103" y="520.2439336811153"/>
      <point x="112.76393624752768" y="557.3055527926847" type="curve" smooth="yes"/>
      <point x="112.92814757125825" y="561.6018055933124"/>
      <point x="116.45870906416765" y="565.0"/>
      <point x="120.75809896108828" y="565.0" type="curve" smooth="yes"/>
    </contour>
    <contour>
      <point x="178.74085501838522" y="297.0" type="line" smooth="yes"/>
      <point x="222.9992563552685" y="297.0"/>
      <point x="251.087572106361" y="264.1984923725844"/>
      <point x="251.087572106361" y="206.0" type="curve" smooth="yes"/>
      <point x="251.087572106361" y="147.6558658274869"/>
      <point x="219.99638793422696" y="115.0"/>
      <point x="178.74085501838522" y="115.0" type="curve" smooth="yes"/>
      <point x="120.75809896108828" y="115.0" type="line" smooth="yes"/>
      <point x="116.44983218410582" y="115.0"/>
      <point x="112.91531940013586" y="118.41175726666975"/>
      <point x="112.76309427846576" y="122.71733389866498" type="curve" smooth="yes"/>
      <point x="111.3465255111391" y="162.7839491544156"/>
      <point x="110.63833149853266" y="215.80093963924818"/>
      <point x="109.93004711486934" y="288.92251248099313" type="curve" smooth="yes"/>
      <point x="109.88695853648403" y="293.3708734723124"/>
      <point x="113.48110216343845" y="297.0"/>
      <point x="117.9296718363421" y="297.0" type="curve" smooth="yes"/>
    </contour>
  </outline>
</glyph>
<glyph name="C" format="2">
  <advance width="432"/>
  <unicode hex="0043"/>
  <outline>
    <contour>
      <point x="99.54920651116763" y="340.0" type="curve" smooth="yes"/>
      <point x="99.5492065111676" y="207.88575312516306"/>
      <point x="148.33026554574562" y="125.0"/>
      <point x="220.24264068711932" y="125.0" type="curve" smooth="yes"/>
      <point x="264.6664090023718" y="125.0"/>
      <point x="306.9241882765352" y="153.127843091252"/>
      <point x="340.5785582123326" y="195.01097352001887" type="curve" smooth="yes"/>
      <point x="345.30992775840986" y="200.8992004630009"/>
      <point x="354.8147545195113" y="197.55361332830896"/>
      <point x="354.8147545195113" y="190.0" type="curve" smooth="yes"/>
      <point x="354.8147545195113" y="22.0" type="line" smooth="yes"/>
      <point x="354.8147545195113" y="19.26194163598483"/>
      <point x="353.4144456056514" y="16.714071399245327"/>
      <point x="351.10297552806776" y="15.24639647434238" type="curve" smooth="yes"/>
      <point x="315.193588202812" y="-7.554377741606076"/>
      <point x="269.89591115217206" y="-20.000000000000025"/>
      <point x="225.19238815542514" y="-20.0" type="curve" smooth="yes"/>
      <point x="72.25757874158593" y="-19.99999999999991"/>
      <point x="-23.931024229187578" y="124.79262474191876"/>
      <point x="-23.931024229187614" y="338.0" type="curve" smooth="yes"/>
      <point x="-23.93102422918765" y="551.2073752580812"/>
      <point x="72.25757874158593" y="700.0"/>
      <point x="225.19238815542514" y="700.0" type="curve" smooth="yes"/>
      <point x="269.89591115217206" y="700.0"/>
      <point x="315.193588202812" y="687.554377741606"/>
      <point x="351.10297552806776" y="664.7536035256576" type="curve" smooth="yes"/>
      <point x="353.41444560565134" y="663.2859286007547"/>
      <point x="354.8147545195113" y="660.738058364015"/>
      <point x="354.8147545195113" y="658.0" type="curve" smooth="yes"/>
      <point x="354.8147545195113" y="490.0" type="line" smooth="yes"/>
      <point x="354.8147545195113" y="482.5046660692886"/>
      <point x="345.43197124946346" y="479.12489351036277"/>
      <point x="340.652344989893" y="484.8985581656487" type="curve" smooth="yes"/>
      <point x="308.4087177956636" y="523.8480242074284"/>
      <point x="263.8705212979981" y="556.0"/>
      <point x="219.53553390593277" y="556.0" type="curve" smooth="yes"/>
      <point x="147.62315876455907" y="556.0"/>
      <point x="99.54920651116765" y="472.11424687483714"/>
    </contour>
    <contour>
      <point x="83.54920651116763" y="340.0" type="curve" smooth="yes"/>
      <point x="83.54920651116765" y="485.7292839169689"/>
      <point x="140.21222713153801" y="572.0"/>
      <point x="219.53553390593277" y="572.0" type="curve" smooth="yes"/>
      <point x="268.51286936566856" y="572.0"/>
      <point x="317.3572837147763" y="538.1293341722037"/>
      <point x="352.97716404912967" y="495.1014418343513" type="curve"/>
      <point x="338.8147545195113" y="490.0" type="line"/>
      <point x="338.8147545195113" y="658.0" type="line"/>
      <point x="342.5265335109549" y="651.2463964743424" type="line"/>
      <point x="309.1312087511178" y="672.4508590517862"/>
      <point x="266.76615979522234" y="684.0"/>
      <point x="225.19238815542514" y="684.0" type="curve" smooth="yes"/>
      <point x="79.73029892536259" y="684.0"/>
      <point x="-7.931024229187646" y="540.7896092666267"/>
      <point x="-7.931024229187614" y="338.0" type="curve" smooth="yes"/>
      <point x="-7.931024229187582" y="135.21039073337354"/>
      <point x="79.73029892536259" y="-3.9999999999999165"/>
      <point x="225.19238815542514" y="-4.0" type="curve" smooth="yes"/>
      <point x="266.76615979522234" y="-4.000000000000024"/>
      <point x="309.1312087511178" y="7.5491409482138705"/>
      <point x="342.5265335109549" y="28.75360352565762" type="curve"/>
      <point x="338.8147545195113" y="22.0" type="line"/>
      <point x="338.8147545195113" y="190.0" type="line"/>
      <point x="353.05095082669004" y="184.98902647998113" type="line"/>
      <point x="316.0025092650433" y="138.8819469812655"/>
      <point x="269.1465835484929" y="109.0"/>
      <point x="220.24264068711932" y="109.0" type="curve" smooth="yes"/>
      <point x="140.91933391272457" y="109.0"/>
      <point x="83.5492065111676" y="194.27071608303118"/>
    </contour>
  </outline>
</glyph>
<glyph name="E" format="2">
  <advance width="389"/>
  <unicode hex="0045"/>
  <outline>
    <contour>
      <point x="-1.72213177926696" y="-8.0" type="line" smooth="yes"/>
      <point x="-7.243604741454071" y="-7.999999999999999"/>
      <point x="-11.105095099319172" y="-2.5390279649342378"/>
      <point x="-9.264604111923466" y="2.6666666666666674" type="curve" smooth="yes"/>
      <point x="4.780208766214039" y="42.39139637317538"/>
      <point x="9.369751312769822" y="96.74796636366959"/>
      <point x="9.369751312769836" y="349.0" type="curve" smooth="yes"/>
      <point x="9.36975131276985" y="587.2292040499328"/>
      <point x="4.794856628561912" y="638.5605696550532"/>
      <point x="-9.242933843136523" y="677.2728153131673" type="curve" smooth="yes"/>
      <point x="-11.134464705001909" y="682.4891210802369"/>
      <point x="-7.270801426754914" y="688.0"/>
      <point x="-1.722131779266958" y="688.0" type="curve" smooth="yes"/>
      <point x="294.5556095378965" y="688.0" type="line" smooth="yes"/>
      <point x="298.97388753654286" y="688.0"/>
      <point x="302.5556095378965" y="684.4182779986463"/>
      <point x="302.5556095378965" y="680.0" type="curve" smooth="yes"/>
      <point x="302.5556095378965" y="524.0" type="line" smooth="yes"/>
      <point x="302.5556095378965" y="517.4586801237818"/>
      <point x="295.1319293727568" y="513.6822133589149"/>
      <point x="289.8449023884729" y="517.5339936473608" type="curve" smooth="yes"/>
      <point x="267.0835267025632" y="534.1164356257185"/>
      <point x="240.14676929706212" y="549.9287459282463"/>
      <point x="121.51172026747268" y="547.002432637948" type="curve"/>
      <point x="129.30828244300085" y="554.6859725312084" type="line"/>
      <point x="127.89677874874802" y="518.7549545116713"/>
      <point x="127.19125262896073" y="471.78996404896185"/>
      <point x="126.48550078183432" y="409.90876634864793" type="curve"/>
      <point x="118.41531310630147" y="417.9996875183094" type="line"/>
      <point x="226.21707170901615" y="418.952529449957"/>
      <point x="250.43355315908283" y="423.14148463858527"/>
      <point x="270.6463828970918" y="438.3869555449482" type="curve" smooth="yes"/>
      <point x="275.9175083032698" y="442.3626872987542"/>
      <point x="283.4637264458597" y="438.60236366961686"/>
      <point x="283.4637264458597" y="432.0" type="curve" smooth="yes"/>
      <point x="283.4637264458597" y="269.0" type="line" smooth="yes"/>
      <point x="283.4637264458597" y="262.5104596223417"/>
      <point x="276.14361182249314" y="258.7212894686202"/>
      <point x="270.84492429234274" y="262.4680273525782" type="curve" smooth="yes"/>
      <point x="250.59189596096738" y="276.7890810252571"/>
      <point x="226.43146420696993" y="281.04557557017876"/>
      <point x="118.41531310630147" y="282.0003124816906" type="curve"/>
      <point x="126.48563524788294" y="290.07856363146783" type="line"/>
      <point x="127.19173046759992" y="218.1815642358246"/>
      <point x="127.89726239038083" y="165.22544354335895"/>
      <point x="129.30945282981486" y="125.28266610133502" type="curve"/>
      <point x="121.50507448682745" y="132.99772852744061" type="line"/>
      <point x="242.39474187178666" y="130.116316047105"/>
      <point x="276.8216360416809" y="143.4238691007854"/>
      <point x="301.2712316925715" y="171.2775230773633" type="curve" smooth="yes"/>
      <point x="306.36463347482487" y="177.08006692439835"/>
      <point x="315.91005372881745" y="173.01394131429566"/>
      <point x="315.2546568930472" y="165.32091123506885" type="curve" smooth="yes"/>
      <point x="301.11252126931623" y="-0.6790887649311492" type="line" smooth="yes"/>
      <point x="300.759816574716" y="-4.819126794646293"/>
      <point x="297.2964309319444" y="-8.0"/>
      <point x="293.1413959755234" y="-8.0" type="curve" smooth="yes"/>
    </contour>
    <contour>
      <point x="-1.722131779266959" y="8.0" type="line"/>
      <point x="293.1413959755234" y="8.0" type="line"/>
      <point x="285.1702706817305" y="0.6790887649311492" type="line"/>
      <point x="299.3124063054615" y="166.67908876493115" type="line"/>
      <point x="313.29583150593714" y="160.7224769226367" type="line"/>
      <point x="286.8738310908388" y="130.62180501625534"/>
      <point x="251.76593497109928" y="113.8884088615544"/>
      <point x="121.12382180755722" y="117.00227147255939" type="curve" smooth="yes"/>
      <point x="116.89049585916854" y="117.1031730507081"/>
      <point x="113.46906316438906" y="120.48544972501374"/>
      <point x="113.31944346456982" y="124.71733389866498" type="curve" smooth="yes"/>
      <point x="111.90287469724313" y="164.7839491544156"/>
      <point x="111.19469118067269" y="217.80152890818096"/>
      <point x="110.48640679700937" y="289.92143636853217" type="curve" smooth="yes"/>
      <point x="110.44244370544122" y="294.3979067929783"/>
      <point x="114.08021750049491" y="298.03925466323363"/>
      <point x="118.55672893859084" y="297.9996875183094" type="curve" smooth="yes"/>
      <point x="236.4600152277292" y="296.95755985256903"/>
      <point x="257.9756624201633" y="291.1638876335271"/>
      <point x="280.0825285993767" y="275.5319726474218" type="curve"/>
      <point x="267.4637264458597" y="269.0" type="line"/>
      <point x="267.4637264458597" y="432.0" type="line"/>
      <point x="280.2810699946276" y="425.6130444550518" type="line"/>
      <point x="258.12995691170164" y="408.9056286985004"/>
      <point x="236.69599871419592" y="403.0445259664751"/>
      <point x="118.55672893859084" y="402.0003124816906" type="curve" smooth="yes"/>
      <point x="114.07524935296613" y="401.9607014241313"/>
      <point x="110.4354315484447" y="405.609870453694"/>
      <point x="110.48654126305799" y="410.09123365135207" type="curve" smooth="yes"/>
      <point x="111.19482564672131" y="472.1944872977656"/>
      <point x="111.90404508405715" y="519.2540737386161"/>
      <point x="113.32061385138383" y="555.3140274687916" type="curve" smooth="yes"/>
      <point x="113.48625785856144" y="559.5306354953668"/>
      <point x="116.89859887306888" y="562.8935097627808"/>
      <point x="121.11717602691199" y="562.997567362052" type="curve" smooth="yes"/>
      <point x="245.65812262590327" y="566.0695585670127"/>
      <point x="275.37183274681587" y="547.8739565140826"/>
      <point x="299.26631668732006" y="530.4660063526392" type="curve"/>
      <point x="286.5556095378965" y="524.0" type="line"/>
      <point x="286.5556095378965" y="680.0" type="line"/>
      <point x="294.5556095378965" y="672.0" type="line"/>
      <point x="-1.722131779266961" y="672.0" type="line"/>
      <point x="5.798670284602605" y="682.7271846868327" type="line"/>
      <point x="20.04266075405333" y="643.4462979036227"/>
      <point x="25.36975131276985" y="590.728534050524"/>
      <point x="25.369751312769836" y="349.0" type="curve" smooth="yes"/>
      <point x="25.36975131276982" y="93.29848555375196"/>
      <point x="20.057212586823557" y="37.601288364238535"/>
      <point x="5.820340553389547" y="-2.6666666666666674" type="curve"/>
    </contour>
  </outline>
</glyph>
<glyph name="F" format="2">
  <advance width="369"/>
  <unicode hex="0046"/>
  <outline>
    <contour>
      <point x="-1.8226368426552715" y="-8.0" type="line" smooth="yes"/>
      <point x="-7.3441098048423825" y="-7.999999999999999"/>
      <point x="-11.205600162707483" y="-2.5390279649342378"/>
      <point x="-9.365109175311778" y="2.6666666666666674" type="curve" smooth="yes"/>
      <point x="4.679703702825727" y="42.39139637317538"/>
      <point x="9.269246249381482" y="96.74796636366959"/>
      <point x="9.269246249381496" y="349.0" type="curve" smooth="yes"/>
      <point x="9.26924624938151" y="587.2292040499328"/>
      <point x="4.6943515651736005" y="638.5605696550532"/>
      <point x="-9.343438906524835" y="677.2728153131673" type="curve" smooth="yes"/>
      <point x="-11.23496976839022" y="682.4891210802369"/>
      <point x="-7.371306490143225" y="688.0"/>
      <point x="-1.8226368426552695" y="688.0" type="curve" smooth="yes"/>
      <point x="294.4551044745082" y="688.0" type="line" smooth="yes"/>
      <point x="298.87338247315455" y="688.0"/>
      <point x="302.4551044745082" y="684.4182779986463"/>
      <point x="302.4551044745082" y="680.0" type="curve" smooth="yes"/>
      <point x="302.4551044745082" y="524.0" type="line" smooth="yes"/>
      <point x="302.4551044745082" y="517.4586801237818"/>
      <point x="295.0314243093685" y="513.6822133589149"/>
      <point x="289.7443973250846" y="517.5339936473608" type="curve" smooth="yes"/>
      <point x="266.98302163917486" y="534.1164356257185"/>
      <point x="240.0462642336738" y="549.9287459282463"/>
      <point x="121.41121520408434" y="547.002432637948" type="curve"/>
      <point x="129.20271675879098" y="554.5763312970789" type="line"/>
      <point x="127.08757794363926" y="514.692891314554"/>
      <point x="126.38551595905781" y="462.7872779681073"/>
      <point x="126.38551595905781" y="390.0" type="curve"/>
      <point x="118.31480804291313" y="397.9996875183094" type="line"/>
      <point x="226.11656664562784" y="398.952529449957"/>
      <point x="250.33304809569452" y="403.14148463858527"/>
      <point x="270.54587783370346" y="418.3869555449482" type="curve" smooth="yes"/>
      <point x="275.81700323988144" y="422.3626872987542"/>
      <point x="283.36322138247135" y="418.60236366961686"/>
      <point x="283.36322138247135" y="412.0" type="curve" smooth="yes"/>
      <point x="283.36322138247135" y="249.0" type="line" smooth="yes"/>
      <point x="283.36322138247135" y="242.5104596223417"/>
      <point x="276.0431067591047" y="238.72128946862023"/>
      <point x="270.7444192289543" y="242.4680273525782" type="curve" smooth="yes"/>
      <point x="250.49139089757907" y="256.7890810252571"/>
      <point x="226.33095914358162" y="261.04557557017876"/>
      <point x="118.31480804291313" y="262.0003124816906" type="curve"/>
      <point x="126.38528719481361" y="270.06049938490634" type="line"/>
      <point x="127.78486016550524" y="84.99640971505481"/>
      <point x="132.39954490444472" y="37.37173153891691"/>
      <point x="144.99570164066938" y="2.734067696966077" type="curve" smooth="yes"/>
      <point x="146.89306651332905" y="-2.483419511311474"/>
      <point x="143.02917050069001" y="-8.0"/>
      <point x="137.4773990510946" y="-8.0" type="curve" smooth="yes"/>
    </contour>
    <contour>
      <point x="-1.8226368426552706" y="8.0" type="line"/>
      <point x="137.4773990510946" y="8.0" type="line"/>
      <point x="129.95909646151983" y="-2.734067696966077" type="line"/>
      <point x="117.10082082672763" y="32.62438634197351"/>
      <point x="111.81444201605667" y="81.02433189275924"/>
      <point x="110.38574472330201" y="269.93950061509366" type="curve" smooth="yes"/>
      <point x="110.35194367397195" y="274.4089784880933"/>
      <point x="113.98679277519967" y="278.03919208129514"/>
      <point x="118.4562238752025" y="277.9996875183094" type="curve" smooth="yes"/>
      <point x="236.35951016434092" y="276.95755985256903"/>
      <point x="257.87515735677505" y="271.1638876335271"/>
      <point x="279.9820235359884" y="255.5319726474218" type="curve"/>
      <point x="267.36322138247135" y="249.0" type="line"/>
      <point x="267.36322138247135" y="412.0" type="line"/>
      <point x="280.18056493123925" y="405.6130444550518" type="line"/>
      <point x="258.02945184831333" y="388.9056286985004"/>
      <point x="236.59549365080764" y="383.0445259664751"/>
      <point x="118.4562238752025" y="382.0003124816906" type="curve" smooth="yes"/>
      <point x="114.01048067467102" y="381.9610172921342"/>
      <point x="110.38551595905781" y="385.55408314101646"/>
      <point x="110.38551595905781" y="390.0" type="curve" smooth="yes"/>
      <point x="110.38551595905781" y="463.19471269498"/>
      <point x="111.09819087346268" y="515.3169768152608"/>
      <point x="113.22516940881701" y="555.4236687029211" type="curve" smooth="yes"/>
      <point x="113.44640947834901" y="559.5954114612214"/>
      <point x="116.84033613617433" y="562.8945517337872"/>
      <point x="121.01667096352365" y="562.997567362052" type="curve" smooth="yes"/>
      <point x="245.55761756251496" y="566.0695585670127"/>
      <point x="275.27132768342756" y="547.8739565140826"/>
      <point x="299.16581162393175" y="530.4660063526392" type="curve"/>
      <point x="286.4551044745082" y="524.0" type="line"/>
      <point x="286.4551044745082" y="680.0" type="line"/>
      <point x="294.4551044745082" y="672.0" type="line"/>
      <point x="-1.8226368426552726" y="672.0" type="line"/>
      <point x="5.6981652212142935" y="682.7271846868327" type="line"/>
      <point x="19.942155690665018" y="643.4462979036227"/>
      <point x="25.26924624938151" y="590.728534050524"/>
      <point x="25.269246249381496" y="349.0" type="curve" smooth="yes"/>
      <point x="25.26924624938148" y="93.29848555375196"/>
      <point x="19.956707523435245" y="37.601288364238535"/>
      <point x="5.719835490001236" y="-2.6666666666666674" type="curve"/>
    </contour>
  </outline>
</glyph>
<glyph name="G" format="2">
  <advance width="474"/>
  <unicode hex="0047"/>
  <outline>
    <contour>
      <point x="395.61370488685446" y="40.02514145028718" type="curve" smooth="yes"/>
      <point x="395.6225574576049" y="37.20827068643527"/>
      <point x="394.1493059139604" y="34.59432937828008"/>
      <point x="391.73495651394677" y="33.143206970312264" type="curve" smooth="yes"/>
      <point x="333.8089348399973" y="-1.672693352575012"/>
      <point x="280.05981077929414" y="-23.000000000000007"/>
      <point x="222.85786437626905" y="-23.0" type="curve" smooth="yes"/>
      <point x="72.74727526992287" y="-22.999999999999982"/>
      <point x="-24.144227664784008" y="130.941500811295"/>
      <point x="-24.14422766478404" y="334.0" type="curve" smooth="yes"/>
      <point x="-24.144227664784072" y="548.1253480420319"/>
      <point x="78.4674250083283" y="700.0"/>
      <point x="232.05025253169418" y="700.0" type="curve" smooth="yes"/>
      <point x="280.63677171104297" y="700.0"/>
      <point x="330.6787837117414" y="684.7366329324926"/>
      <point x="379.99047481914016" y="659.0979335399794" type="curve" smooth="yes"/>
      <point x="382.638574314862" y="657.721103311537"/>
      <point x="384.30003589374985" y="654.984642762073"/>
      <point x="384.30003589374985" y="652.0" type="curve" smooth="yes"/>
      <point x="384.30003589374985" y="484.0" type="line" smooth="yes"/>
      <point x="384.30003589374985" y="476.43068650604056"/>
      <point x="374.7622988665716" y="473.0945026887775"/>
      <point x="370.0442522346542" y="479.0135011470379" type="curve" smooth="yes"/>
      <point x="327.97871239038756" y="531.786583930859"/>
      <point x="278.1007600743107" y="557.0"/>
      <point x="229.92893218813452" y="557.0" type="curve" smooth="yes"/>
      <point x="147.52541521538848" y="557.0"/>
      <point x="99.33600307557123" y="472.81960359043984"/>
      <point x="99.3360030755712" y="341.0" type="curve" smooth="yes"/>
      <point x="99.33600307557117" y="209.2463062113554"/>
      <point x="147.56661697387486" y="122.0"/>
      <point x="229.92893218813452" y="122.0" type="curve" smooth="yes"/>
      <point x="248.68316301581325" y="122.0"/>
      <point x="268.1009717634059" y="125.80041884796316"/>
      <point x="287.5249965492161" y="134.3255041442278" type="curve"/>
      <point x="282.7422228184632" y="126.81638428381433" type="line"/>
      <point x="279.2484882716627" y="278.99569708984274"/>
      <point x="273.8988177503774" y="316.6237847557425"/>
      <point x="262.7188672006162" y="347.2572827881249" type="curve" smooth="yes"/>
      <point x="260.81416260539334" y="352.4762472379522"/>
      <point x="264.67834688208063" y="358.0"/>
      <point x="270.2340187157677" y="358.0" type="curve" smooth="yes"/>
      <point x="396.0990257669732" y="358.0" type="line" smooth="yes"/>
      <point x="401.01248466302735" y="358.0"/>
      <point x="404.7647692272727" y="353.6120587763061"/>
      <point x="404.0020524862309" y="348.7581591588699" type="curve" smooth="yes"/>
      <point x="398.3616823124929" y="312.86306317459787"/>
      <point x="394.90865861513714" y="264.3694913519879"/>
    </contour>
    <contour>
      <point x="379.6137838986148" y="39.97485854971282" type="line"/>
      <point x="378.90443655707406" y="265.68780048873583"/>
      <point x="382.5212203153903" y="315.1277701308865"/>
      <point x="388.19599904771553" y="351.2418408411301" type="curve"/>
      <point x="396.0990257669732" y="342.0" type="line"/>
      <point x="270.2340187157677" y="342.0" type="line"/>
      <point x="277.7491702309192" y="352.7427172118751" type="line"/>
      <point x="289.1901810086933" y="321.39390403157927"/>
      <point x="295.16269205383765" y="282.9164295795906"/>
      <point x="298.7380079218921" y="127.18361571618567" type="curve" smooth="yes"/>
      <point x="298.8124121413715" y="123.94273326259172"/>
      <point x="296.9236533954793" y="120.97731683088524"/>
      <point x="293.9552341911392" y="119.6744958557722" type="curve" smooth="yes"/>
      <point x="272.36640205729293" y="110.19928989731245"/>
      <point x="250.77332183460672" y="106.0"/>
      <point x="229.92893218813452" y="106.0" type="curve" smooth="yes"/>
      <point x="139.84773898423566" y="106.0"/>
      <point x="83.33600307557117" y="196.89853909974372"/>
      <point x="83.3360030755712" y="341.0" type="curve" smooth="yes"/>
      <point x="83.33600307557123" y="485.0294461771678"/>
      <point x="139.89275707179382" y="573.0"/>
      <point x="229.92893218813452" y="573.0" type="curve" smooth="yes"/>
      <point x="282.17011451802796" y="573.0"/>
      <point x="336.93675892674133" y="546.217630840198"/>
      <point x="382.5558195528455" y="488.9864988529621" type="curve"/>
      <point x="368.30003589374985" y="484.0" type="line"/>
      <point x="368.30003589374985" y="652.0" type="line"/>
      <point x="372.60959696835954" y="644.9020664600206" type="line"/>
      <point x="325.75425878537163" y="669.2636306982408"/>
      <point x="278.21654162375575" y="684.0"/>
      <point x="232.05025253169418" y="684.0" type="curve" smooth="yes"/>
      <point x="85.82565721615366" y="684.0"/>
      <point x="-8.14422766478407" y="537.8664925574562"/>
      <point x="-8.14422766478404" y="334.0" type="curve" smooth="yes"/>
      <point x="-8.14422766478401" y="141.15288302767826"/>
      <point x="80.29601913543762" y="-6.999999999999983"/>
      <point x="222.85786437626905" y="-7.0" type="curve" smooth="yes"/>
      <point x="277.3744765971327" y="-7.000000000000007"/>
      <point x="328.2858363516606" y="13.67531833562532"/>
      <point x="383.4925322715225" y="46.856793029687736" type="curve"/>
    </contour>
  </outline>
</glyph>
<glyph name="H" format="2">
  <advance width="497"/>
  <unicode hex="0048"/>
  <outline>
    <contour>
      <point x="-2.1693539306311043" y="-8.0" type="line" smooth="yes"/>
      <point x="-7.6908268928182135" y="-7.999999999999999"/>
      <point x="-11.552317250683314" y="-2.539027964934237"/>
      <point x="-9.71182626328761" y="2.6666666666666674" type="curve" smooth="yes"/>
      <point x="4.332986614849895" y="42.39139637317538"/>
      <point x="8.922529161405649" y="96.74796636366959"/>
      <point x="8.922529161405663" y="349.0" type="curve" smooth="yes"/>
      <point x="8.922529161405677" y="587.2292040499328"/>
      <point x="4.347634477197769" y="638.5605696550532"/>
      <point x="-9.690155994500667" y="677.2728153131673" type="curve" smooth="yes"/>
      <point x="-11.581686856366053" y="682.4891210802369"/>
      <point x="-7.718023578119059" y="688.0"/>
      <point x="-2.1693539306311025" y="688.0" type="curve" smooth="yes"/>
      <point x="137.13068196311878" y="688.0" type="line" smooth="yes"/>
      <point x="142.68245341271424" y="688.0"/>
      <point x="146.54634942535324" y="682.4834195113115"/>
      <point x="144.64898455269355" y="677.2659323030339" type="curve" smooth="yes"/>
      <point x="132.059125894837" y="642.6455872930039"/>
      <point x="127.43743054949964" y="597.9636326952419"/>
      <point x="126.03855736529333" y="417.9378386430867" type="curve"/>
      <point x="118.03879887108198" y="426.0" type="line"/>
      <point x="294.10838738653234" y="426.0" type="line"/>
      <point x="286.108628892321" y="417.9378386430867" type="line"/>
      <point x="284.70975570811476" y="597.9636326952419"/>
      <point x="280.0880603627773" y="642.6455872930039"/>
      <point x="267.49820170492075" y="677.2659323030339" type="curve" smooth="yes"/>
      <point x="265.60083683226105" y="682.4834195113115"/>
      <point x="269.4647328449001" y="688.0"/>
      <point x="275.0165042944955" y="688.0" type="curve" smooth="yes"/>
      <point x="414.3165401882454" y="688.0" type="line" smooth="yes"/>
      <point x="419.86520983573314" y="688.0"/>
      <point x="423.7288731139803" y="682.4891210802367"/>
      <point x="421.837342252115" y="677.2728153131673" type="curve" smooth="yes"/>
      <point x="407.7995517804166" y="638.5605696550532"/>
      <point x="403.22465709620866" y="587.2292040499328"/>
      <point x="403.2246570962086" y="349.0" type="curve" smooth="yes"/>
      <point x="403.22465709620855" y="96.74796636366959"/>
      <point x="407.8141996427645" y="42.39139637317538"/>
      <point x="421.85901252090196" y="2.6666666666666647" type="curve" smooth="yes"/>
      <point x="423.69950350829765" y="-2.5390279649342147"/>
      <point x="419.8380131504325" y="-8.0"/>
      <point x="414.3165401882454" y="-8.0" type="curve" smooth="yes"/>
      <point x="275.0165042944955" y="-8.0" type="line" smooth="yes"/>
      <point x="269.52380459524795" y="-7.999999999999999"/>
      <point x="265.66487120395493" y="-2.591661344778846"/>
      <point x="267.45158819551693" y="2.602315202932727" type="curve" smooth="yes"/>
      <point x="280.08559962004557" y="39.32931749396405"/>
      <point x="285.40654545324253" y="87.54014912083558"/>
      <point x="286.1084349768275" y="291.0275942468199" type="curve"/>
      <point x="294.10838738653234" y="283.0" type="line"/>
      <point x="118.03879887108198" y="283.0" type="line"/>
      <point x="126.03875128078683" y="291.0275942468199" type="line"/>
      <point x="126.74064080437175" y="87.54014912083558"/>
      <point x="132.06158663756875" y="39.32931749396404"/>
      <point x="144.69559806209736" y="2.6023152029327243" type="curve" smooth="yes"/>
      <point x="146.48231505365933" y="-2.5916613447788417"/>
      <point x="142.6233816623663" y="-8.0"/>
      <point x="137.13068196311878" y="-8.0" type="curve" smooth="yes"/>
    </contour>
    <contour>
      <point x="-2.1693539306311034" y="8.0" type="line"/>
      <point x="137.13068196311878" y="8.0" type="line"/>
      <point x="129.5657658641402" y="-2.6023152029327243" type="line"/>
      <point x="116.74617444163452" y="34.66416712985641"/>
      <point x="110.75104598484967" y="84.49594958502426"/>
      <point x="110.03884646137713" y="290.9724057531801" type="curve" smooth="yes"/>
      <point x="110.02356939608904" y="295.40143750253407"/>
      <point x="113.60974077420526" y="299.0"/>
      <point x="118.03879887108198" y="299.0" type="curve" smooth="yes"/>
      <point x="294.10838738653234" y="299.0" type="line" smooth="yes"/>
      <point x="298.53744548340916" y="299.0"/>
      <point x="302.1236168615253" y="295.4014375025342"/>
      <point x="302.1083397962372" y="290.9724057531801" type="curve" smooth="yes"/>
      <point x="301.3961402727646" y="84.49594958502426"/>
      <point x="295.4010118159797" y="34.6641671298564"/>
      <point x="282.5814203934741" y="-2.602315202932727" type="curve"/>
      <point x="275.0165042944955" y="8.0" type="line"/>
      <point x="414.3165401882454" y="8.0" type="line"/>
      <point x="406.7740678555889" y="-2.6666666666666647" type="line"/>
      <point x="392.5371958221549" y="37.601288364238535"/>
      <point x="387.22465709620855" y="93.29848555375196"/>
      <point x="387.2246570962086" y="349.0" type="curve" smooth="yes"/>
      <point x="387.22465709620866" y="590.728534050524"/>
      <point x="392.5517476549252" y="643.4462979036227"/>
      <point x="406.7957381243759" y="682.7271846868327" type="curve"/>
      <point x="414.3165401882454" y="672.0" type="line"/>
      <point x="275.0165042944955" y="672.0" type="line"/>
      <point x="282.5348068840703" y="682.7340676969661" type="line"/>
      <point x="295.3930825188625" y="647.3756136580266"/>
      <point x="300.679448587989" y="601.9261223593992"/>
      <point x="302.1081458807437" y="418.0621613569133" type="curve" smooth="yes"/>
      <point x="302.14266542913646" y="413.6197221280442"/>
      <point x="298.55096072879877" y="410.0"/>
      <point x="294.10838738653234" y="410.0" type="curve" smooth="yes"/>
      <point x="118.03879887108198" y="410.0" type="line" smooth="yes"/>
      <point x="113.59622552881555" y="410.0"/>
      <point x="110.00452082847785" y="413.6197221280442"/>
      <point x="110.03904037687063" y="418.0621613569133" type="curve" smooth="yes"/>
      <point x="111.46773766962532" y="601.9261223593992"/>
      <point x="116.7541037387518" y="647.3756136580266"/>
      <point x="129.612379373544" y="682.7340676969661" type="curve"/>
      <point x="137.13068196311878" y="672.0" type="line"/>
      <point x="-2.169353930631105" y="672.0" type="line"/>
      <point x="5.351448133238461" y="682.7271846868327" type="line"/>
      <point x="19.595438602689185" y="643.4462979036227"/>
      <point x="24.922529161405677" y="590.728534050524"/>
      <point x="24.922529161405663" y="349.0" type="curve" smooth="yes"/>
      <point x="24.92252916140565" y="93.29848555375196"/>
      <point x="19.609990435459412" y="37.601288364238535"/>
      <point x="5.373118402025403" y="-2.6666666666666674" type="curve"/>
    </contour>
  </outline>
</glyph>
<glyph name="I" format="2">
  <advance width="225"/>
  <unicode hex="0049"/>
  <outline>
    <contour>
      <point x="0.42357518193222127" y="-8.0" type="line" smooth="yes"/>
      <point x="-5.097897780254889" y="-7.999999999999999"/>
      <point x="-8.959388138119989" y="-2.539027964934237"/>
      <point x="-7.118897150724285" y="2.6666666666666674" type="curve" smooth="yes"/>
      <point x="6.92591572741322" y="42.39139637317538"/>
      <point x="11.515458273968989" y="96.74796636366959"/>
      <point x="11.515458273969003" y="349.0" type="curve" smooth="yes"/>
      <point x="11.515458273969017" y="587.2292040499328"/>
      <point x="6.940563589761094" y="638.5605696550532"/>
      <point x="-7.097226881937343" y="677.2728153131673" type="curve" smooth="yes"/>
      <point x="-8.988757743802728" y="682.4891210802369"/>
      <point x="-5.1250944655557324" y="688.0"/>
      <point x="0.4235751819322232" y="688.0" type="curve" smooth="yes"/>
      <point x="139.7236110756821" y="688.0" type="line" smooth="yes"/>
      <point x="145.2722807231698" y="688.0"/>
      <point x="149.13594400141696" y="682.4891210802367"/>
      <point x="147.24441313955165" y="677.2728153131673" type="curve" smooth="yes"/>
      <point x="133.20662266785317" y="638.5605696550532"/>
      <point x="128.63172798364536" y="587.2292040499328"/>
      <point x="128.6317279836453" y="349.0" type="curve" smooth="yes"/>
      <point x="128.63172798364525" y="96.74796636366959"/>
      <point x="133.22127053020105" y="42.39139637317539"/>
      <point x="147.2660834083386" y="2.6666666666666714" type="curve" smooth="yes"/>
      <point x="149.1065743957343" y="-2.539027964934215"/>
      <point x="145.2450840378692" y="-8.0"/>
      <point x="139.7236110756821" y="-8.0" type="curve" smooth="yes"/>
    </contour>
    <contour>
      <point x="0.42357518193222227" y="8.0" type="line"/>
      <point x="139.7236110756821" y="8.0" type="line"/>
      <point x="132.1811387430256" y="-2.6666666666666714" type="line"/>
      <point x="117.94426670959156" y="37.601288364238535"/>
      <point x="112.63172798364526" y="93.29848555375196"/>
      <point x="112.6317279836453" y="349.0" type="curve" smooth="yes"/>
      <point x="112.63172798364535" y="590.728534050524"/>
      <point x="117.95881854236178" y="643.4462979036227"/>
      <point x="132.20280901181255" y="682.7271846868327" type="curve"/>
      <point x="139.7236110756821" y="672.0" type="line"/>
      <point x="0.4235751819322203" y="672.0" type="line"/>
      <point x="7.944377245801786" y="682.7271846868327" type="line"/>
      <point x="22.18836771525251" y="643.4462979036227"/>
      <point x="27.515458273969017" y="590.728534050524"/>
      <point x="27.515458273969003" y="349.0" type="curve" smooth="yes"/>
      <point x="27.51545827396899" y="93.29848555375196"/>
      <point x="22.202919548022738" y="37.601288364238535"/>
      <point x="7.966047514588729" y="-2.6666666666666674" type="curve"/>
    </contour>
  </outline>
</glyph>
<glyph name="J" format="2">
  <advance width="331"/>
  <unicode hex="004A"/>
  <outline>
    <contour>
      <point x="126.74085501838519" y="236.0" type="curve" smooth="yes"/>
      <point x="126.74085501838519" y="349.0" type="line" smooth="yes"/>
      <point x="126.74085501838519" y="587.2292040499328"/>
      <point x="122.16596033417727" y="638.5605696550532"/>
      <point x="108.12816986247883" y="677.2728153131673" type="curve" smooth="yes"/>
      <point x="106.23663900061344" y="682.4891210802369"/>
      <point x="110.10030227886044" y="688.0"/>
      <point x="115.6489719263484" y="688.0" type="curve" smooth="yes"/>
      <point x="254.94900782009825" y="688.0" type="line" smooth="yes"/>
      <point x="260.49767746758596" y="688.0"/>
      <point x="264.3613407458331" y="682.4891210802367"/>
      <point x="262.4698098839678" y="677.2728153131673" type="curve" smooth="yes"/>
      <point x="248.43201941226934" y="638.5605696550532"/>
      <point x="243.85712472806148" y="587.2292040499328"/>
      <point x="243.85712472806148" y="349.0" type="curve" smooth="yes"/>
      <point x="243.85712472806148" y="231.0" type="line" smooth="yes"/>
      <point x="243.85712472806148" y="87.8339029423001"/>
      <point x="181.13408091943384" y="-16.398684639061855"/>
      <point x="74.75712265275102" y="-17.999094780860293" type="curve" smooth="yes"/>
      <point x="43.32745618426965" y="-18.471944896045947"/>
      <point x="6.761308046790164" y="-9.836018292803434"/>
      <point x="-31.250961885077675" y="7.738538446850164" type="curve" smooth="yes"/>
      <point x="-34.08156825046591" y="9.04723830258897"/>
      <point x="-35.89370465452075" y="11.881502331540531"/>
      <point x="-35.89370465452075" y="15.000000000000002" type="curve" smooth="yes"/>
      <point x="-35.89370465452075" y="186.0" type="line" smooth="yes"/>
      <point x="-35.89370465452075" y="193.88234273464766"/>
      <point x="-25.697385025908012" y="197.01396872500658"/>
      <point x="-21.272895319862382" y="190.4905326804401" type="curve" smooth="yes"/>
      <point x="9.662444469440462" y="144.87968848371767"/>
      <point x="39.165349767515224" y="126.0"/>
      <point x="66.15149724329007" y="126.0" type="curve" smooth="yes"/>
      <point x="104.94087761994189" y="126.0"/>
      <point x="126.74085501838519" y="162.85804292705362"/>
    </contour>
    <contour>
      <point x="142.7408550183852" y="236.0" type="line" smooth="yes"/>
      <point x="142.7408550183852" y="149.29114208635826"/>
      <point x="112.13581330804776" y="110.0"/>
      <point x="66.15149724329007" y="110.0" type="curve" smooth="yes"/>
      <point x="35.18239092224494" y="110.0"/>
      <point x="0.9866566715311265" y="129.16679467282768"/>
      <point x="-34.51451398917911" y="181.5094673195599" type="curve"/>
      <point x="-19.893704654520747" y="186.0" type="line"/>
      <point x="-19.893704654520747" y="14.999999999999998" type="line"/>
      <point x="-24.536447423963818" y="22.261461553149836" type="line"/>
      <point x="10.99173489618696" y="5.835395518119807"/>
      <point x="45.14068505313664" y="-2.4428547562899734"/>
      <point x="74.51643458230627" y="-2.000905219139706" type="curve" smooth="yes"/>
      <point x="173.14943661294348" y="-0.5170006279769661"/>
      <point x="227.85712472806148" y="98.25600946015037"/>
      <point x="227.85712472806148" y="231.0" type="curve" smooth="yes"/>
      <point x="227.85712472806148" y="349.0" type="line" smooth="yes"/>
      <point x="227.85712472806148" y="590.728534050524"/>
      <point x="233.18421528677794" y="643.4462979036227"/>
      <point x="247.4282057562287" y="682.7271846868327" type="curve"/>
      <point x="254.94900782009825" y="672.0" type="line"/>
      <point x="115.6489719263484" y="672.0" type="line"/>
      <point x="123.16977399021796" y="682.7271846868327" type="line"/>
      <point x="137.4137644596687" y="643.4462979036227"/>
      <point x="142.7408550183852" y="590.728534050524"/>
      <point x="142.7408550183852" y="349.0" type="curve" smooth="yes"/>
    </contour>
  </outline>
</glyph>
